<svg xmlns="http://www.w3.org/2000/svg">
<defs>
<font id="UVFBlendaScript" horiz-adv-x="1077" >
  <font-face 
    font-family="UVF Blenda Script"
    font-weight="400"
    font-stretch="normal"
    units-per-em="2048"
    panose-1="2 4 6 3 5 5 6 2 2 4"
    ascent="1638"
    descent="-410"
    x-height="1024"
    cap-height="1540"
    bbox="-496 -904 4942 2532.05"
    underline-thickness="109"
    underline-position="-143"
    unicode-range="U+0020-U+2122"
  />
<missing-glyph horiz-adv-x="5040" 
d="M3351 2045h10q37 -10 37 -52q0 -12 -32 -57h-28q0 24 28 54l2 10q-5 13 -10 15h-9q-8 0 -10 -19h-30q6 49 42 49zM2019 2016l29 -31q0 -16 -40 -30h-19l-59 12l-11 -12l-28 25q11 29 43 29h11l42 -11h2q10 0 30 18zM468 1980h142v-60h-94v-75h89v-59h-89v-129l-5 -5h-49
v323zM1155 1980h43l6 -5v-78h30v-52h-30v-188l-6 -5h-49v193h-25v52h25v78zM1621 1980h42l4 -5v-94h3q23 24 54 24h2q58 0 83 -71l2 -39v-143h-52v115q0 80 -42 80h-7q-43 0 -43 -86v-109h-51v323zM2200 1980h49l5 -5v-222q10 -51 45 -51q44 7 44 59v214l5 5h49v-216
q0 -85 -66 -112q-15 -8 -35 -8q-47 0 -82 55q-14 24 -14 57v224zM2435 1980h159v-60h-56v-268h-53v268h-55v55zM2621 1980h71q7 -4 83 -251h2l80 251h73v-328h-54v242h-2l-74 -242h-44q-4 0 -58 182l-19 60h-3v-242h-55v328zM3760 1980h52v-328h-45l-5 5v11l3 2l-3 14
q-29 -40 -78 -40q-67 0 -100 91l-5 39v3q0 94 92 125l23 3q35 0 63 -32h3v107zM2057 1928h36l4 -6v-49h-45v-221h-48v23q-23 -31 -59 -31q-89 14 -89 97v156h51v-104q0 -79 26 -86l18 -5h6q26 0 39 36l3 26v133h53v25zM3476 1928v-55h-31v-221h-47v25h-2q-15 -33 -57 -33
q-68 0 -86 78l-3 29v146h52v-120q0 -50 19 -68l21 -7h9q42 0 42 69v126h27q4 0 4 28l3 3h49zM758 1905q68 0 103 -77q9 -18 12 -54q0 -88 -90 -127l-32 -3q-63 0 -101 73q-12 22 -12 52v10q0 94 101 126h19zM1011 1905h3q74 0 83 -101v-152h-51v119q0 76 -42 76h-5
q-44 0 -44 -76v-119h-52v245h46v-21q30 29 62 29zM1466 1905h7q72 0 105 -89h-60q-16 31 -42 31h-17q-53 -14 -53 -61l-3 -15q12 -69 61 -69h9q22 0 47 27h40l2 3h3l2 -3l2 3l3 -3l2 3l2 -7q-33 -81 -110 -81q-76 0 -110 94l-4 36v3q0 85 77 120q15 8 37 8zM3141 1905h2

<glyph glyph-name=".notdef" horiz-adv-x="5040" 
d="M3351 2045h10q37 -10 37 -52q0 -12 -32 -57h-28q0 24 28 54l2 10q-5 13 -10 15h-9q-8 0 -10 -19h-30q6 49 42 49zM2019 2016l29 -31q0 -16 -40 -30h-19l-59 12l-11 -12l-28 25q11 29 43 29h11l42 -11h2q10 0 30 18zM468 1980h142v-60h-94v-75h89v-59h-89v-129l-5 -5h-49
v323zM1155 1980h43l6 -5v-78h30v-52h-30v-188l-6 -5h-49v193h-25v52h25v78zM1621 1980h42l4 -5v-94h3q23 24 54 24h2q58 0 83 -71l2 -39v-143h-52v115q0 80 -42 80h-7q-43 0 -43 -86v-109h-51v323zM2200 1980h49l5 -5v-222q10 -51 45 -51q44 7 44 59v214l5 5h49v-216
q0 -85 -66 -112q-15 -8 -35 -8q-47 0 -82 55q-14 24 -14 57v224zM2435 1980h159v-60h-56v-268h-53v268h-55v55zM2621 1980h71q7 -4 83 -251h2l80 251h73v-328h-54v242h-2l-74 -242h-44q-4 0 -58 182l-19 60h-3v-242h-55v328zM3760 1980h52v-328h-45l-5 5v11l3 2l-3 14
q-29 -40 -78 -40q-67 0 -100 91l-5 39v3q0 94 92 125l23 3q35 0 63 -32h3v107zM2057 1928h36l4 -6v-49h-45v-221h-48v23q-23 -31 -59 -31q-89 14 -89 97v156h51v-104q0 -79 26 -86l18 -5h6q26 0 39 36l3 26v133h53v25zM3476 1928v-55h-31v-221h-47v25h-2q-15 -33 -57 -33
q-68 0 -86 78l-3 29v146h52v-120q0 -50 19 -68l21 -7h9q42 0 42 69v126h27q4 0 4 28l3 3h49zM758 1905q68 0 103 -77q9 -18 12 -54q0 -88 -90 -127l-32 -3q-63 0 -101 73q-12 22 -12 52v10q0 94 101 126h19zM1011 1905h3q74 0 83 -101v-152h-51v119q0 76 -42 76h-5
q-44 0 -44 -76v-119h-52v245h46v-21q30 29 62 29zM1466 1905h7q72 0 105 -89h-60q-16 31 -42 31h-17q-53 -14 -53 -61l-3 -15q12 -69 61 -69h9q22 0 47 27h40l2 3h3l2 -3l2 3l3 -3l2 3l2 -7q-33 -81 -110 -81q-76 0 -110 94l-4 36v3q0 85 77 120q15 8 37 8zM3141 1905h2
q49 0 70 -60v-14h-52q0 16 -16 16h-4q-14 0 -19 -13v-13q0 -9 68 -35q30 -19 30 -59q0 -58 -61 -80l-23 -3q-76 12 -76 83h54q0 -20 27 -25h4q19 0 24 23q0 22 -68 44q-34 27 -34 59q0 66 74 77zM4203 1905q55 0 77 -63q7 -18 7 -65v-125h-52v112q0 83 -40 83h-11
q-33 0 -40 -54v-141h-52v5h-2l2 2v238h47v-21q25 29 64 29zM4432 1905h5q40 0 69 -40v18l-3 3l3 11h47v-208q0 -97 -85 -132l-33 -4h-7q-70 0 -104 80h59q24 -22 45 -23h13q22 0 43 22q15 13 22 52h-3q-32 -40 -73 -40q-57 0 -96 70q-10 18 -14 63q0 88 87 125zM3851 1897
h53v-136q6 -59 40 -59h7q46 0 46 93v102h51v-245h-47l-3 10h3l-3 3v5l3 2v3h-4q0 -23 -57 -31h-3q-59 0 -84 75l-2 85v93zM690 1771q10 -69 63 -69h7q59 14 59 65v15q-13 65 -59 65h-5q-58 0 -65 -76zM3630 1774q13 -72 61 -72h5q58 0 66 75q0 49 -51 70h-22q-37 0 -56 -57z
M4374 1774q8 -72 65 -72h5q59 12 59 72q0 61 -59 73h-14q-56 -16 -56 -62v-11zM3928 1620h52v-57h-52v57zM1054 1402q43 -11 43 -49v-4q0 -17 -32 -60h-28q0 25 31 57v7q0 12 -7 15h-12q-10 -4 -10 -19h-28v6q0 32 33 44zM3349 1339q92 0 138 -99h-60q-37 42 -80 42
q-55 0 -87 -68q-10 -22 -10 -47q0 -78 81 -110l18 -1q36 0 75 39h61q-44 -97 -138 -97q-93 0 -141 112q-10 31 -10 62q0 97 90 152q29 15 63 15zM3664 1339q57 0 103 -47q46 -51 46 -115v-20q0 -89 -91 -146q-33 -13 -63 -13q-89 0 -138 101q-13 33 -13 60v18q0 98 98 151
q29 11 58 11zM2261 1337h2l47 -11h3q11 0 26 11l18 -36q-18 -19 -35 -19h-3l-54 10l-20 -7l-20 36q18 16 36 16zM716 1334h19q118 0 129 -26q25 -26 25 -62q-10 -57 -30 -57v-6q47 -23 47 -66v-18q0 -63 -69 -88l-54 -5h-67v328zM2550 1334h53v-217q6 -61 45 -61q29 0 44 39
l3 30v203l4 6h45l5 -6v-171q0 -118 -40 -133q-24 -26 -64 -26q-55 0 -91 76l-4 54v206zM2805 1334h59q4 0 122 -237h4v237h50l4 -6v-322h-58q-29 48 -125 238h-3v-238h-53v328zM3101 1334h54v-328h-54v328zM3859 1334h8q155 0 174 -40q23 -11 47 -75l4 -36v-11l3 -2
q0 -94 -82 -149q-35 -15 -99 -15h-55v328zM4141 1334h153v-60h-103v-75h101v-57h-101v-74l4 -5h99v-57h-157v322zM3563 1175v-10q0 -76 79 -108l19 -1q68 0 96 86l3 20v15q0 61 -60 94q-12 8 -39 11q-66 0 -96 -83zM770 1274v-67h9q54 0 54 28l3 14q-11 25 -29 25h-37z
M3912 1274v-206l2 -3v-2q104 0 122 76l2 15v29q0 34 -32 68q-25 23 -78 23h-16zM1041 1259h5q38 0 71 -40v32h49v-245h-49v32q-36 -40 -80 -40q-75 0 -101 97l-5 36q0 89 85 125zM1314 1259h3q74 0 83 -102v-151h-51v128q0 67 -42 67h-10q-34 0 -39 -62v-133h-52v245h47v-21
q28 29 61 29zM1543 1259h5q45 0 71 -40v32h47v-219q0 -95 -104 -126h-16q-74 0 -108 82h59q26 -25 44 -25h14q52 0 64 77q-33 -42 -76 -42q-60 0 -101 81l-7 44v16q0 79 85 117zM1912 1259h2q43 0 61 -37h2q32 37 69 37h4q57 0 79 -55q8 -25 8 -45v-153h-52v138q0 44 -23 55
l-12 2h-15q-32 0 -36 -65v-130h-52v136q0 59 -43 59h-8q-32 0 -36 -57v-138h-54v245h50v-21h2q6 24 54 29zM2282 1259q47 0 75 -42v34h47v-245h-47v32q-36 -40 -78 -40q-74 0 -102 92l-6 41q0 90 85 125zM985 1117q0 -48 61 -61h4q45 0 62 46l3 15v22q-12 62 -57 62h-14
q-41 0 -59 -57v-27zM1487 1128q0 -48 43 -68l18 -4h5q47 0 63 57v23q-11 65 -58 65h-12q-50 0 -59 -73zM2225 1131v-14q15 -61 57 -61h14q58 12 58 64v11q0 45 -37 65l-18 5h-10q-64 -8 -64 -70zM770 1150v-82q0 -5 7 -5q77 0 77 45q0 34 -47 42h-37zM2966 753l24 -28
l-51 -55q-18 12 -27 26zM1524 727l85 -54q0 -15 -21 -42l-87 54q18 41 23 42zM2850 693h38l55 -60h-54l-21 26l-23 -26h-54q54 60 59 60zM3422 693h40l56 -60h-54l-24 26h-1q0 -5 -19 -26h-54zM622 685h52q8 -4 47 -137l34 -110q9 8 34 100l48 147h54v-2l-112 -326h-44z
M1159 685h51v-54h-51v54zM1354 685h46l6 -5v-323h-52v328zM2317 685h45l4 -5v-78h31v-52h-31v-193h-53v193h-26v52h26v78zM2425 685h52v-98h2q23 23 54 23h3q57 0 81 -71l3 -38v-144h-52v115q0 81 -39 81h-10q-42 0 -42 -87v-109h-52v328zM2664 685h52v-54h-52v54zM3028 685
h44l6 -5v-78h29v-52h-29v-193h-54v193h-27v52h27v78zM3234 685h52v-328h-52v328zM3957 685h52v-328h-52v328zM4316 685h51v-54h-51v54zM1555 610h5q83 0 110 -102l3 -23v-11q0 -83 -85 -120l-35 -5q-76 0 -111 97l-4 32q0 97 93 130zM1811 610h4q53 0 78 -60q7 -25 7 -81
v-112h-54v146q-7 50 -37 50h-10q-38 0 -42 -57v-139h-54v245h49v-21q26 29 59 29zM2046 610h4q45 0 63 -39h3v31h49v-206q0 -102 -89 -135l-28 -3h-5q-73 0 -106 81h52l37 -20l15 -3h14q50 0 61 72q-33 -39 -73 -39q-62 0 -98 76q-11 23 -12 60q0 85 86 123zM2866 610h2
q82 0 111 -104l2 -25l-2 -27h-172q15 -45 45 -45l14 -3q29 0 49 22h57v-3q-35 -76 -108 -76q-77 0 -111 97l-1 28v8q0 49 32 89q34 39 82 39zM3429 610h5q41 0 70 -39h2v31h47v-245h-47v31h-2q-35 -39 -77 -39q-71 0 -101 89l-5 36v14q0 86 84 120zM3711 610h7
q88 0 107 -128l-2 -1v-15q0 -65 -66 -106q-21 -11 -46 -11q-34 0 -64 32v-99l-5 -5h-49v325h49v-28q31 36 69 36zM4151 610q44 0 75 -39v31h49v-245h-49v31q-35 -39 -77 -39q-92 0 -108 132q0 84 73 121q15 8 37 8zM922 602h50v-136q3 -60 42 -60h5q44 0 44 87v109h52v-245
h-47v24h-5q0 -23 -56 -32h-3q-55 0 -82 68q-4 35 -4 99v81zM1159 602h51v-245h-51v245zM2664 602h52v-245h-52v245zM4316 602h51v-245h-51v245zM1492 488v-16q13 -66 59 -66h4q59 0 66 76q-13 71 -59 71h-11q-59 -16 -59 -65zM1987 472q15 -66 59 -66h11q48 0 59 75v1
q-13 71 -59 71h-14q-39 0 -56 -57v-24zM2805 506h122v2q-16 45 -59 45h-7q-35 0 -56 -47zM3373 474q13 -68 61 -68h5q52 0 65 63v12q-10 72 -57 72h-16q-56 -14 -56 -63zM3642 478q12 -72 61 -72h3q50 0 65 60v22q0 43 -49 65h-22q-47 0 -58 -72v-3zM4095 472q10 -66 66 -66
q43 0 61 48l2 15v16q0 54 -52 68h-18q-42 0 -59 -60v-21zM3416 321h51v-52h-51v52zM4137 321h51v-52h-51v52zM2733 133h4q35 0 43 -50v-2q0 -16 -24 -41l-10 -17h-28q0 25 28 56l3 2v2q-3 19 -9 19h-10q-8 0 -9 -19h-30q6 50 42 50zM1546 116l52 -60l-26 -19l-52 52zM352 79
h4q75 -48 85 -60l-20 -37q-88 49 -88 58zM3490 79l86 -58l-18 -39q-10 0 -91 55q15 36 23 42zM4578 76l19 -42l-91 -52l-20 39l92 58v-3zM1204 53h51v-19l5 -5h14v-36h-14l-5 -5v-279h-46v31q-34 -40 -81 -40q-72 0 -102 105l-3 26q0 102 101 131h14q33 0 66 -33v59l-6 5
h-43v36h49v24zM1480 45h40l56 -61h-53l-23 27l-23 -27h-53zM2641 45h33q12 0 63 -61h-54l-23 27q-19 -21 -19 -27h-58v4zM49 37h160v-60h-56v-268h-50l-4 5v245l2 3v2l-2 2l2 3l-2 2l2 3l-2 3h-54v54zM699 37h47v-73l2 -2l-2 -3v-3l2 -2l-2 -3v-3l2 -2v-2l-2 -3l2 -3h3
q17 24 51 24h3q53 0 77 -58q7 -17 7 -42v-153h-52v127q0 68 -40 68h-8q-43 0 -43 -86v-109h-52v322zM1297 37h47l5 -6v-49h-52v55zM1987 37h52v-198l70 115h62l-78 -118l90 -125v-2h-70q-10 22 -74 115v-115h-52v328zM2271 37v-99q24 24 53 24q57 0 80 -56q10 -19 10 -77
v-120h-54v133q0 62 -41 62h-11q-31 0 -37 -55v-140h-53v314l-1 3v3l1 2l-1 3l1 3h53zM2458 37h51v-55h-51v55zM3148 37h51v-108q27 33 68 33h3q75 0 105 -94l5 -37q0 -75 -64 -120q-30 -11 -49 -11q-41 0 -72 40v-31h-47v328zM4275 37h52v-99h2q23 24 54 24h3q60 0 82 -74
l2 -41v-138h-52v111q0 82 -32 82l-10 2h-12q-37 0 -37 -80v-115h-52v328zM329 -38h3v-58h-5q-42 0 -42 -57v-138h-53v245h47v-21q18 29 50 29zM564 -38q71 0 86 -87v-166h-51v136q-6 59 -41 59h-6q-45 0 -45 -84v-111h-52v245h50v-21q25 29 59 29zM1504 -38q72 0 105 -94
l5 -39q-2 -24 -7 -24h-169q17 -47 62 -47q24 0 48 21h57q-33 -79 -108 -79q-82 0 -113 105v37q0 81 89 117zM2657 -38h5q77 0 107 -97l3 -26v-21l-3 -13h-170q18 -47 53 -47h12q21 0 42 21h59q-34 -79 -105 -79q-84 0 -115 102l-2 29q0 93 91 128zM2915 -38h4q54 0 78 -60
q7 -25 7 -82v-111h-54v138q0 48 -35 57h-11q-38 0 -43 -57v-138h-54v245h50v-21q25 29 58 29zM3508 -38h6q40 0 70 -40h2v32h47v-245h-47v31h-2q-34 -40 -78 -40q-71 0 -101 90l-4 37v12q0 82 77 117q11 6 30 6zM3781 -38h4q62 0 82 -78l3 -84v-91h-54v138q0 48 -38 57h-9
q-38 0 -42 -52v-143h-54v245h49v-21q26 29 59 29zM4133 -38h1q74 0 104 -93l4 -40q0 -88 -84 -126l-25 -3q-41 0 -68 34v-106h-52v326h47v-29q30 37 73 37zM4714 -38h5q34 0 63 -37q27 37 69 37h6q56 0 79 -66l6 -51v-136h-52v122q0 73 -39 73h-7q-35 0 -41 -50v-140l-5 -5
h-48v140q0 42 -31 55h-17q-40 0 -40 -77v-118h-51v245h47v-21q22 29 56 29zM359 -46h49l5 -6v-234l-5 -5h-49v245zM1297 -46h52v-245h-52v245zM1649 -46h52v-136q4 -60 43 -60h4q44 0 44 81v115h52v-245h-47v24h-5q-12 -33 -59 -33q-52 0 -79 63q-5 12 -5 34v157zM2458 -46
h51v-245h-51v245zM4515 -46h51v-245h-51v245zM1077 -169q0 -53 51 -73h12q54 0 66 66v10q0 53 -54 70h-17q-38 0 -58 -57v-16zM1438 -143h122q-18 47 -53 47h-7q-43 0 -62 -44v-3zM2599 -143h122q-21 47 -54 47h-7q-46 0 -61 -47zM3196 -158v-11q10 -73 61 -73h5q64 8 64 71
v5q0 45 -38 65l-18 5h-14q-60 -14 -60 -62zM3452 -173q14 -69 62 -69h11q41 0 59 60v13q-8 73 -56 73h-17q-47 0 -59 -73v-4zM4062 -158v-22q0 -47 59 -62h9q50 0 61 76q-13 70 -58 70h-15q-56 -17 -56 -62z" />
    <glyph glyph-name="NULL" horiz-adv-x="0" 
 />
    <glyph glyph-name="nonmarkingreturn" horiz-adv-x="571" 
 />
    <glyph glyph-name="space" unicode=" " horiz-adv-x="461" 
 />
    <glyph glyph-name="hyphen.001" unicode="&#x2010;" horiz-adv-x="921" 
d="M799 840v-420h-707v420h707z" />
    <glyph glyph-name="onequarter" unicode="&#xbc;" horiz-adv-x="1950" 
 />
    <glyph glyph-name="onehalf" unicode="&#xbd;" horiz-adv-x="1950" 
 />
    <glyph glyph-name="threequarters" unicode="&#xbe;" horiz-adv-x="1950" 
 />
    <glyph glyph-name="Dslash.001" horiz-adv-x="1515" 
d="M740 354q88 0 139 101q49 92 49 221q0 127 -47 211q-51 96 -141 96h-162v-225h154v-172h-154v-232h162zM62 590h-92v172h92v602h854q264 0 424 -221q146 -203 146 -486q0 -272 -140 -456q-155 -207 -430 -207h-854v596z" />
    <glyph glyph-name="exclam" unicode="!" horiz-adv-x="657" 
d="M707 1438l-261 -1010h-219l185 946zM285 330q34 0 62.5 -13t51.5 -34q44 -50 41 -117t-53 -117q-49 -49 -117 -49q-37 0 -64.5 12t-51.5 37q-23 25 -33 54t-8 63t14.5 63t38.5 54q26 21 55.5 34t63.5 13z" />
    <glyph glyph-name="quotedbl" unicode="&#x22;" horiz-adv-x="743" 
d="M199 1538l221 2l-176 -393h-166zM522 1538l223 2l-180 -393h-162z" />
    <glyph glyph-name="numbersign" unicode="#" horiz-adv-x="1159" 
d="M928 670l-47 -232h247l-106 -176h-176l-66 -323h-121l58 323h-246l-65 -323h-119l53 323h-285l107 176h209l39 232h-267l109 176h188l95 555l176 65l-125 -620h229l96 555l174 65l-122 -620h256l-107 -176h-184zM506 438h239l41 232h-235z" />
    <glyph glyph-name="dollar" unicode="$" horiz-adv-x="819" 
d="M608 948q12 45 11.5 78t-9.5 55.5t-24.5 34.5t-34.5 14l-57 -311q5 -5 13 -6t11 -6q29 -25 64 -49t63 -51q25 -25 43.5 -54t26.5 -67q17 -89 -6.5 -158.5t-73 -119.5t-117.5 -79t-139 -36l-43 -248h-57l38 248q-45 4 -86.5 17.5t-75 37t-56 58t-29.5 81.5q-5 36 0.5 74.5
t21.5 73.5t42.5 65t62.5 49l114 -127q-36 -15 -62 -34.5t-41.5 -41t-20 -43.5t2.5 -41q5 -17 18.5 -29.5t32 -20.5t41.5 -11t46 0l51 352q-13 16 -28 28.5t-34 31.5q-34 23 -64 58t-44 69q-24 44 -30.5 92.5t4.5 94.5t41 86t79 69q78 37 166 43l25 186l120 62l-51 -252
q74 -15 120.5 -51t69.5 -86.5t25.5 -110.5t-12.5 -121zM449 1106q-14 -10 -26.5 -24t-21.5 -30.5t-13 -35t-1 -37.5q2 -17 3.5 -27.5t4.5 -19t8.5 -17t14.5 -20.5zM508 446q12 47 -5.5 85t-45.5 67l-54 -272q35 15 62 45t43 75z" />
    <glyph glyph-name="percent" unicode="%" horiz-adv-x="1221" 
d="M625 1188q-3 -98 -29.5 -172t-67.5 -126t-92.5 -82.5t-104 -40.5t-102.5 -0.5t-89 38t-62 75t-21 109.5q2 85 23.5 153t55 118.5t77 84.5t90 52t93 19.5t87.5 -12t72.5 -42.5t48.5 -72q11 -25 16 -49.5t5 -52.5zM219 1085q-8 -71 3 -121.5t33.5 -78.5t52.5 -32t60 19.5
t55.5 76t39.5 136.5q10 61 0 113t-31.5 86.5t-51.5 46t-60.5 -9t-57.5 -77.5t-43 -159zM1098 1542l-791 -1544h-147l792 1544h146zM1157 428q-4 -130 -48 -219t-108 -139t-136.5 -63t-134.5 8t-102 75t-38 139q3 114 38.5 196.5t89 135.5t117.5 76.5t124 19t108 -36.5
t70 -90q20 -46 20 -102zM752 326q-8 -71 3 -122t33.5 -79t52 -32t59.5 19.5t55.5 76t39.5 137.5q10 61 0 113t-31.5 86t-51.5 45.5t-60.5 -8.5t-57 -77t-42.5 -159z" />
    <glyph glyph-name="ampersand" unicode="&#x26;" horiz-adv-x="1364" 
d="M1411 872q-5 -26 -10.5 -60t-12 -70l-13 -70.5l-11.5 -59.5l-62.5 -21l-78 -27l-78 -26.5t-62.5 -19.5q-14 -51 -35 -99t-47 -91q-29 -56 -67 -103.5t-84 -87.5q-45 -42 -95 -74t-106 -55q-59 -23 -124 -34t-128 -11q-49 0 -101 7.5t-89 21.5q-35 15 -64.5 35t-52.5 43
q-25 26 -40.5 55t-26.5 61q-11 34 -17 68t-6 70q0 82 25 163q27 86 75 160q56 81 125.5 131.5t163.5 75.5q-66 48 -96 113q-31 63 -31 133q0 42 8 79.5t25 77.5q18 38 41.5 74t52.5 68t64 57t77 45q42 19 86.5 29t94.5 10q84 0 145 -29t100.5 -77t59 -110.5t21 -129.5
t-13 -133.5t-42.5 -122.5l-55 35l-57.5 37.5l-53.5 36t-41 30.5q53 73 61 136t-12 108t-61 67.5t-87 15t-89.5 -49.5t-67.5 -125q-8 -26 -12 -52t-4 -51q0 -45 12 -88q15 -60 41.5 -87t64.5 -33.5t87 -1t110 9.5l-37 -142q-106 -5 -192.5 -32.5t-148 -80t-95 -132
t-33.5 -187.5q0 -83 38 -134t98 -70t135 -6.5t149 56.5t140 119t108 181q-178 -38 -356 -41q9 45 17.5 94.5l16.5 95.5q85 4 185 24.5t201.5 51t197 69.5t170.5 80z" />
    <glyph glyph-name="quotesingle" unicode="'" horiz-adv-x="346" 
d="M457 1538l-176 -389h-162l119 389h219v0z" />
    <glyph glyph-name="parenleft" unicode="(" horiz-adv-x="575" 
d="M723 1456q-92 -47 -171 -134.5t-142 -203.5t-110 -253.5t-75.5 -283.5t-37.5 -293.5t3 -283.5t46 -254t92 -205l-68 -59q-94 103 -151.5 232.5t-83 274.5t-19.5 299.5t40 306t94 295t143 266.5t187.5 220.5t227.5 157.5l25 -82v0z" />
    <glyph glyph-name="parenright" unicode=")" horiz-adv-x="575" 
d="M-242 -424q92 46 170.5 133.5t141.5 202.5t109.5 252t75 282t38 292t-2 283t-45 253.5t-91.5 204.5l65 59q93 -103 151 -232.5t83 -274t19.5 -298t-39 -304.5t-93 -293.5t-142 -265t-187 -219.5t-226.5 -157l-27 82v0z" />
    <glyph glyph-name="asterisk" unicode="*" horiz-adv-x="805" 
d="M565 1544v-276l160 92l125 -70l-227 -131l227 -129l-125 -69l-160 90v-207l-133 -70v277l-162 -93l-123 72l226 129l-226 131l127 68l158 -90v207l133 69v0z" />
    <glyph glyph-name="plus" unicode="+" horiz-adv-x="977" 
d="M606 649h273l-43 -233h-281l-51 -254h-174l55 254h-281l46 233h280l53 254h174l-51 -254v0z" />
    <glyph glyph-name="comma" unicode="," horiz-adv-x="508" 
d="M352 332q50 -19 73 -66.5t21.5 -108.5t-25 -127.5t-67 -122.5t-105.5 -94t-140 -42l-17 77q42 2 71 13t49.5 30.5t35 46.5t28.5 62q-42 5 -75 27t-53.5 54t-25.5 71t9 79q13 33 37 57.5t54 38.5t63.5 15.5t66.5 -10.5z" />
    <glyph glyph-name="hyphen" unicode="-" horiz-adv-x="657" 
d="M532 455h-450l37 161h438l-25 -161v0z" />
    <glyph glyph-name="period" unicode="." horiz-adv-x="557" 
d="M80 152q0 66 47 118q50 47 117 47q66 0 118 -47q48 -53 48 -118q0 -35 -12.5 -63.5t-35.5 -53.5q-52 -47 -118 -47q-67 0 -117 47q-47 50 -47 117z" />
    <glyph glyph-name="slash" unicode="/" horiz-adv-x="444" 
d="M86 -512h-160l439 2052h157l-436 -2052v0z" />
    <glyph glyph-name="zero" unicode="0" horiz-adv-x="1176" 
d="M197 1235q61 104 143.5 173.5t174 102.5t185.5 29.5t177 -45t148.5 -122.5t101 -202t33.5 -283t-54 -366q-37 -139 -102 -248q-63 -103 -149.5 -171t-182 -100t-193 -27.5t-183 46.5t-151.5 122.5t-99 200.5t-25.5 280t69.5 362q12 40 24 72.5t25 61t27 56zM926 741
q26 185 16 307.5t-45 193t-88.5 92.5t-115 5t-125.5 -68t-119 -127t-96 -173t-56 -205q-21 -154 -9 -265t47 -182.5t87.5 -104t112.5 -29t122 41.5t116 109t95 172.5t58 232.5z" />
    <glyph glyph-name="one" unicode="1" horiz-adv-x="627" 
d="M152 1376l266.5 80.5t263.5 83.5l-313 -1540h-289l252 1249h-205l25 127v0z" />
    <glyph glyph-name="two" unicode="2" horiz-adv-x="1051" 
d="M1036 1260q-5 -116 -41 -220.5t-94 -199.5t-133 -180.5t-158.5 -163t-171.5 -147.5l-170 -134q67 20 160.5 29.5t197 7.5t208 -16t192.5 -41l-303 -203q-85 16 -149 27t-116.5 17t-98.5 6.5t-95.5 -5t-108.5 -17t-137 -28.5l25 176l35.5 46t46.5 50l99.5 95t129.5 134
t140.5 163.5t131.5 184.5t103 196.5t55 199.5q7 56 -6 92t-38.5 54.5t-59.5 21.5t-68.5 -8t-66 -33.5t-52 -55t-26 -73.5t11.5 -88q-23 -13 -56.5 -34l-70.5 -44l-73 -45.5t-64 -38.5q6 71 23.5 141t47.5 133t72.5 116.5t99 91t126 57.5t153.5 16q48 -2 89 -14t75 -29
q32 -18 57.5 -44.5t42.5 -55.5q17 -32 27.5 -67t7.5 -70z" />
    <glyph glyph-name="three" unicode="3" horiz-adv-x="1036" 
d="M756 831q111 -29 170.5 -90t76 -138.5t-5.5 -164.5t-73.5 -166.5t-128 -145.5t-169 -102t-197 -34.5t-212.5 55.5q-36 18 -67.5 43.5t-55.5 58t-40 72t-21 84.5q-9 78 6 156l231 -80q-5 -13 -6.5 -15.5l-1.5 -2.5l-1 -2.5t-5 -16.5q-9 -28 -14 -49t-2 -41q2 -48 30.5 -70
t77.5 -24q74 -5 138.5 17t113.5 60.5t81 89.5t42.5 105t-3.5 106.5t-56 94t-115 67t-182 25.5l8 137q165 53 255 153.5t93 227.5q1 55 -16 90.5t-45 53.5t-62.5 21t-68 -8t-63 -33.5t-46.5 -55t-18 -73.5t22 -87l-51.5 -32l-66.5 -43l-70 -45.5l-62 -39.5q-2 71 8.5 140.5
t33.5 132t60 115t88.5 90t119.5 57t153 16.5q48 -2 90.5 -14t79.5 -29q35 -20 62 -44.5t49 -55.5q20 -31 34.5 -65t16.5 -72q4 -72 -15.5 -133t-51.5 -113.5t-72 -97.5z" />
    <glyph glyph-name="four" unicode="4" horiz-adv-x="1116" 
d="M471 0l53 268t51 273h-522h-6q58 121 96 219.5t63.5 191.5t43 189.5t35.5 212.5l278 186q-5 -61 -18 -132.5t-32.5 -147t-44.5 -152.5t-53 -148t-58 -133t-60 -108h317q32 180 69.5 359.5l74.5 357.5l315 104l-170 -821h164l-96 -178h-101l-112 -541h-287z" />
    <glyph glyph-name="five" unicode="5" horiz-adv-x="1079" 
d="M209 27q-75 37 -123 104t-59 158q-6 81 12 160l227 -82q-5 -15 -6 -17.5t-1 -3t-1 -3t-6 -17.5q-19 -52 -19 -86q0 -50 29.5 -75.5t79.5 -25.5q46 -2 88 9t84 28q106 59 168 162q41 70 53.5 137t1.5 124.5t-44.5 103.5t-84 74t-117 35.5t-143.5 -11.5l-16 -4
q-89 -22 -182 -88l172 819q75 -8 134 -13t109.5 -6.5t95 0t90.5 5.5t97 10.5t115 15.5l25.5 -53l29.5 -59l29 -58t26 -49q-82 -5 -173 -6t-175 1.5t-154 8.5t-110 14l-80 -393q118 50 220 47.5t182.5 -43.5t137 -112t83 -158.5t19.5 -182.5t-52 -184q-23 -46 -55.5 -90
t-71.5 -82.5t-84.5 -71t-95.5 -55.5q-48 -23 -104 -35t-114.5 -11.5t-119 15t-117.5 44.5z" />
    <glyph glyph-name="six" unicode="6" horiz-adv-x="1100" 
d="M1040 1012l-61 42l-71 47l-68.5 44t-53.5 33q36 85 30.5 139t-40.5 69t-93.5 -12.5t-127.5 -105.5q-26 -25 -49 -62.5t-43 -85.5q-61 -137 -88 -303q61 43 128.5 68.5t134.5 33t129.5 -2.5t114.5 -40t89.5 -79t53.5 -119t7.5 -161t-49.5 -204q-19 -51 -47 -96.5
t-66 -83.5q-34 -37 -77.5 -68.5t-94.5 -54.5q-49 -21 -105.5 -31t-121.5 -10q-59 0 -109 8t-92 23q-40 15 -72.5 40t-58.5 56q-23 29 -40.5 66t-28.5 84q-11 46 -17 96t-6 107q0 108 13.5 211t39.5 202q26 100 64 189t86 168q56 91 124.5 156.5t141.5 104.5t147 52t139.5 0
t119.5 -52t88 -104t43.5 -156t-13.5 -208zM758 371q28 108 20 181t-40 115.5t-81.5 58.5t-104 11t-108.5 -28t-94 -58q-3 -34 -5.5 -66.5t-4.5 -64.5q-2 -12 -2 -25.5v-27.5v-57q-2 -103 22.5 -165.5t63.5 -91t87.5 -24.5t95.5 34t87.5 83.5t63.5 124.5z" />
    <glyph glyph-name="seven" unicode="7" horiz-adv-x="991" 
d="M803 1354q-37 -7 -89.5 -14t-113 -13t-126.5 -11t-129.5 -7t-121 -2t-102.5 4q11 22 26.5 50t33.5 57.5l36 58.5l33 55q213 -32 438.5 -28t446.5 36q-35 -39 -83 -109t-102.5 -160l-113.5 -195.5l-117 -216l-112.5 -222l-100.5 -213t-80.5 -188t-52.5 -148.5l-322 -92
q16 50 47.5 120t75 153.5l95.5 177l108.5 191.5l115 196.5l114 191l106 176.5z" />
    <glyph glyph-name="eight" unicode="8" horiz-adv-x="1106" 
d="M834 879q85 -67 136 -141.5t73 -151.5t17 -152.5t-33 -144.5t-76 -127.5t-112 -102t-142 -68t-165 -24.5q-95 0 -176 29.5t-142.5 80t-101.5 116.5t-55 139t-2 148.5t58 144.5t124 126.5t197 94.5q-96 70 -148 149t-66 156t8 147.5t74.5 124t132.5 85.5t183 32
q110 0 194 -36t138.5 -94.5t77 -131t9.5 -146t-63 -140.5t-140 -113zM535 141q60 -4 106 25t74 78.5t35.5 115t-11 136t-65 140t-125.5 128.5q-77 -23 -124.5 -77t-68.5 -122t-18 -141.5t27 -135t67 -102.5t103 -45zM727 940q38 24 58.5 68t25.5 96.5t-4.5 107.5t-33 101
t-59.5 76.5t-83 33.5q-40 2 -83.5 -13t-68.5 -44q-30 -35 -32.5 -72.5t13 -76t46.5 -76t68.5 -73t77.5 -68z" />
    <glyph glyph-name="nine" unicode="9" horiz-adv-x="1096" 
d="M1057 1057q2 -109 -9 -211.5t-34 -202.5q-49 -200 -142 -356q-53 -91 -120 -156t-139 -104.5t-145.5 -52.5t-139.5 0t-121.5 52t-91.5 104t-48 156t7 208l63.5 -41.5l73.5 -47.5l70.5 -45l54.5 -34q-35 -85 -28 -138.5t42.5 -68t94 13t126.5 105.5q22 26 43.5 63.5
t44.5 83.5q28 66 48 143t32 158q-80 -56 -171.5 -82t-177.5 -20t-158.5 45.5t-115 114.5t-46.5 186t47 262q18 51 45 96.5t61 83.5q34 37 77 68t95 53q50 23 106 34t117 11q62 0 111.5 -8t91.5 -25q42 -15 75 -40t56 -54q55 -57 76 -151q12 -44 19.5 -95t9.5 -108zM346 1135
q-27 -109 -17.5 -182t42 -115.5t82.5 -59t104.5 -11t107.5 28.5t93 58q5 34 5.5 65.5t2.5 65.5q2 14 2 27.5t2 25.5v27.5t-2 28.5q-2 103 -28 166t-66 91.5t-88.5 24.5t-94.5 -33.5t-85 -83t-60 -124.5z" />
    <glyph glyph-name="colon" unicode=":" horiz-adv-x="608" 
d="M489 891q50 -47 50 -117q0 -68 -50 -115q-44 -47 -114 -47q-71 0 -117 47q-25 23 -36 52t-11 63q0 35 11 64.5t36 52.5q46 49 117 49q69 0 114 -49zM270 444q69 0 115 -49q26 -23 37.5 -52t11.5 -64t-11.5 -63.5t-37.5 -51.5q-23 -23 -51.5 -36t-63.5 -13q-34 0 -62.5 13
t-51.5 36q-50 47 -50 115q0 71 50 116q45 49 114 49z" />
    <glyph glyph-name="semicolon" unicode=";" horiz-adv-x="635" 
d="M496 791q49 -51 49 -119q0 -66 -49 -117q-25 -25 -54 -36t-63 -11q-35 0 -64.5 11t-54.5 36q-47 50 -47 117q0 69 47 119q51 49 119 49q66 0 117 -49zM350 328q37 -14 59 -44.5t30 -71.5t2.5 -89t-23 -96.5t-47 -93.5t-69 -80.5t-89.5 -58t-109 -25.5l-16 77q42 3 71 14
t49.5 30.5t35 47t28.5 62.5q-11 0 -21.5 2.5t-21.5 7.5q-33 12 -57.5 35.5t-38.5 53.5t-15.5 63.5t11.5 66.5q12 33 35.5 57t53.5 37.5t64 15t68 -10.5z" />
    <glyph glyph-name="less" unicode="&#x3c;" horiz-adv-x="803" 
d="M758 895l-21 -117l-512 -254l412 -202l-25 -121l-524 288l21 89l649 317v0z" />
    <glyph glyph-name="equal" unicode="=" horiz-adv-x="1071" 
d="M49 199l55 225h834l-53 -225h-836zM150 666l55 223h833l-51 -223h-837z" />
    <glyph glyph-name="greater" unicode="&#x3e;" horiz-adv-x="862" 
d="M139 270l512 254l-411 203l24 121l524 -289l-20 -88l-649 -317z" />
    <glyph glyph-name="question" unicode="?" horiz-adv-x="870" 
d="M313 467q13 75 40.5 137.5t62 115.5t72 98l69.5 85l45 55.5t45.5 60.5t36.5 63.5t18 65.5t-9 66.5t-46 65.5q-37 45 -112 45q-48 0 -89.5 -24.5t-67 -63.5t-30.5 -87t19 -95l-68.5 -41l-51.5 -31l-49.5 -32l-62.5 -42q-16 107 5.5 207t77.5 177.5t144 123t205 43.5
q61 -1 111.5 -14t90.5 -34t69 -48t47 -55q31 -57 37 -116t-8.5 -116t-46.5 -109t-76 -94l-119.5 -117.5t-87.5 -92t-63.5 -89t-47.5 -108.5h-160zM524 168q0 -37 -12 -64.5t-37 -52.5q-45 -51 -117 -51q-34 0 -64 12.5t-54 38.5q-25 25 -36 52.5t-11 64.5q0 34 11 64t36 53
q24 21 54 34t64 13q36 0 65 -13t52 -34q25 -23 37 -53t12 -64z" />
    <glyph glyph-name="at" unicode="@" horiz-adv-x="1200" 
d="M672 426q-39 -63 -88 -89t-91 -15.5t-67 57.5t-16 131q5 63 24.5 124t52.5 110t81 80t110 34h190l-10 -43q-12 -62 -24.5 -112t-22.5 -94t-18 -85.5t-11 -85.5q-5 -46 11 -53t42.5 13.5t57.5 64t55.5 99t37.5 119t3.5 124.5t-47.5 113.5t-115 87.5q-55 23 -119 27
t-133 -11q-66 -13 -126 -54.5t-105.5 -106t-74 -149.5t-31.5 -186q-3 -71 18 -135.5t59 -117.5t89.5 -93t110.5 -62t121 -24t122 21l178 -127q-97 -54 -199.5 -68.5t-198.5 5.5t-180.5 71t-147 128t-97 176.5t-29.5 215.5q5 144 51 258.5t118 196.5t162.5 129t184.5 55
q100 9 190.5 -12.5t167.5 -69.5q70 -45 107.5 -102t49 -119.5t1 -127t-36 -125t-62.5 -113.5t-79 -92.5t-84.5 -61.5t-79.5 -21.5t-64 28t-38 87.5zM680 496q0 6 1 10.5t3 9.5l51 242q-20 45 -50 48.5t-60 -22.5t-56.5 -77.5t-38.5 -116.5q-16 -73 -13.5 -125.5t22 -71t55 4
t86.5 98.5z" />
    <glyph glyph-name="A" unicode="A" horiz-adv-x="1315" 
d="M362 1348q97 77 221.5 117t265 56.5t290.5 17.5t299 1l-154 -768l-154 -772h-286l92 420h-469l-352 -418h-197l290.5 341.5l294 345.5l294.5 346.5l293 344.5q-38 -2 -86 -3.5t-101.5 -5t-110.5 -9t-112 -16.5t-105.5 -28t-91.5 -42q-39 -25 -67 -66t-41 -93t-9.5 -111.5
t27.5 -120.5l-276 -127q12 214 75 359.5t170 230.5zM975 594l63 287.5l64 285.5l-486 -573h359z" />
    <glyph glyph-name="B" unicode="B" horiz-adv-x="1458" 
d="M1372 678q48 -90 48 -195t-48 -204q-30 -65 -72.5 -111t-94.5 -77t-112 -49.5t-125 -28t-134.5 -12t-139.5 -1.5h-213h-125l279 1393q-52 -20 -98.5 -52t-83 -72.5t-61.5 -87.5t-35 -96.5t-3.5 -100t33.5 -97.5l-276 -127q-20 141 12.5 258t101 208.5t165 157.5t204 104
t218 48.5t208 -9t173 -69.5t112.5 -131q30 -65 26.5 -131t-32 -126t-77 -111t-106.5 -85q90 -23 154.5 -75t101.5 -121zM817 905q64 8 117.5 31.5t92 63t59.5 94.5t20 127q0 49 -14.5 86t-39.5 62.5t-58.5 41t-71.5 21.5zM666 139q107 -2 189 27t139.5 76t90.5 107.5t41 123
t-9 121.5t-58.5 103.5t-108.5 68.5t-159 16z" />
    <glyph glyph-name="C" unicode="C" horiz-adv-x="1165" 
d="M1417 344q-49 -106 -135 -182t-193 -122.5t-226.5 -63t-235 -3t-218.5 56t-178 115.5q-67 64 -103 152t-46 189t4 208.5t45.5 210.5t79 195.5t104.5 163.5q75 89 159.5 148.5t172.5 88.5q113 42 218.5 38.5t189.5 -46.5q72 -37 120.5 -101t59.5 -157q9 -82 -16 -183.5
t-97 -220.5l-166 267l24.5 36.5t23 38t17 40t5.5 42.5q-2 50 -32 74.5t-76 24.5q-51 0 -111.5 -29t-126.5 -86q-55 -51 -104.5 -121t-87.5 -150.5t-63 -167t-31.5 -171.5t7 -163.5t52.5 -141.5q39 -64 105.5 -110t147.5 -71.5t170 -27.5t172 21.5t154 74.5t117 133h98z" />
    <glyph glyph-name="D" unicode="D" horiz-adv-x="1634" 
d="M422 1335q76 63 167 107.5t189 68.5t198 27.5t193.5 -15.5t175 -60t143 -106t98 -154t38.5 -204q2 -48 -1.5 -101t-12.5 -110q-8 -57 -22.5 -111.5t-31.5 -111.5q-21 -55 -45 -107.5t-55 -105.5q-29 -51 -65 -96.5t-76 -85.5q-42 -38 -90.5 -69t-102.5 -54
q-55 -23 -115 -35t-128 -12h-402l275 1378q-65 -23 -121.5 -55.5t-100.5 -73.5q-38 -34 -62 -80t-32.5 -95.5t-0.5 -99.5t34 -91l-276 -129q-14 94 -2 178t44 157t80 134.5t107 111.5zM1311 760q18 81 27.5 162t7.5 159q-3 83 -27 144t-64.5 101.5t-94 63t-113.5 29.5
l-252 -1265q40 -5 80.5 -3t66.5 13q31 12 64 31t68 53.5t71 87.5t72 133q30 63 52.5 136t41.5 155z" />
    <glyph glyph-name="E" unicode="E" horiz-adv-x="1327" 
d="M1442 1358h-432l-78 -404h301l-53 -180h-283l-123 -594h457l-51 -180h-723l276 1364q-51 -5 -101.5 -11t-97 -17.5t-86.5 -28.5t-69 -43t-44 -66.5t-14.5 -90t17 -105t49.5 -111.5l-276 -129q-15 113 -9 207t29.5 170t63.5 135t94 102q93 68 210 103t257 51q60 5 111 6.5
t108 1.5q47 0 111 0.5t135 0.5t143.5 0.5t136.5 0.5z" />
    <glyph glyph-name="F" unicode="F" horiz-adv-x="1325" 
d="M1028 1356l-82 -404h303l-57 -178h-283l-75.5 -388.5l-77.5 -385.5h-281l275 1364q-53 -5 -106 -14t-101.5 -23t-90 -33.5t-71.5 -44.5q-26 -22 -38 -61.5t-9 -88t19.5 -103.5t47.5 -109l-280 -125q-13 110 -6.5 201.5t30 166.5t62.5 133.5t90 102.5q91 72 212.5 109
t264.5 53q59 6 108.5 8t106.5 2q47 0 112 0.5t136.5 0.5t144.5 0.5t136 0.5l-60 -184h-430z" />
    <glyph glyph-name="G" unicode="G" horiz-adv-x="1284" 
d="M905 369q-43 -23 -89.5 -40t-94.5 -28q-62 -13 -123.5 -13t-119 14t-109.5 42.5t-95 71.5q-46 49 -74.5 112t-43.5 133.5t-16.5 144.5t8 145t29 135t46.5 114q48 91 119.5 155.5t153.5 104.5q96 51 199 69t200 7t174 -50.5t125 -105.5q23 -35 35 -76.5t10.5 -89.5
t-18.5 -103t-52 -116l-221 154q15 23 31.5 56t25.5 67.5t5 67t-29 55.5q-37 31 -98 31.5t-129 -33.5q-39 -20 -81.5 -51.5t-80.5 -77.5q-50 -62 -85 -146.5t-52 -176.5t-14.5 -184t28.5 -167q26 -66 69 -107t99 -55q65 -12 139.5 10.5t155.5 81.5q5 31 15.5 80.5l27.5 132.5
l65 11l84 15l81.5 15t58.5 12l-127 -628q-10 -54 -20 -102.5t-24.5 -94.5t-35.5 -90.5t-53 -89.5q-23 -34 -52.5 -63t-60.5 -52q-68 -49 -143.5 -71t-153.5 -19q-59 2 -117 19.5t-110 52.5q-54 32 -96 81.5t-68 112.5l54.5 44.5l56 46l52 42l42.5 33.5q8 -45 25.5 -83.5
t37.5 -69.5q25 -34 55 -59t62 -36q48 -17 97.5 1.5t86.5 80.5q16 23 27.5 50.5t19.5 62.5q15 48 27.5 100.5t23 106t19 106.5z" />
    <glyph glyph-name="H" unicode="H" horiz-adv-x="1653" 
d="M1751 1540l-313 -1540h-281l160 776h-397l-156 -776h-285l283 1368q-54 -5 -106 -12.5t-99 -20t-89.5 -32t-76.5 -48.5q-27 -22 -38.5 -62t-8 -90t20.5 -105.5t47 -108.5l-277 -127q-13 106 -9 193t24 158.5t54 127t81 98.5q65 63 152 102.5t188.5 62t215 31t232.5 9.5
l-119 -590h400l119 586h278z" />
    <glyph glyph-name="I" unicode="I" horiz-adv-x="977" 
d="M778 0h-278l272 1364q-52 -5 -104 -12t-99.5 -19t-89 -30.5t-71.5 -45.5q-26 -24 -38 -64t-9.5 -89.5t19 -105.5t48.5 -111l-281 -125q-26 215 19.5 364t146.5 234q67 57 153.5 91.5t186 54t208.5 26.5t222 8z" />
    <glyph glyph-name="J" unicode="J" horiz-adv-x="977" 
d="M336 1368q66 54 151.5 88t183.5 53t206.5 25.5t220.5 5.5l-277 -1386q-11 -60 -30 -112.5t-39 -100.5q-42 -94 -98 -162t-119 -113q-63 -43 -131.5 -65t-136 -24.5t-131.5 13.5t-118 50.5t-95.5 85.5t-63.5 118l57 43l60 44.5l56.5 41l45.5 33.5q9 -68 35 -121t61.5 -86
t77.5 -43.5t84.5 6t81.5 63t69 128.5q8 22 15 46t12 50l270 1321q-50 -5 -99.5 -12.5t-95 -19.5t-86 -28.5t-71.5 -39.5q-30 -23 -44.5 -64.5t-13.5 -93.5t18 -109.5t50 -113.5l-278 -125q-14 108 -8 200.5t29.5 168t61.5 134.5t89 101z" />
    <glyph glyph-name="K" unicode="K" horiz-adv-x="1626" 
d="M1055 813l501 -813h-327l-350 563l-115 -563h-281l275 1368q-51 -5 -103 -12t-99 -19t-88 -31t-71 -46q-27 -25 -40 -65.5t-11.5 -90t18 -105t48.5 -110.5l-277 -127q-14 103 -10 191t23.5 161t53.5 131t79 101q65 61 152 99.5t189 60t216.5 29t234.5 7.5l-115 -581
l558 579h243z" />
    <glyph glyph-name="L" unicode="L" horiz-adv-x="1047" 
d="M113 723q-25 205 9.5 350.5t119.5 237.5q64 71 155 116t200 70t233.5 34t256.5 9l-303 -1538q55 -5 127 -20.5t153 -39t166.5 -54t168.5 -66t159 -74.5t138 -80l-377 -180q-47 54 -110 108t-135.5 103t-150.5 91t-156 73t-152 48.5t-138 18.5l285 1426q-55 -6 -109 -13
t-103.5 -19.5t-92.5 -31.5t-76 -47q-28 -26 -40.5 -67.5t-10 -93t20 -109t50.5 -115.5z" />
    <glyph glyph-name="M" unicode="M" horiz-adv-x="1679" 
d="M1790 1538l-309 -1538l-285 2l213 942l-537 -942h-256l101 938l-432 -938h-195l631 1364q-49 -8 -97 -17t-90.5 -23.5t-79 -35t-61.5 -51.5q-20 -23 -27.5 -63t-3 -88.5t20.5 -100.5t43 -100l-279 -127q-20 201 19 347.5t129 231.5q72 70 167 110.5t208 63.5
q98 20 195 23.5t210 3.5l-125 -1005l578 1001z" />
    <glyph glyph-name="N" unicode="N" horiz-adv-x="1509" 
d="M1176 496l210 1044h199l-309 -1540h-291l-215 1051l-209 -1051h-199l275 1364q-9 -2 -19.5 -3t-21.5 -3q-63 -13 -121 -31.5t-96 -50.5q-29 -24 -37.5 -66t0.5 -94t34 -111t64 -116l-276 -129q-26 109 -31 202t8 169t43 136t74 103q62 57 144.5 91.5t181.5 54.5
q48 9 90 14t84 7t87.5 2.5t102.5 0.5z" />
    <glyph glyph-name="O" unicode="O" horiz-adv-x="1497" 
d="M1520 985q0 -48 -3 -100.5t-14 -112.5q-8 -57 -20.5 -111.5t-32.5 -113.5q-17 -56 -40.5 -110.5t-51.5 -106.5q-31 -53 -65 -99.5t-74 -87.5q-42 -40 -89 -71t-100 -56q-54 -24 -115 -35.5t-124 -11.5q-45 0 -84 5t-74 18q-69 18 -123 71q-50 46 -78 123q-14 41 -21.5 87
t-7.5 102q-2 43 0 88t9 96q13 101 38.5 192.5t61.5 178t81.5 169t98.5 165.5l324 36q-70 -101 -123.5 -193t-92 -177t-62.5 -164t-36 -154q-20 -120 -12 -213t36.5 -153t72.5 -82.5t97 -1t110.5 91.5t111.5 195q31 65 54 138.5t38 153.5q17 85 25 166t6 166
q-4 114 -46.5 187t-110 111.5t-152 46t-170.5 -9.5t-166.5 -55t-140.5 -91q-41 -38 -65.5 -86.5t-31.5 -101t3.5 -105t39.5 -97.5l-284 -131q-15 106 -2 198.5t48.5 170.5t90.5 142.5t123 115.5q76 56 164.5 94.5t182 57t188 17.5t182 -23t163.5 -65t133.5 -108.5
t91.5 -154.5t38 -201z" />
    <glyph glyph-name="P" unicode="P" horiz-adv-x="1241" 
d="M1323 1329q38 -83 38 -167t-30.5 -162.5t-86.5 -148.5t-130 -125t-162 -92.5t-182 -51.5l-117 -582h-284l284 1393q-62 -25 -118.5 -59.5t-98.5 -78.5q-33 -32 -51.5 -77.5t-22.5 -96t7 -101t37 -93.5l-279 -129q-12 94 -2 177t39 155.5t74.5 133.5t103.5 111
q78 67 171.5 112.5t192 68.5t194.5 23.5t179.5 -22t147 -69.5t96.5 -119zM795 711q69 18 129.5 72t105 127t70 155.5t24.5 157.5q-2 48 -16.5 84t-39 61.5t-58 41.5t-72.5 22z" />
    <glyph glyph-name="Q" unicode="Q" horiz-adv-x="1499" 
d="M1520 991q0 -51 -3 -104.5t-10 -110.5q-9 -59 -20.5 -114t-30.5 -115q-18 -56 -43.5 -110t-56.5 -105q-26 -50 -56.5 -93.5t-70.5 -80.5q56 -63 111 -135.5l112 -143.5l-133.5 -81l-130.5 -81l-69.5 154.5t-76.5 153.5q-6 -2 -9.5 -3.5t-6.5 -3.5q-110 -49 -238 -49
q-42 0 -81.5 5.5t-73.5 19.5q-34 9 -63.5 27.5t-55.5 44.5q-28 24 -48 54.5t-34 67.5q-15 41 -24 88t-9 101q-2 43 0 87.5t9 92.5q13 104 39.5 197t62.5 179t81.5 168t96.5 163l328 36q-71 -101 -124 -193t-90.5 -176.5t-61 -162.5t-35.5 -152q-25 -134 -14 -234
t46.5 -158.5t90 -69.5t116.5 34q-42 62 -88 96.5t-92 26.5l37 64q68 20 129.5 4.5t120.5 -55.5q40 52 69 125q29 63 51 138.5t39 155.5q17 85 24 167.5t5 162.5q-3 116 -47.5 190t-113.5 112t-153.5 44.5t-166.5 -12.5q-67 -15 -129 -45t-113 -71t-88 -89.5t-55 -101.5
t-14 -108t36 -107l-284 -135q-15 109 0 203.5t53.5 174t97.5 144t131.5 114t155.5 83.5t170 53q94 19 189.5 17.5t183.5 -23t165 -65t134.5 -108.5t91.5 -153t37 -199z" />
    <glyph glyph-name="R" unicode="R" horiz-adv-x="1384" 
d="M1319 1325q28 -65 23.5 -129.5t-32 -123.5t-73.5 -109.5t-102 -85.5q67 -42 101.5 -108.5t46 -145t4.5 -165t-22.5 -170t-35 -158l-33.5 -130.5h-272q7 33 19.5 81.5t26 106.5t26 122t20 126.5t8 121t-10 105.5t-34.5 79t-66 42q-26 3 -55.5 1.5t-66.5 -9.5l-152 -776
h-287l287 1391q-78 -34 -144.5 -84t-106 -114t-42.5 -141t47 -165l-276 -129q-13 98 -1.5 183t43 158t80.5 134.5t111 112.5q79 64 172.5 107.5t190 65t191 21t176 -24t144 -71t95.5 -119.5zM817 899q64 6 119 29t95 62.5t62.5 96.5t22.5 132q-2 49 -17 86.5t-41 64t-61 43
t-75 23.5z" />
    <glyph glyph-name="S" unicode="S" horiz-adv-x="1116" 
d="M881 1130q13 33 24 77t8 85t-27.5 72.5t-82.5 40.5q-44 3 -91.5 -10.5t-90.5 -42.5q-23 -15 -42.5 -38.5t-32.5 -50.5t-19 -54.5t-3 -51.5t6.5 -39t8.5 -27t13.5 -23.5l22.5 -29.5q25 -31 72 -68.5t96 -68.5l108 -73t97 -78q45 -38 77 -83.5t44 -105.5q20 -96 5 -177
t-56 -147t-102.5 -116.5t-135.5 -84.5t-156 -51t-162 -17t-154.5 17.5t-133.5 54t-99 91.5t-52 129q-9 57 -0.5 116t33.5 113t66.5 99t98.5 74l189 -193q-59 -22 -101 -51.5t-66.5 -61.5t-31.5 -65.5t4 -63.5q12 -36 47.5 -60t84 -33t104 -2.5t108.5 32.5q56 23 102.5 71.5
t69.5 120.5q15 40 7.5 77t-27.5 69t-48.5 60t-56.5 50l-54.5 39.5l-47 33.5l-45 32l-47.5 35q-26 21 -51.5 45t-48.5 50.5t-43 53t-33 51.5q-38 69 -48.5 142.5t7.5 142.5t66 128.5t128 100.5q90 45 184 62t193 8q68 -8 129.5 -28.5t111.5 -54t87.5 -79.5t58.5 -104
q19 -57 19.5 -123.5t-15.5 -138.5z" />
    <glyph glyph-name="T" unicode="T" horiz-adv-x="1468" 
d="M154 758q-20 204 6 344.5t85.5 230.5t147.5 135.5t192 59.5t218 2t227 -37q100 -22 195.5 -40.5t179.5 -19t153.5 22.5t118.5 84h111q-62 -78 -120 -130.5t-114 -84.5t-111.5 -45.5t-113 -14t-118 9.5t-126.5 25l-270 -1300h-283l285 1346q-70 7 -129.5 9.5t-110 -3.5
t-90.5 -22.5t-71 -47.5q-26 -24 -36.5 -65.5t-7 -94t19 -113.5t40.5 -122z" />
    <glyph glyph-name="U" unicode="U" horiz-adv-x="1696" 
d="M1788 1540l-309 -1540h-283l45 190q-42 -65 -105 -110.5t-135.5 -65.5t-149.5 -10.5t-146 55.5q-91 52 -121 164q-14 57 -15 125.5t9 153.5q11 85 30 186.5t45 216.5l105 463q-50 -5 -98.5 -12t-93.5 -18.5t-85 -27.5t-71 -40q-31 -26 -46 -67t-14.5 -92t17 -108.5
t49.5 -115.5l-277 -125q-14 112 -8 203.5t29 165t62 131t91 102.5q69 54 154.5 89t183 54.5t205 27t219.5 7.5l-37 -160l-98 -471l-32.5 -154.5t-26.5 -131.5q-10 -57 -16 -107t-9 -92q-5 -40 -6.5 -71t6.5 -54q15 -44 47 -58.5t73.5 -6t88 35t90.5 64.5t81 82t60 88
l211 1034h281z" />
    <glyph glyph-name="V" unicode="V" horiz-adv-x="1438" 
d="M1040 489l414 1051h193l-605 -1540h-284v1368q-60 -5 -123.5 -12t-120.5 -22t-102 -39.5t-68 -63.5q-20 -48 -19 -94.5t15 -90.5t37 -84.5t49 -74.5l-285 -129q-34 201 -6 344t107 229q61 67 148 108.5t191.5 63.5t221.5 29.5t239 7.5z" />
    <glyph glyph-name="W" unicode="W" horiz-adv-x="2167" 
d="M1102 487l411 1051l265 2l18 -1046l404 1046h190l-598 -1540h-281l2 1049l-411 -1049h-281l2 1374l-114.5 -10t-113 -16.5t-95.5 -31.5t-62 -54q-18 -38 -22 -85t4 -97t28 -100t52 -95l-287 -127q-35 223 -2.5 374t129.5 238q65 55 150 89.5t183 54t206 26t219 6.5z" />
    <glyph glyph-name="X" unicode="X" horiz-adv-x="1583" 
d="M1735 1540l-475 -643l192 -897h-289l-127 598l-444 -598h-195l293.5 391.5l302.5 411.5l-121 571q-60 -5 -123.5 -11t-123.5 -18t-113 -33t-92 -55q-30 -24 -47 -64.5t-20 -90t8 -105t38 -110.5l-276 -129q-11 210 41.5 357t150.5 233q72 61 163 98.5t195 58.5t218.5 28
t232.5 7l93 -440l165 223l162 217h191z" />
    <glyph glyph-name="Y" unicode="Y" horiz-adv-x="1720" 
d="M184 762q-21 103 -22 193t15.5 165t48.5 135t77 103q67 61 158 97t194.5 55t215 24.5t219.5 5.5l-117 -518q-6 -27 -14 -71l-17 -95t-17 -105t-13.5 -100.5t-6.5 -81t4 -47.5q16 -38 48.5 -49.5t74 -4t87 31t87.5 54.5t76.5 67t52.5 69l181 850h278l-102 -510
l-79.5 -393.5l-61 -294l-47 -211t-36.5 -144.5t-30 -94.5t-27.5 -61.5t-28.5 -46q-26 -35 -54.5 -64.5t-59.5 -52.5q-94 -65 -196 -84.5t-196.5 4.5t-172.5 89t-123 169q27 19 56 41.5l57 45l52 42l39 31.5q12 -38 28.5 -76.5t38 -71.5t50 -59t64.5 -39q51 -13 89 1.5
t65.5 45t46.5 71t32 79.5q16 54 29.5 114t25 121.5t21.5 122.5l20 117q-39 -46 -96 -79.5t-121 -51.5t-130.5 -19t-125.5 17t-105 57.5t-69 102.5q-20 68 -21 135t8.5 135t25 139.5t28.5 149.5l84 354q-53 -4 -104.5 -10.5t-99 -18.5t-88.5 -31t-72 -46q-26 -25 -34 -67
t-1 -93t29.5 -108t58.5 -111z" />
    <glyph glyph-name="Z" unicode="Z" horiz-adv-x="1264" 
d="M1323 1540l-870 -1325q55 19 122 33t139 22t146 8.5t144 -6t132.5 -21.5t112.5 -38l-184 -211q-61 27 -139 41.5t-167.5 19.5t-187 1.5t-196 -13t-195 -23.5t-184.5 -30l233 343l229 349.5l227.5 349.5l227.5 344h-596l95 156h911z" />
    <glyph glyph-name="bracketleft" unicode="[" horiz-adv-x="610" 
d="M748 1540l-25 -129h-182l-361 -1796h182l-24 -127h-418l410 2052h418z" />
    <glyph glyph-name="backslash" unicode="\" 
d="M813 -512h-180l-434 2052h180z" />
    <glyph glyph-name="bracketright" unicode="]" horiz-adv-x="608" 
d="M-186 -512l24 129h182l361 1796h-182l24 127h418l-410 -2052h-417z" />
    <glyph glyph-name="asciicircum" unicode="^" horiz-adv-x="862" 
d="M756 1182l-125 -13l-121 168l-221 -176l-185 -12l367 383l109 8z" />
    <glyph glyph-name="underscore" unicode="_" horiz-adv-x="907" 
d="M672 0h-717l59 166h713z" />
    <glyph glyph-name="grave" unicode="`" horiz-adv-x="412" 
d="M262 1538l119 -389h-162l-178 391z" />
    <glyph glyph-name="a" unicode="a" horiz-adv-x="1133" 
d="M1319 350q-35 -94 -96 -167t-132 -120t-145 -65.5t-135.5 -4.5t-103 63t-48.5 137q-54 -81 -125.5 -130t-146.5 -67t-146.5 -4t-125.5 58.5t-83 120t-20 181.5q7 82 26 163.5t50 155t76 137t104.5 110.5t134 75t166.5 31h518l-16 -78l-44 -213l-38.5 -181.5l-35.5 -167
l-35 -169.5q-12 -58 3 -84t45 -27t70 19t79.5 54.5t73 79.5t50.5 93h80zM764 836q-31 57 -71 78t-82.5 12.5t-85.5 -43.5t-81.5 -90.5t-69 -127.5t-48.5 -155q-20 -93 -22 -169t12.5 -128t44 -76t74 -13.5t102.5 60t129 144.5z" />
    <glyph glyph-name="b" unicode="b" horiz-adv-x="987" 
d="M952 815q22 -81 16 -178.5t-38 -196.5q-29 -100 -65 -171.5t-78 -120.5t-90 -78.5t-102 -45t-114 -20t-125 -4.5h-215h-118l288 1434h271l-86 -437q37 17 75 27t80 10q68 0 119 -18t88 -49q34 -28 55.5 -66.5t38.5 -85.5zM719 565q8 75 0.5 139.5t-27.5 104.5
q-13 30 -34 52t-48.5 33t-61.5 8.5t-73 -21.5l-143 -709q60 -46 111 -49t92 24t73 77.5t55 109.5t37 120t19 111z" />
    <glyph glyph-name="c" unicode="c" horiz-adv-x="743" 
d="M907 352q-45 -79 -101.5 -144.5t-123.5 -113.5t-143 -75.5t-160 -30.5q-74 -3 -131.5 16.5t-98.5 56.5t-67 89t-37.5 113t-9.5 129t16 138q15 74 42.5 147t69 136.5t96.5 113.5t124 79q82 34 157.5 28t129.5 -49q39 -31 62.5 -74.5t31.5 -92.5t0 -98.5t-31 -92.5
q-6 -14 -13 -25.5l-15 -23.5l-95 165q35 68 35 114t-18 58q-19 13 -49 8t-64 -30q-44 -32 -77.5 -77t-57.5 -97t-39 -106t-23 -103q-11 -79 -7.5 -141.5t19.5 -109t43 -76.5t62 -44q55 -21 110 -8.5t106.5 46t97 80.5t83.5 95h76z" />
    <glyph glyph-name="d" unicode="d" horiz-adv-x="1110" 
d="M1313 360q-36 -97 -96.5 -171.5t-131.5 -122.5t-145 -67t-135.5 -4.5t-103 65t-48.5 141.5q-55 -82 -126.5 -132t-146.5 -68t-146.5 -4.5t-125 58.5t-82.5 121t-20 184q13 155 61.5 271.5t117 197.5t149.5 128.5t159.5 65t147.5 6t113 -47.5q6 -6 12 -13.5l14 -17.5
l99 484h278l-40 -203.5l-43.5 -224l-45 -228.5l-43 -217.5l-38 -190.5l-29.5 -147t2 -86.5t43.5 -28t68.5 19t78 56t72.5 81t50.5 95.5h80zM758 846q-31 56 -71 77t-83 12.5t-86 -43.5t-81 -90.5t-68 -128t-47 -155.5q-20 -93 -23 -169.5t11 -129t44 -77t75 -13.5t103.5 61
t129.5 146q0 8 1 17.5t3 17.5z" />
    <glyph glyph-name="e" unicode="e" horiz-adv-x="731" 
d="M911 352q-60 -111 -122 -182.5t-130.5 -112.5t-144.5 -56t-164 -13q-97 3 -162.5 42.5t-104 104t-51.5 146.5t-3 170.5t40 177t78 164.5q58 90 133.5 145.5t151 78.5t143 15t111.5 -45q39 -32 60 -75t25.5 -91t-6.5 -98.5t-34 -95.5q-35 -64 -83 -108.5t-105.5 -71.5
t-121.5 -38.5t-130 -9.5q1 -37 8.5 -75.5t23 -73t39 -63t56.5 -44.5q59 -27 118.5 -20.5t114 38t103 81.5t84.5 110h73zM299 518q0 -6 -1 -11.5t-1 -10.5q81 -3 139 24t96.5 70.5t59.5 95.5t28.5 99.5t3 83.5t-17.5 46q-15 12 -38.5 10t-51.5 -17t-57.5 -44.5t-57.5 -72.5
q-32 -50 -58.5 -118t-43.5 -155z" />
    <glyph glyph-name="f" unicode="f" horiz-adv-x="537" 
d="M532 1319l-59 -295h166l-59 -125h-134l-284 -1409h-295l70 357.5l70.5 349.5l71.5 348l73 354h-129l53 125h108q23 83 54 160.5t74.5 141.5t101.5 111.5t134 72.5t172 24t216 -35l-199 -201q-38 30 -65 47.5t-49 23.5t-41.5 2t-42.5 -17z" />
    <glyph glyph-name="g" unicode="g" horiz-adv-x="1057" 
d="M1090 1034l-158 -772q-21 -119 -49 -231.5t-70 -208.5t-101.5 -169.5t-145 -115t-200 -46t-266.5 39.5l189 197q77 -59 134 -69.5t99 13.5l8 33l95 455q-57 -71 -128.5 -112.5t-144.5 -54t-141.5 5t-119.5 63.5t-78.5 121t-18.5 179q10 118 38 212.5t68.5 168t91 126.5
t104.5 88t109.5 52.5t106.5 20.5q29 2 58 3t61 1h287h172zM764 854q-31 58 -71.5 79.5t-84 13t-87.5 -44t-83.5 -91.5t-71.5 -129.5t-51 -157.5q-21 -95 -23 -173t13 -131t45.5 -77.5t75.5 -13.5t103.5 61t129.5 146z" />
    <glyph glyph-name="h" unicode="h" horiz-adv-x="1022" 
d="M1231 354q-32 -88 -79.5 -154t-104 -111t-117.5 -68.5t-118 -27.5t-106.5 12.5t-84 52t-49 89.5t-1.5 127l50.5 276t44.5 251q11 55 2.5 82.5t-29 33t-50 -8t-61.5 -41t-62.5 -65.5t-53.5 -81l-144 -719h-280l291 1432h272l-109 -545q55 57 117.5 93t122.5 47.5t113 -4
t87.5 -60.5t46.5 -121.5t-9 -188.5l-38.5 -219.5t-39.5 -214.5q-11 -61 3.5 -89t43 -29.5t67 19t76.5 56t70 81.5t49 95h80z" />
    <glyph glyph-name="i" unicode="i" horiz-adv-x="561" 
d="M733 362q-30 -83 -79.5 -150t-109 -115t-123.5 -76.5t-124.5 -33t-111.5 15t-84.5 66.5t-44 122.5t11.5 183.5l135 649h282l-45.5 -237l-41 -201.5l-37 -182l-35.5 -178.5q-12 -61 3 -88.5t45.5 -29t71.5 19.5t81 56.5t74.5 82t51.5 96.5h80zM383 1139q-70 0 -115 45
q-43 46 -43 114q3 67 47 115q25 23 53.5 35t63.5 12t62.5 -12t50.5 -35q49 -49 49 -115q0 -35 -13.5 -63t-37.5 -51q-48 -45 -117 -45z" />
    <glyph glyph-name="j" unicode="j" horiz-adv-x="492" 
d="M207 1024h291l-152 -750q-22 -122 -49.5 -236.5t-69.5 -212t-101.5 -172.5t-146 -117t-203 -46.5t-272.5 39.5l197 199q72 -60 131.5 -70t106.5 16l6 33zM508 1413q50 -50 47 -117q0 -66 -49 -114q-26 -23 -56.5 -36t-64.5 -13t-62 13t-51 36q-47 47 -47 114
q0 34 13.5 63t37.5 54q50 47 115 47q70 0 117 -47z" />
    <glyph glyph-name="k" unicode="k" horiz-adv-x="903" 
d="M893 0h-291l-227 352l-64 -352h-286l284 1434h277l-35 -183l-34 -171.5l-34.5 -171.5l-36.5 -183q26 36 57.5 75t66 75.5t71.5 68.5t74 53q55 34 99 37t75 -17t47.5 -58.5t15 -88t-21.5 -106t-62.5 -112.5t-108 -107t-157.5 -90zM455 489q82 34 144 84t103.5 102
t63.5 101.5t23.5 82.5t-17.5 44.5t-59 -10.5q-36 -19 -77 -60.5t-80.5 -90t-75 -97l-62.5 -82.5l-21 -98q17 6 31 12z" />
    <glyph glyph-name="l" unicode="l" horiz-adv-x="510" 
d="M684 344q-29 -79 -75.5 -142.5t-102 -109.5t-116 -72.5t-116.5 -31t-104 14.5t-79 63.5t-40.5 117t10.5 174.5l215 1076h277l-40 -195l-45.5 -224l-48 -234l-46.5 -224.5l-40 -195.5l-30 -148q-11 -58 2.5 -84.5t42 -27.5t66.5 19t75.5 54t69 78t47.5 92h78z" />
    <glyph glyph-name="m" unicode="m" horiz-adv-x="1501" 
d="M1702 348q-31 -83 -78.5 -147.5t-103.5 -109.5t-116.5 -71t-117.5 -31t-106 11.5t-81.5 55t-45 100t3.5 147.5q21 119 45 242.5l49 257.5q12 58 4 84.5t-29.5 27.5t-51.5 -18.5t-61.5 -53.5t-60.5 -78t-47 -91q-2 -3 -3 -6.5l-3 -10.5q-2 -12 -8 -44l-14 -77.5
l-17.5 -100l-19.5 -110.5l-19.5 -110l-17.5 -98.5l-13.5 -75.5t-7.5 -41h-270l76.5 434l64.5 363q10 54 1 81t-30 32t-50.5 -9t-61 -41.5t-61 -65.5t-50.5 -81q-2 -2 -2 -3.5t-2 -4.5l-141 -705h-283l205 1024h283l-27 -139q41 49 91 83t101.5 51t100.5 15t88.5 -25
t65 -68.5t30.5 -115.5q54 73 117.5 122.5t125.5 71t117 13t91 -51.5t47.5 -123t-12.5 -200l-33 -182l-10 -54.5l-9 -46.5t-11.5 -61l-18.5 -98q-9 -40 5.5 -59.5t43 -21t66 13.5t74.5 43.5t69 68t49 88.5h80z" />
    <glyph glyph-name="n" unicode="n" horiz-adv-x="1114" 
d="M1319 358q-34 -88 -83 -156.5t-106 -115.5t-118 -72t-117 -27t-104 20.5t-79.5 69.5t-43 120.5t5.5 173.5l41.5 214.5l40.5 215.5q11 59 -2 86t-41 29t-65.5 -17t-75.5 -52t-71 -76.5t-52 -90.5l-130 -680h-290l207 1024h280l-31 -154q55 62 121.5 102.5t132 54.5
t124.5 0t98.5 -59t54.5 -123.5t-6 -193.5l-20 -102.5t-13 -66.5t-9.5 -47.5t-9.5 -47l-12 -65.5l-18 -101q-11 -63 3 -91t43 -29.5t68 20t77.5 58t71 83t48.5 96.5h80z" />
    <glyph glyph-name="o" unicode="o" horiz-adv-x="1018" 
d="M1180 733q-62 -56 -123 -98t-121 -70q-15 -117 -54.5 -210t-95 -162t-123 -115t-138.5 -69t-141 -22.5t-130 23.5q-72 26 -121 71t-78 102t-39 123.5t-2 137.5q9 75 35 149.5t68.5 142t100 124.5t128.5 98q48 28 102 46.5t109.5 25.5t110 0.5t102 -28.5t86.5 -61.5
t64 -98.5q12 -29 19 -65.5t7 -78.5q62 16 120 43.5t108 61.5zM690 526q-49 10 -96.5 32t-99.5 63l106 145q39 -36 88 -55q-12 57 -41 106t-67 73.5t-82.5 15t-87.5 -69.5q-26 -37 -49.5 -96t-40 -128t-24 -142.5t0 -138.5t31 -116.5t69.5 -77.5q37 -21 80 -12t83.5 54
t75 128.5t54.5 210.5v8z" />
    <glyph glyph-name="p" unicode="p" horiz-adv-x="969" 
d="M487 963q80 54 148.5 66.5t124.5 -6t99 -62.5t72 -104t43.5 -130.5t14.5 -140.5q-2 -99 -25 -197.5t-71 -183.5q-23 -45 -53 -81.5t-70 -64.5q-42 -34 -94.5 -52.5t-112.5 -18.5q-32 0 -69 7t-72.5 19.5t-65.5 29t-47 34.5l-114 -590h-289l305 1536h289zM694 459
q9 49 15 111t4 122t-15 111.5t-41 80t-74 26.5t-114 -48l-135 -667q34 -45 70 -61.5t71 -10.5t67 30.5t58 59.5q31 43 55.5 107t38.5 139z" />
    <glyph glyph-name="q" unicode="q" horiz-adv-x="981" 
d="M1008 1024l-312 -1536h-282l112 545q-68 -32 -144.5 -39.5t-145.5 12.5t-122.5 70t-74.5 133q-25 85 -18 184t36 199q23 72 60.5 142.5t87 129.5t109 101.5t125 59t135.5 2t141 -70.5l14 68h279zM690 862q-59 49 -108 53t-88.5 -23.5t-70.5 -78.5t-53 -111.5
t-35.5 -123.5t-19.5 -113q-12 -78 -4.5 -139.5t27.5 -106.5q12 -31 32 -53.5t47 -33.5t61 -8.5t75 23.5z" />
    <glyph glyph-name="r" unicode="r" horiz-adv-x="897" 
d="M453 801q48 81 106 137.5t127.5 80.5t153 10.5t184.5 -73.5l-190 -157q-62 45 -121 42.5t-113 -37t-101.5 -91.5t-86.5 -121l-115 -592h-289l207 1024h281l-43 -223v0z" />
    <glyph glyph-name="s" unicode="s" horiz-adv-x="913" 
d="M725 760q12 23 21.5 53t7.5 58t-21 48.5t-65 24.5q-34 6 -75 -3.5t-69 -31.5q-24 -10 -42 -25t-29.5 -32.5t-16.5 -36t-2 -33.5q2 -17 4.5 -27.5t7 -18.5t11 -15.5l16.5 -18.5q26 -23 63.5 -48t84.5 -50q40 -20 83.5 -46t81.5 -52q34 -28 58.5 -58.5t38.5 -68.5
q20 -80 -4 -144.5t-77.5 -113t-129 -80t-158 -46t-166 -10.5t-152.5 27t-116.5 65t-59.5 105q-6 37 2.5 75.5t30 73.5t55.5 65t80 50l152 -129q-96 -29 -137 -74t-21 -87q10 -26 38.5 -42t67.5 -22t84.5 -1.5t88.5 20.5q49 21 87 52.5t58 78.5q12 26 5.5 50t-22.5 45.5
t-39 41t-44 35.5l-49 26.5l-41 22t-37 21.5t-37 26q-20 12 -41 27.5t-40 33.5t-35.5 37t-26.5 37q-32 44 -42 92.5t5 94.5t55 86t107 67q72 32 150 42.5t159 2.5q115 -6 198.5 -49.5t120.5 -124.5q16 -37 16.5 -83.5t-12.5 -94.5z" />
    <glyph glyph-name="t" unicode="t" horiz-adv-x="547" 
d="M721 358q-31 -82 -80 -148.5t-107.5 -114.5t-121.5 -75.5t-122 -32.5t-109 14t-82.5 65t-42.5 120.5t12 180.5l108 532h-123l51 125h99l55 266l291 58l-64 -324h166l-59 -125h-129l-137 -680q-12 -60 2 -86.5t43 -28t68 19.5t77.5 56t71.5 81.5t51 96.5h82z" />
    <glyph glyph-name="u" unicode="u" horiz-adv-x="975" 
d="M1167 354q-33 -93 -87.5 -165.5t-119 -120t-131.5 -68t-124 -10t-98.5 54t-53.5 125.5q-54 -67 -119 -111t-128.5 -61.5t-120 -6t-95 55.5t-53 123t7.5 197l131 657h279l-45.5 -234.5l-41 -208l-37 -188t-32.5 -174.5q-10 -56 -2 -84t28.5 -33t49.5 9t60 41.5t61 65.5
t53 81q1 5 2.5 13.5t6 32l13 68.5l23.5 124l37.5 197.5l54.5 289.5h275l-43.5 -233l-38.5 -205.5l-35 -187.5l-33 -179q-11 -59 1 -85.5t37.5 -28t60 19t68.5 55.5t63.5 80t45.5 94h80z" />
    <glyph glyph-name="v" unicode="v" horiz-adv-x="725" 
d="M844 1024l-71 -149.5l-79 -170l-83.5 -181l-85 -183.5l-84.5 -177.5l-81 -162.5h-284l2 1024h282l-4 -700l318 700h170z" />
    <glyph glyph-name="w" unicode="w" horiz-adv-x="1339" 
d="M1458 1024l-500 -1024h-268l-10 700l-334 -700h-274l-6 1024h268l6 -700l340 700h262l16 -698l336 698h164z" />
    <glyph glyph-name="x" unicode="x" horiz-adv-x="860" 
d="M1051 354q-2 -71 -27 -129.5t-65.5 -103.5t-92.5 -75.5t-108 -45t-112 -12t-104.5 24t-85.5 62.5t-55 103l-34 125l-269 -303h-139l177.5 201.5l195.5 220.5l-174 602h291l92 -330l71.5 82l75 85.5l74 84l69.5 78.5h140l-398 -449l119 -411q11 -39 35.5 -52t55 -6.5
t63 29.5t59 57t43.5 76t17 86h86z" />
    <glyph glyph-name="y" unicode="y" horiz-adv-x="981" 
d="M1049 1024l-154 -760q-23 -121 -51 -234t-70.5 -209t-102.5 -170t-146 -115.5t-201.5 -45.5t-268.5 39l195 197q13 -11 34 -24.5t46 -25t51.5 -19.5t49 -6.5t39 14t22.5 40.5l88 430q-58 -59 -125 -96t-132.5 -48.5t-123.5 4.5t-96.5 62t-52 125t10.5 193l129 649h291
l-87.5 -434l-74.5 -367q-11 -56 0 -83.5t35.5 -33t59 8.5t71 41.5t70.5 65.5t59 81l146 721h289z" />
    <glyph glyph-name="z" unicode="z" horiz-adv-x="913" 
d="M952 1024l-495 -844q59 14 122 18t125 -1.5t121.5 -21t110.5 -40.5l-166 -133q-84 18 -172 27.5t-176 10t-173 -7.5t-163 -24l-41 -8l533 913h-365l43 111h696z" />
    <glyph glyph-name="braceleft" unicode="{" horiz-adv-x="616" 
d="M778 1540l-47 -102h-29t-19.5 -0.5t-16 -2l-17.5 -3.5q-21 -7 -43 -18t-39 -30q-31 -31 -51 -63.5t-33 -67.5q-9 -34 -13.5 -71.5t-6.5 -83.5q-6 -85 0 -174q1 -36 -0.5 -83t-6.5 -100.5t-14 -111t-22 -115.5q-15 -60 -32 -118t-34.5 -110t-34.5 -97.5t-32 -79.5
l-36.5 -97t-31.5 -94q-17 -49 -25.5 -92t-11.5 -78v-37t2 -35q2 -15 5.5 -28t13.5 -23q8 -11 19.5 -19t31.5 -16q15 -5 40 -6.5t56 -1.5l23 -92h-105q-68 -2 -118 14.5t-82 46.5q-34 28 -50 69t-14 93q2 44 10.5 86.5t24.5 87.5q15 48 33 90.5l37 90.5l38 88l35 84
q14 37 26 72.5t12 65t-18 49t-65 24.5q-31 2 -61 3t-51 1l67 116l59.5 2t52.5 7t43.5 21t33.5 46l11.5 39t8.5 39q3 17 3.5 36t2.5 38q2 45 1.5 86t-3.5 86q-3 76 0 157q0 31 6 61.5t19 67.5q11 38 27 71t40 65q23 34 52.5 58t64.5 46t79.5 32.5t92.5 10.5h92z" />
    <glyph glyph-name="bar" unicode="|" horiz-adv-x="643" 
d="M221 1540h189v-2052h-189v2052v0z" />
    <glyph glyph-name="braceright" unicode="}" horiz-adv-x="588" 
d="M-203 -512l47 102h29t19.5 1t16 2t17.5 4q22 6 43.5 17t38.5 30q60 60 84 131q9 34 14 71.5t7 83.5q6 85 0 174q-2 36 0 83t7 100.5t14 111t22 115.5q15 60 32 118t34.5 110.5t34.5 97.5t32 80l35.5 96.5t31.5 93.5q17 50 25.5 92.5t11.5 77.5v37.5t-2 34.5
q-2 15 -5.5 28.5t-12.5 22.5q-8 11 -19.5 19t-31.5 16q-16 5 -41 6.5t-56 1.5l-22 92h104q68 2 118.5 -14t82.5 -47q34 -28 49.5 -69t13.5 -93q-2 -44 -10.5 -86.5t-23.5 -87.5q-16 -48 -33.5 -90l-36.5 -90l-38.5 -89l-35.5 -84q-14 -37 -26 -72.5t-12 -64.5t18 -49t65 -24
q31 -2 61 -3.5t52 -1.5l-68 -116q-32 -2 -60 -2.5t-52 -6.5t-43 -21t-33 -46l-11.5 -39t-9.5 -39q-3 -17 -3.5 -36t-2.5 -38q-2 -45 -1.5 -86t3.5 -86q3 -76 0 -157q0 -31 -6 -61.5t-18 -67.5q-11 -38 -27 -71t-41 -65q-23 -34 -52 -58t-65 -46q-35 -22 -79.5 -32.5
t-92.5 -10.5h-92z" />
    <glyph glyph-name="asciitilde" unicode="~" horiz-adv-x="903" 
d="M997 1372q-9 -40 -39 -76q-31 -37 -77 -63q-22 -17 -47 -27.5t-54 -21.5q-54 -19 -112 -19q-55 0 -97 13q-21 5 -42.5 11.5t-41.5 14.5q-21 5 -40 12t-39 13q-19 6 -41 10t-43 4q-20 0 -33.5 -4t-24.5 -12.5t-21.5 -20.5l-23.5 -28l-45 14q25 51 59 87t80 60
q86 52 203 52q28 0 52.5 -3t45.5 -8l42 -9.5t40 -12.5l38.5 -12.5l37.5 -12.5l38 -6.5t44 -3.5q19 0 38 3.5t36 8.5q17 8 25 16.5t16 22.5z" />
    <glyph glyph-name="Euro" unicode="&#x20ac;" horiz-adv-x="1374" 
d="M1063 131q137 24 244 135l24 -96q-43 -40 -92.5 -72.5t-103.5 -52.5q-45 -19 -91 -31t-96 -20q-75 -11 -152.5 -6.5t-151.5 24.5t-140.5 55.5t-120.5 88.5q-42 40 -72 90t-48 107.5t-25 120.5t-5 128h-186l70 100h123q6 46 18 99h-211l70 94h166q31 108 78.5 202.5
t107.5 170.5q71 88 154.5 147t173.5 88q54 20 109 29t107 7.5t100 -13.5t89 -33q72 -34 118.5 -99t55.5 -155q11 -84 -13 -184.5t-93 -220.5l-207 204q18 29 38 52.5t35.5 48t25.5 52.5t9 66q0 47 -30 72t-76 25q-48 -2 -110 -29.5t-124 -83.5q-68 -63 -126.5 -153
t-96.5 -193h355l-68 -94h-322q-6 -26 -11 -51t-11 -48h412l-68 -100h-350q-3 -74 10.5 -143t48.5 -125q50 -82 130.5 -133t174.5 -68q41 -8 79 -8t75 6z" />
    <glyph glyph-name="quotesinglbase" unicode="&#x201a;" horiz-adv-x="451" 
d="M162 279q42 -15 61.5 -55t18.5 -91.5t-21 -107t-57 -103t-89.5 -79.5t-117.5 -36l-14 66q35 1 59.5 10t42 25t30 39.5t23.5 52.5q-35 2 -63.5 21t-45.5 46.5t-21.5 61.5t7.5 66q11 28 31 48.5t45.5 32t54 12.5t56.5 -9z" />
    <glyph glyph-name="quotedblbase" unicode="&#x201e;" horiz-adv-x="901" 
d="M170 285q42 -16 62 -57t19 -94t-21.5 -110t-58 -105.5t-91.5 -80.5t-121 -35l-14 66q37 1 62 10.5t42.5 26t30 40t24.5 54.5q-11 0 -20 2.5t-18 7.5q-29 11 -50 31.5t-32.5 46.5t-12.5 55t11 58q10 28 29.5 49t45 32.5t55 12.5t58.5 -10zM604 285q42 -16 61.5 -57
t18.5 -94t-21.5 -110t-58.5 -105.5t-91.5 -80.5t-121.5 -35l-14 66q37 1 62 10.5t43 26t31 40t26 54.5q-11 0 -20.5 2.5t-20.5 7.5q-29 11 -50 31.5t-32.5 46.5t-13 55t9.5 58q11 28 31.5 49t46.5 32.5t55.5 12.5t58.5 -10z" />
    <glyph glyph-name="ellipsis" unicode="&#x2026;" horiz-adv-x="1475" 
d="M1237 268q49 -48 49 -114q0 -36 -12 -63t-37 -50q-49 -49 -115 -49q-69 0 -114 49q-23 23 -35 50t-12 63q0 65 47 114q45 49 114 49q66 0 115 -49zM141 317q66 0 115 -49q49 -48 49 -114q0 -36 -12 -63t-37 -50q-49 -49 -115 -49q-35 0 -62 12t-50 37q-25 23 -37 50
t-12 63q0 66 49 114q23 25 50 37t62 12zM621 317q68 0 116 -49q25 -24 36 -52t11 -62q0 -36 -11 -63t-36 -50q-48 -49 -116 -49q-67 0 -113 49q-25 23 -36 50t-11 63q0 34 11 62t36 52q46 49 113 49z" />
    <glyph glyph-name="dagger" unicode="&#x2020;" horiz-adv-x="842" 
d="M842 879l-47 -228h-312l-247 -1163h-146l246 1163h-299l49 228h299l137 661h152l-144 -661h312z" />
    <glyph glyph-name="daggerdbl" unicode="&#x2021;" horiz-adv-x="881" 
d="M510 651l-45 -215h309l-47 -229h-313l-152 -719h-147l151 719h-295l49 229h295l45 215h-299l50 228h295l143 661h149l-141 -661h307l-47 -228h-307z" />
    <glyph glyph-name="perthousand" unicode="&#x2030;" horiz-adv-x="1868" 
d="M594 229q3 114 38.5 196.5t89.5 135t118.5 75.5t125 18t109.5 -37.5t72 -90.5q19 -41 16 -102q-3 -114 -38.5 -196t-89.5 -134.5t-118.5 -75.5t-125 -18t-109.5 37t-72 90q-8 20 -13 45.5t-3 56.5zM999 330q11 60 2 111.5t-30.5 85t-51 45.5t-60 -8.5t-57.5 -77
t-44 -158.5q-8 -42 -6 -75t8 -60q18 -60 40.5 -87t46 -28.5t47.5 18.5t44.5 55t36.5 81.5t24 97.5zM1784 526q8 -20 12.5 -46.5t1.5 -55.5q-3 -114 -38 -196t-88.5 -134.5t-117.5 -75.5t-124.5 -18t-110 37t-72.5 90q-19 43 -16 102q4 114 39.5 196.5t89 135t118 75.5
t124.5 18t109 -37.5t73 -90.5zM1640 330q10 60 0 111.5t-32 85t-51.5 45.5t-60 -8.5t-58 -77t-43.5 -158.5q-8 -42 -6 -75t10 -60q16 -60 38 -87t46 -28.5t48 18.5t45.5 55t38 81.5t25.5 97.5zM631 1186q-2 -114 -37.5 -196.5t-89 -135t-118 -75.5t-125 -18t-109.5 36.5
t-72 89.5q-9 21 -13 46.5t-4 53.5q3 115 39 198t89.5 135.5t118 76t125 18.5t109.5 -37t72 -90q8 -23 12.5 -48t2.5 -54zM229 954q17 -60 39 -87.5t46 -29t48.5 18.5t45.5 54.5t37.5 80t25.5 94.5q10 61 0 114t-31.5 87.5t-51.5 46t-60.5 -9t-58 -78t-44.5 -160.5
q-6 -38 -5 -72t9 -59zM1106 1540l-791 -1542h-149l790 1542h150z" />
    <glyph glyph-name="Scaron" unicode="&#x160;" horiz-adv-x="1171" 
d="M715 1692l-158 327l111 13l110 -156l201 162l170 10l-336 -346zM922 1143q24 85 16.5 152.5t-42 105.5t-95.5 40.5t-144 -42.5q-26 -15 -46.5 -39.5t-34.5 -52.5t-20.5 -56.5t-4.5 -52.5q3 -26 6.5 -42t8.5 -28.5t13.5 -24l20.5 -28.5q25 -34 71 -73t99 -74l107.5 -72.5
t99.5 -79.5q46 -42 76 -89t41 -107q18 -99 0 -183.5t-62 -152.5t-109.5 -120t-143 -87t-162.5 -53t-168 -18t-159 18.5t-136.5 56t-100 94t-49.5 133.5q-7 58 3.5 119.5t38 118t71.5 103.5t104 77l191 -199q-62 -24 -106.5 -55t-70.5 -65t-34 -68.5t2 -65.5q12 -37 48.5 -61
t86 -33.5t107 -3t112.5 32.5q57 26 106 74.5t78 126.5q16 40 9.5 78t-26.5 71.5t-49.5 62.5t-58.5 52l-53.5 41l-47.5 34.5l-45.5 33.5t-47.5 38q-25 20 -50.5 44.5t-49.5 51t-44 54.5t-34 55q-35 70 -43.5 145.5t12.5 147t72.5 134t136.5 104.5q94 48 191.5 64t199.5 7
q128 -14 214.5 -62.5t133 -125t53.5 -176t-24 -215.5z" />
    <glyph glyph-name="guilsinglleft" unicode="&#x2039;" horiz-adv-x="631" 
d="M193 520l288 -295l-84 -92l-379 389l455 412l88 -96z" />
    <glyph glyph-name="Sacute" unicode="&#x15a;" horiz-adv-x="1137" 
d="M895 1104q23 83 16 148.5t-40.5 102t-92 39.5t-139.5 -40q-26 -15 -46 -39t-34 -51t-20.5 -55t-3.5 -52t6.5 -40t8.5 -28t13.5 -23.5l20.5 -27.5q23 -32 68 -70.5t96 -72.5l104 -70.5t98 -76.5q45 -41 73.5 -86.5t39.5 -104.5q17 -96 0 -178t-60 -148.5t-106.5 -117
t-139 -84.5t-158 -51.5t-163 -17.5t-154.5 18t-133 54.5t-97.5 91.5t-47.5 130q-7 57 3.5 116.5t37 114t69 100t101.5 74.5l184 -192q-60 -24 -103 -54t-68.5 -63t-33 -66t2.5 -63q12 -36 47 -60t83 -33.5t104 -3t110 31.5q55 26 103 73.5t77 122.5q15 39 8.5 76t-26 69.5
t-48.5 60.5t-57 50l-52.5 40l-45.5 34.5l-44 33t-46 36.5q-24 19 -49 42.5t-48.5 49.5t-43.5 53t-33 53q-34 69 -42.5 143t12 143.5t71 129t133.5 100.5q91 47 186 63t195 7q124 -13 208 -60.5t129 -121.5t52 -171t-23 -210zM1075 2048l-178 -391h-162l121 389z" />
    <glyph glyph-name="Zcaron" unicode="&#x17d;" horiz-adv-x="1245" 
d="M799 2019l110 11l111 -154l197 160l165 12l-327 -340zM1323 1540l-870 -1325q55 19 122 33t139 22t146 8.5t144 -6t132.5 -21.5t112.5 -38l-184 -211q-61 27 -139 41.5t-167.5 19.5t-187 1.5t-196 -13t-195 -23.5t-184.5 -30l233 343l229 349.5l227.5 349.5l227.5 344
h-596l95 156h911z" />
    <glyph glyph-name="Zacute" unicode="&#x179;" horiz-adv-x="1225" 
d="M1149 2048l-178 -391h-162l121 389zM1323 1540l-870 -1325q55 19 122 33t139 22t146 8.5t144 -6t132.5 -21.5t112.5 -38l-184 -211q-61 27 -139 41.5t-167.5 19.5t-187 1.5t-196 -13t-195 -23.5t-184.5 -30l233 343l229 349.5l227.5 349.5l227.5 344h-596l95 156h911z
" />
    <glyph glyph-name="quoteleft" unicode="&#x2018;" horiz-adv-x="389" 
d="M221 1059q-41 15 -60 55t-17.5 91t21.5 107t56.5 103t88.5 79t118 36l14 -64q-36 -2 -60.5 -11.5t-42 -26t-29.5 -39.5t-23 -52q18 -3 37 -10q27 -11 47.5 -30.5t31.5 -44.5t13 -53t-8 -56q-11 -29 -31 -49t-45 -31.5t-54 -12.5t-57 9z" />
    <glyph glyph-name="quoteright" unicode="&#x2019;" horiz-adv-x="358" 
d="M360 1520q41 -15 60 -55t18 -91.5t-21 -107t-56.5 -103t-89 -79.5t-117.5 -35l-15 63q36 2 60.5 11.5t42 26t29.5 39.5t24 52q-9 2 -19 4.5t-18 5.5q-28 11 -48.5 31t-31.5 45t-12.5 53t8.5 56q11 28 31 48.5t45 31.5t53.5 12.5t56.5 -8.5z" />
    <glyph glyph-name="quotedblleft" unicode="&#x201c;" horiz-adv-x="840" 
d="M233 1061q-41 15 -59.5 55t-17.5 91t21 107t56.5 103t88.5 79t118 36l15 -64q-36 -2 -61 -11.5t-42 -26t-29 -39.5t-24 -52q9 -2 19 -4.5t18 -5.5q28 -11 48 -30.5t31.5 -44.5t13 -53t-8.5 -56q-11 -29 -31 -49t-45 -31.5t-54 -12.5t-57 9zM672 1061q-41 15 -60 55
t-18 91t21 107t57 103t89 79t118 36l14 -64q-36 -2 -60.5 -11.5t-42 -26t-29.5 -39.5t-24 -52q10 -2 19.5 -4.5t17.5 -5.5q28 -11 48.5 -30.5t31.5 -44.5t12.5 -53t-8.5 -56q-11 -29 -30.5 -49t-44.5 -31.5t-54 -12.5t-57 9z" />
    <glyph glyph-name="quotedblright" unicode="&#x201d;" horiz-adv-x="842" 
d="M815 1522q41 -15 60 -55t17.5 -91.5t-21.5 -107t-56.5 -103t-89 -79.5t-117.5 -35l-14 63q36 2 60.5 11.5t42 26t29.5 39.5t24 52q-20 3 -37 10q-28 11 -48.5 31t-31.5 45t-12.5 53t8.5 56t30 48.5t45 31.5t53.5 12.5t57.5 -8.5zM377 1522q41 -15 60 -55t17.5 -91.5
t-21.5 -107t-56.5 -103t-89 -79.5t-117.5 -35l-14 63q36 2 60.5 11.5t41.5 26t29.5 39.5t23.5 52q-18 3 -37 10q-27 11 -47.5 31t-31.5 45t-13 53t8 56q11 28 31 48.5t45 31.5t53.5 12.5t57.5 -8.5z" />
    <glyph glyph-name="bullet" unicode="&#x2022;" horiz-adv-x="580" 
d="M96 551q0 75 54 135q56 55 135 55q77 0 135 -55q55 -58 55 -135t-55 -135q-60 -54 -135 -54q-76 0 -135 54q-54 60 -54 135z" />
    <glyph glyph-name="endash" unicode="&#x2013;" horiz-adv-x="805" 
d="M600 451h-440l37 163h438z" />
    <glyph glyph-name="emdash" unicode="&#x2014;" horiz-adv-x="999" 
d="M815 451h-702l59 163h698z" />
    <glyph glyph-name="trademark" unicode="&#x2122;" horiz-adv-x="1020" 
d="M1044 1348l-92 -461h-84l62 284l-162 -284h-76l31 282l-131 -282h-60l191 411q-26 -4 -51.5 -11t-41.5 -20.5t-19.5 -35t14.5 -53.5l-76 -58q-5 55 5 94t31.5 65.5t53 41t68.5 22.5q31 5 59 5t63 2l-34 -303l172 301h77zM596 1350q-29 -34 -55 -51.5t-51 -24t-51 -4.5
t-56 8l-82 -391h-86l86 405q-39 6 -69 2.5t-47.5 -17t-20.5 -39t12 -64.5l-76 -54q-8 91 13 140.5t60.5 70t90.5 19t103 -12.5q31 -7 60 -12t54.5 -5t46 6.5t35.5 23.5h33z" />
    <glyph glyph-name="scaron" unicode="&#x161;" horiz-adv-x="913" 
d="M588 1235l-137 281l98 10l90 -133l172 137l143 10l-284 -297zM725 760q12 23 21.5 53t7.5 58t-21 48.5t-65 24.5q-34 6 -75 -3.5t-69 -31.5q-24 -10 -42 -25t-29.5 -32.5t-16.5 -36t-2 -33.5q2 -17 4.5 -27.5t7 -18.5t11 -15.5l16.5 -18.5q26 -23 63.5 -48t84.5 -50
q40 -20 83.5 -46t81.5 -52q34 -28 58.5 -58.5t38.5 -68.5q20 -80 -4 -144.5t-77.5 -113t-129 -80t-158 -46t-166 -10.5t-152.5 27t-116.5 65t-59.5 105q-6 37 2.5 75.5t30 73.5t55.5 65t80 50l152 -129q-96 -29 -137 -74t-21 -87q10 -26 38.5 -42t67.5 -22t84.5 -1.5
t88.5 20.5q49 21 87 52.5t58 78.5q12 26 5.5 50t-22.5 45.5t-39 41t-44 35.5l-49 26.5l-41 22t-37 21.5t-37 26q-20 12 -41 27.5t-40 33.5t-35.5 37t-26.5 37q-32 44 -42 92.5t5 94.5t55 86t107 67q72 32 150 42.5t159 2.5q115 -6 198.5 -49.5t120.5 -124.5
q16 -37 16.5 -83.5t-12.5 -94.5z" />
    <glyph glyph-name="guilsinglright" unicode="&#x203a;" horiz-adv-x="686" 
d="M455 524l-289 295l84 92l379 -389l-455 -411l-88 96z" />
    <glyph glyph-name="sacute" unicode="&#x15b;" horiz-adv-x="913" 
d="M815 1540l-178 -391h-162l121 389zM725 760q12 23 21.5 53t7.5 58t-21 48.5t-65 24.5q-34 6 -75 -3.5t-69 -31.5q-24 -10 -42 -25t-29.5 -32.5t-16.5 -36t-2 -33.5q2 -17 4.5 -27.5t7 -18.5t11 -15.5l16.5 -18.5q26 -23 63.5 -48t84.5 -50q40 -20 83.5 -46t81.5 -52
q34 -28 58.5 -58.5t38.5 -68.5q20 -80 -4 -144.5t-77.5 -113t-129 -80t-158 -46t-166 -10.5t-152.5 27t-116.5 65t-59.5 105q-6 37 2.5 75.5t30 73.5t55.5 65t80 50l152 -129q-96 -29 -137 -74t-21 -87q10 -26 38.5 -42t67.5 -22t84.5 -1.5t88.5 20.5q49 21 87 52.5t58 78.5
q12 26 5.5 50t-22.5 45.5t-39 41t-44 35.5l-49 26.5l-41 22t-37 21.5t-37 26q-20 12 -41 27.5t-40 33.5t-35.5 37t-26.5 37q-32 44 -42 92.5t5 94.5t55 86t107 67q72 32 150 42.5t159 2.5q115 -6 198.5 -49.5t120.5 -124.5q16 -37 16.5 -83.5t-12.5 -94.5z" />
    <glyph glyph-name="zcaron" unicode="&#x17e;" horiz-adv-x="868" 
d="M936 1024l-496 -844q59 14 122 18t125.5 -1.5t121.5 -21t111 -40.5l-166 -133q-85 18 -173 27.5t-175.5 10t-172.5 -7.5t-163 -24l-41 -8l532 913h-364l43 111h696zM588 1235l-137 281l98 10l90 -133l172 137l143 10l-284 -297z" />
    <glyph glyph-name="zacute" unicode="&#x17a;" horiz-adv-x="879" 
d="M936 1024l-496 -844q59 14 122 18t125.5 -1.5t121.5 -21t111 -40.5l-166 -133q-85 18 -173 27.5t-175.5 10t-172.5 -7.5t-163 -24l-41 -8l532 913h-364l43 111h696zM815 1540l-178 -391h-162l121 389z" />
    <glyph glyph-name="caron" unicode="&#x2c7;" horiz-adv-x="547" 
d="M324 1149l-177 358l125 13l121 -170l219 176l187 12l-365 -379l-110 -10v0z" />
    <glyph glyph-name="breve" unicode="&#x2d8;" horiz-adv-x="879" 
d="M879 1440q-2 -148 -107 -225.5t-319 -77.5q-72 0 -131 16t-101.5 47.5t-66 79.5t-23.5 113q0 11 1 22.5t3 24.5h162q-2 -11 -3 -18.5t-1 -18.5q0 -43 14.5 -73.5t40 -49.5t61.5 -28t80 -9q45 0 85 9t71 31.5t51.5 60.5t26.5 96h156z" />
    <glyph glyph-name="currency" unicode="&#xa4;" horiz-adv-x="981" 
d="M489 909q-87 0 -145 -61q-29 -29 -45 -65.5t-16 -80.5q0 -43 16 -78.5t45 -66.5q29 -29 65.5 -45t79.5 -16q44 0 80 16t68 45q59 62 59 145q0 87 -59 146q-32 31 -68 46t-80 15zM186 1077l117 -116q81 63 186 63q51 0 97 -16q24 -8 45 -19t43 -26l114 116l74 -73
l-112 -113q31 -43 45 -90.5t14 -100.5q0 -51 -14 -98t-45 -90l112 -113l-74 -73l-112 114q-20 -15 -41.5 -26t-46.5 -19q-46 -16 -99 -16q-52 0 -99 15.5t-89 47.5l-117 -116l-73 73l116 117q-15 20 -26 40.5t-19 45.5q-16 46 -16 96q0 53 16 99q8 24 19 45.5t26 40.5
l-118 119z" />
    <glyph glyph-name="brokenbar" unicode="&#xa6;" horiz-adv-x="631" 
d="M205 1540h186v-924h-186v924zM205 -512v969h186v-969h-186z" />
    <glyph glyph-name="section" unicode="&#xa7;" horiz-adv-x="1579" 
d="M1358 1233q15 47 13 81.5t-17 57.5t-40.5 35.5t-58.5 15.5q-43 3 -91.5 -7.5t-90.5 -35.5q-27 -15 -48.5 -35.5t-36 -44t-21.5 -47t-4 -43.5t6 -32.5t8.5 -22.5t13.5 -20l21 -25q11 -15 29 -31t40.5 -31.5t47.5 -30.5l51 -30l52.5 -30.5l54.5 -31t52 -31.5t45 -34
q45 -35 75.5 -74t41.5 -90q21 -99 -7.5 -179.5t-90 -142t-149 -103.5t-185.5 -64q-30 -70 -89.5 -125t-136.5 -93.5t-166 -60.5t-179 -26.5t-174.5 8.5t-152 44t-112 81t-55.5 119q-7 48 3.5 99t38 97.5t71 86t102.5 65.5l187 -168q-61 -20 -104.5 -45.5t-69.5 -54
t-34 -57.5t3 -56q12 -30 47.5 -50t84 -27.5t105 -2t111.5 26.5q59 23 108 65t78 105q15 33 8 63.5t-26.5 58.5t-48.5 51.5t-58 43.5l-54 35l-46 28.5l-44 27l-48 29.5l-49.5 41t-49 44.5t-43.5 45t-34 44.5q-36 59 -45 122t11.5 122.5t71.5 110t134 85.5q51 20 100.5 33
t101.5 22q16 69 69.5 129.5t150.5 98.5q91 43 189.5 57t195.5 6q66 -5 127.5 -21.5t113 -44.5t90 -68.5t58.5 -94.5q17 -53 16.5 -108.5t-18.5 -121.5zM1026 741l-53 33.5l-46 28t-43.5 28.5t-45.5 35q-27 16 -53 36t-49.5 41.5t-43 44.5t-33.5 44q-8 13 -13.5 24t-10.5 25
q-21 -15 -38.5 -34.5t-30.5 -40t-19 -41.5t-4 -39t5.5 -30.5t9.5 -23t15 -21.5l23 -28l17.5 -18t23.5 -21h2l8 -8q25 -18 55.5 -36.5l59.5 -37.5l108.5 -60t98.5 -67q40 -32 71 -69t43 -86q20 18 38 45t30 55q16 34 10 65.5t-26 59.5t-49.5 52t-59.5 44z" />
    <glyph glyph-name="dieresis" unicode="&#xa8;" horiz-adv-x="788" 
d="M100 1298q0 25 9.5 48t26.5 40t39.5 27t49.5 10q25 0 48 -10t40 -27t27 -40t10 -48q0 -27 -10 -49.5t-27 -39t-40 -26t-48 -9.5q-27 0 -49.5 9.5t-39.5 26t-26.5 39t-9.5 49.5zM469 1298q0 25 9.5 48t26 40t39.5 27t50 10q25 0 48 -10t40 -27t27 -40t10 -48
q0 -27 -10 -49.5t-27 -39t-40 -26t-48 -9.5q-27 0 -50 9.5t-39.5 26t-26 39t-9.5 49.5z" />
    <glyph glyph-name="copyright" unicode="&#xa9;" horiz-adv-x="1210" 
d="M616 1192q108 0 203.5 -40.5t166.5 -111t112 -166t41 -204.5q0 -108 -41 -202.5t-112 -165t-166.5 -111.5t-203.5 -41t-203 41t-165.5 111.5t-111 165t-40.5 202.5q0 109 40.5 204.5t111 166t165.5 111t203 40.5zM465 598q-14 41 -14 90q0 46 14 78q8 19 19.5 33t25.5 26
q12 13 26.5 21t32.5 14q17 5 33.5 7.5t36.5 2.5q26 0 52 -6.5t50 -21.5q48 -31 60 -94l96 36q-17 51 -42 89t-60 61q-70 49 -152 49q-28 0 -55 -5.5t-56 -14.5q-27 -14 -51.5 -29t-46.5 -37q-21 -20 -38 -42.5t-31 -51.5q-13 -28 -20 -59.5t-7 -65.5q0 -66 24 -121
q22 -59 64 -100q19 -23 42.5 -40.5t51.5 -31.5q29 -12 58 -18.5t61 -6.5q37 0 73 8.5t68 28.5q65 38 109 103l-88 61q-13 -25 -28.5 -41t-37.5 -28q-41 -25 -90 -25q-22 0 -40.5 4t-35.5 12q-18 10 -33.5 20.5t-27.5 24.5q-27 30 -43 70z" />
    <glyph glyph-name="guillemotleft" unicode="&#xab;" 
d="M260 518l272 -278l-79 -90l-359 370l430 387l84 -86zM676 518l272 -278l-78 -90l-362 370l432 387l84 -86z" />
    <glyph glyph-name="logicalnot" unicode="&#xac;" horiz-adv-x="967" 
d="M813 86h-238l74 360h-530l37 168h766l-109 -528v0z" />
    <glyph glyph-name="uni00AD" unicode="&#xad;" horiz-adv-x="672" 
d="M551 453h-445l37 161h443z" />
    <glyph glyph-name="registered" unicode="&#xae;" horiz-adv-x="1235" 
d="M618 1217q109 0 205 -41.5t167.5 -113t113 -167.5t41.5 -205t-41.5 -205t-113 -167t-167.5 -112.5t-205 -41.5q-72 0 -139.5 19t-125.5 53t-106 82t-82 106.5t-52.5 125.5t-18.5 140q0 109 41 205t112 167.5t166.5 113t204.5 41.5zM881 399l-133 260q51 16 86 58
q17 23 25.5 48t8.5 54q0 44 -14 76t-45 53q-57 45 -168 45h-201l-4 -604h99v256h120l129 -258zM774 817q0 -31 -14 -45q-8 -9 -17 -16.5t-20 -14.5q-12 -5 -23.5 -7t-23.5 -5q-14 -2 -26.5 -2h-24.5h-90v184h112q26 0 48.5 -5.5t39.5 -14.5q19 -11 29 -28.5t10 -45.5z" />
    <glyph glyph-name="degree" unicode="&#xb0;" horiz-adv-x="606" 
d="M565 897q-36 -59 -87 -92.5t-104 -38.5t-101 18t-79 77t-38 138t22 201q8 29 19.5 55t25.5 48q36 59 86.5 92t103 38t100.5 -18t79 -76.5t38 -138t-22 -201.5q-9 -29 -19.5 -54.5t-23.5 -47.5zM510 1098q14 105 5 163.5t-31.5 79.5t-53.5 9.5t-61 -46.5t-54 -88t-32 -114
q-7 -51 -5 -98t12.5 -82.5t27.5 -56.5t39.5 -19t50 29.5t57.5 89.5q14 24 25.5 57.5t19.5 75.5z" />
    <glyph glyph-name="plusminus" unicode="&#xb1;" horiz-adv-x="1036" 
d="M815 139h-754l37 162h752zM711 862h260l-47 -229h-262l-54 -252h-233l55 252h-264l51 229h262l56 250h231z" />
    <glyph glyph-name="acute" unicode="&#xb4;" horiz-adv-x="612" 
d="M477 1538l-176 -389h-162l119 389h219z" />
    <glyph glyph-name="mu" unicode="&#xb5;" horiz-adv-x="1065" 
d="M582 143q-39 -45 -82.5 -80.5t-88.5 -60t-89 -37t-84 -10.5q-14 -65 -25.5 -124t-24.5 -118l-260 -55q0 4 1.5 11t5 27t11 57l20.5 102.5l32.5 163.5l48 239l66 330l86.5 436h252l-49.5 -242l-42 -214l-36.5 -192.5l-34 -178.5q-12 -58 -1.5 -87t35 -34.5t59 9t71 43
t71 68t58.5 83.5q1 5 2 14t6 33.5l14 71l25.5 127.5l40.5 202.5l59 296.5h250l-47.5 -240l-41 -211l-37.5 -192.5l-36 -183.5q-12 -62 2 -90t43.5 -29.5t70 19.5t80 57t74 83t52.5 97h82q-36 -96 -93.5 -171t-124.5 -124.5t-137 -70.5t-129 -10.5t-101 56t-54 129.5z" />
    <glyph glyph-name="paragraph" unicode="&#xb6;" horiz-adv-x="1042" 
d="M262 -164l156 752q-38 6 -71 19.5t-62 33.5q-28 20 -52 44t-43 52q-39 55 -57 123q-11 34 -14.5 69t-3.5 70q0 47 7.5 94t24.5 97q16 46 40.5 88.5t56.5 79.5q31 37 70 66.5t87 54.5q45 22 107 34.5t132.5 18.5t145 7.5t145 0t132.5 -3.5t108 -2l-49 -145h-178
q6 -8 12 -18t9 -19q32 -63 32 -156q0 -19 -0.5 -36t-5.5 -36q-2 -17 -3.5 -36t-6.5 -39l-258 -1209l-191 -4l168 774q-12 -5 -23 -8l-22 -6l-21.5 -4l-21.5 -4l-157 -752h-193zM647 692q38 0 70 6l98 463q12 58 12 103q0 21 -3 40t-9 33l-15 29t-18 23l-149 -697h14z" />
    <glyph glyph-name="cedilla" unicode="&#xb8;" horiz-adv-x="485" 
d="M49 -381q-17 26 -20.5 57t10.5 56l80 -33l-8.5 -25.5t-4.5 -24.5t7 -19t26 -9q42 -3 74 9.5t59 43.5q26 33 31 59.5t-5.5 45t-33.5 29.5t-53 13.5t-64 -3.5t-67 -21l86 250l67 -47l-38 -111q84 17 141.5 10t91.5 -30t45.5 -58t3.5 -72.5t-34.5 -74t-68 -62t-97.5 -37
t-123 0.5q-29 5 -57.5 16.5t-47.5 36.5z" />
    <glyph glyph-name="guillemotright" unicode="&#xbb;" horiz-adv-x="1063" 
d="M819 526l-272 279l80 90l358 -371l-430 -387l-84 86zM403 526l-272 279l78 90l362 -371l-432 -387l-84 86z" />
    <glyph glyph-name="hungarumlaut" unicode="&#x2dd;" horiz-adv-x="893" 
d="M588 1540l-176 -389h-162l119 389h219zM879 1540l-177 -389h-161l118 389h220z" />
    <glyph glyph-name=".notdef.107" unicode="&#xc1;" horiz-adv-x="1305" 
d="M362 1348q97 77 221.5 117t265 56.5t290.5 17.5t299 1l-154 -768l-154 -772h-286l92 420h-469l-352 -418h-197l290.5 341.5l294 345.5l294.5 346.5l293 344.5q-38 -2 -86 -3.5t-101.5 -5t-110.5 -9t-112 -16.5t-105.5 -28t-91.5 -42q-39 -25 -67 -66t-41 -93t-9.5 -111.5
t27.5 -120.5l-276 -127q12 214 75 359.5t170 230.5zM975 594l63 287.5l64 285.5l-486 -573h359zM1395 2048l-178 -391h-162l121 389z" />
    <glyph glyph-name=".notdef.111" unicode="&#xc2;" horiz-adv-x="1309" 
d="M1430 1690l-125 -13l-121 168l-221 -176l-185 -12l367 383l108 8zM362 1348q97 77 221.5 117t265 56.5t290.5 17.5t299 1l-154 -768l-154 -772h-286l92 420h-469l-352 -418h-197l290.5 341.5l294 345.5l294.5 346.5l293 344.5q-38 -2 -86 -3.5t-101.5 -5t-110.5 -9
t-112 -16.5t-105.5 -28t-91.5 -42q-39 -25 -67 -66t-41 -93t-9.5 -111.5t27.5 -120.5l-276 -127q12 214 75 359.5t170 230.5zM975 594l63 287.5l64 285.5l-486 -573h359z" />
    <glyph glyph-name="Adieresis" unicode="&#xc4;" horiz-adv-x="1280" 
d="M362 1348q97 77 221.5 117t265 56.5t290.5 17.5t299 1l-154 -768l-154 -772h-286l92 420h-469l-352 -418h-197l1172 1378q-38 -2 -86 -3.5t-101.5 -5t-110.5 -9t-112 -16.5t-105.5 -28t-91.5 -42q-39 -25 -67 -66t-41 -93t-9.5 -111.5t27.5 -120.5l-276 -127
q12 214 75 359.5t170 230.5zM975 594l63 287.5l64 285.5l-486 -573h359zM819 1810q0 28 10 52.5t27.5 43t42.5 29.5t55 11q28 0 52.5 -11t43 -29.5t29.5 -43t11 -52.5t-11 -52.5t-29.5 -43t-43 -29t-52.5 -10.5q-30 0 -55 10.5t-42.5 29t-27.5 43t-10 52.5zM1217 1810
q0 28 10.5 52.5t28.5 43t42.5 29.5t53.5 11q27 0 51.5 -11t43 -29.5t29.5 -43t11 -52.5t-11 -52.5t-29.5 -43t-43 -29t-51.5 -10.5q-29 0 -53.5 10.5t-42.5 29t-28.5 43t-10.5 52.5z" />
    <glyph glyph-name="Cacute" unicode="&#x106;" horiz-adv-x="1155" 
d="M1417 344q-49 -106 -135 -182t-193 -122.5t-226.5 -63t-235 -3t-218.5 56t-178 115.5q-67 64 -103 152t-46 189t4 208.5t45.5 210.5t79 195.5t104.5 163.5q75 89 159.5 148.5t172.5 88.5q113 42 218.5 38.5t189.5 -46.5q72 -37 120.5 -101t59.5 -157q9 -82 -16 -183.5
t-97 -220.5l-166 267l24.5 36.5t23 38t17 40t5.5 42.5q-2 50 -32 74.5t-76 24.5q-51 0 -111.5 -29t-126.5 -86q-55 -51 -104.5 -121t-87.5 -150.5t-63 -167t-31.5 -171.5t7 -163.5t52.5 -141.5q39 -64 105.5 -110t147.5 -71.5t170 -27.5t172 21.5t154 74.5t117 133h98z
M1313 2048l-178 -391h-162l121 389z" />
    <glyph glyph-name="Ccedilla" unicode="&#xc7;" horiz-adv-x="1137" 
d="M1395 342q-45 -95 -119.5 -166t-167.5 -117.5t-198 -69.5t-212 -22l-34 -100q82 18 139 10t90.5 -32.5t45 -60t3.5 -74t-33.5 -74.5t-67 -61t-96.5 -34t-122 8q-31 8 -57 19.5t-46 34.5q-16 22 -16 63q0 11 1.5 24t6.5 25l78 -34l-8 -11q-3 -8 -7 -15t-4 -15
q-2 -17 9.5 -25t29.5 -10q16 -3 32 -1t32 5q20 8 36.5 20t28.5 31q26 32 31 57.5t-5 43.5t-32 28.5t-51.5 13t-63 -4t-65.5 -21.5l65 194q-120 11 -228 54t-185 118q-67 65 -102.5 153.5t-45 189.5t4.5 208.5t46 210.5t79 195.5t104 163.5q72 89 158 148t174 91
q55 19 110 28t107 7.5t99.5 -13t88.5 -32.5q74 -37 122.5 -102t59.5 -156q10 -81 -15.5 -183.5t-96.5 -220.5l-166 263q26 38 45.5 78t19.5 83q0 50 -27.5 73.5t-76.5 23.5q-50 -2 -111.5 -28.5t-126.5 -86.5q-55 -50 -103.5 -120t-86.5 -150.5t-63 -167.5t-31.5 -171.5
t7 -162.5t52.5 -141t105.5 -109t147 -71t169 -27t172 21t154.5 73t118 131h99v0z" />
    <glyph glyph-name="Ccaron" unicode="&#x10c;" horiz-adv-x="1165" 
d="M1417 344q-49 -106 -135 -182t-193 -122.5t-226.5 -63t-235 -3t-218.5 56t-178 115.5q-67 64 -103 152t-46 189t4 208.5t45.5 210.5t79 195.5t104.5 163.5q75 89 159.5 148.5t172.5 88.5q113 42 218.5 38.5t189.5 -46.5q72 -37 120.5 -101t59.5 -157q9 -82 -16 -183.5
t-97 -220.5l-166 267l24.5 36.5t23 38t17 40t5.5 42.5q-2 50 -32 74.5t-76 24.5q-51 0 -111.5 -29t-126.5 -86q-55 -51 -104.5 -121t-87.5 -150.5t-63 -167t-31.5 -171.5t7 -163.5t52.5 -141.5q39 -64 105.5 -110t147.5 -71.5t170 -27.5t172 21.5t154 74.5t117 133h98z
M958 1698l-159 321l110 11l111 -154l197 160l165 12l-327 -340z" />
    <glyph glyph-name=".notdef.124" unicode="&#xc9;" horiz-adv-x="1325" 
d="M1313 2048l-178 -391h-162l121 389zM1501 1540l-59 -182h-432l-78 -404h301l-53 -180h-283l-123 -594h457l-51 -180h-723l276 1364q-51 -5 -101.5 -11t-97 -17.5t-86.5 -28.5t-69 -43t-44 -66.5t-14.5 -90t17 -105t49.5 -111.5l-276 -129q-15 113 -9 207t29.5 170
t63.5 135t94 102q93 68 210 103t257 51q60 5 111 6.5t108 1.5q47 0 111 0.5t135 0.5t143.5 0.5t136.5 0.5z" />
    <glyph glyph-name="Edieresis" unicode="&#xcb;" horiz-adv-x="1339" 
d="M1442 1358h-432l-78 -404h301l-53 -180h-283l-123 -594h457l-51 -180h-723l276 1364q-51 -5 -101.5 -11t-97 -17.5t-86.5 -28.5t-69 -43t-44 -66.5t-14.5 -90t17 -105t49.5 -111.5l-276 -129q-15 113 -9 207t29.5 170t63.5 135t94 102q93 68 210 103t257 51q60 5 111 6.5
t108 1.5q47 0 111 0.5t135 0.5t143.5 0.5t136.5 0.5zM788 1810q0 28 10 52.5t28 43t43 29.5t55 11q27 0 51.5 -11t43 -29.5t29.5 -43t11 -52.5t-11 -52.5t-29.5 -43t-43 -29t-51.5 -10.5q-30 0 -55 10.5t-43 29t-28 43t-10 52.5zM1186 1810q0 28 10.5 52.5t28.5 43
t42.5 29.5t53.5 11q28 0 52.5 -11t43 -29.5t29 -43t10.5 -52.5t-10.5 -52.5t-29 -43t-43 -29t-52.5 -10.5q-29 0 -53.5 10.5t-42.5 29t-28.5 43t-10.5 52.5z" />
    <glyph glyph-name="Ecaron" unicode="&#x11a;" horiz-adv-x="1339" 
d="M1501 1540l-59 -182h-432l-78 -404h301l-53 -180h-283l-123 -594h457l-51 -180h-723l276 1364q-51 -5 -101.5 -11t-97 -17.5t-86.5 -28.5t-69 -43t-44 -66.5t-14.5 -90t17 -105t49.5 -111.5l-276 -129q-15 113 -9 207t29.5 170t63.5 135t94 102q93 68 210 103t257 51
q60 5 111 6.5t108 1.5q47 0 111 0.5t135 0.5t143.5 0.5t136.5 0.5zM958 1698l-159 321l110 11l111 -154l197 160l165 12l-327 -340z" />
    <glyph glyph-name=".notdef.103" unicode="&#xcd;" horiz-adv-x="1018" 
d="M778 0h-278l272 1364q-52 -5 -104 -12t-99.5 -19t-89 -30.5t-71.5 -45.5q-26 -24 -38 -64t-9.5 -89.5t19 -105.5t48.5 -111l-281 -125q-26 215 19.5 364t146.5 234q67 57 153.5 91.5t186 54t208.5 26.5t222 8zM1042 2048l-178 -391h-162l121 389z" />
    <glyph glyph-name="Icircumflex" unicode="&#xce;" horiz-adv-x="991" 
d="M778 0h-278l272 1364q-52 -5 -104 -12t-99.5 -19t-89 -30.5t-71.5 -45.5q-26 -24 -38 -64t-9.5 -89.5t19 -105.5t48.5 -111l-281 -125q-26 215 19.5 364t146.5 234q67 57 153.5 91.5t186 54t208.5 26.5t222 8zM1116 1690l-125 -13l-121 168l-221 -176l-184 -12l366 383
l109 8z" />
    <glyph glyph-name="Nacute" unicode="&#x143;" horiz-adv-x="1468" 
d="M1176 496l210 1044h199l-309 -1540h-291l-215 1051l-209 -1051h-199l275 1364q-9 -2 -19.5 -3t-21.5 -3q-63 -13 -121 -31.5t-96 -50.5q-29 -24 -37.5 -66t0.5 -94t34 -111t64 -116l-276 -129q-26 109 -31 202t8 169t43 136t74 103q62 57 144.5 91.5t181.5 54.5
q48 9 90 14t84 7t87.5 2.5t102.5 0.5zM1477 2048l-179 -391h-161l120 389z" />
    <glyph glyph-name=".notdef.098" unicode="&#xd3;" horiz-adv-x="1434" 
d="M1489 985q0 -48 -2.5 -100.5t-13.5 -112.5q-8 -57 -21 -111.5t-33 -113.5q-17 -56 -40.5 -110.5t-51.5 -106.5q-31 -53 -65 -99.5t-74 -87.5q-42 -40 -89 -71t-100 -56q-54 -24 -115 -35.5t-124 -11.5q-45 0 -84 5t-74 18q-69 18 -123 71q-50 46 -78 123q-14 41 -21 87
t-7 102q-2 43 0 88t8 96q13 101 38.5 192.5t61.5 178t82 169t99 165.5l323 36q-70 -101 -123.5 -193t-91.5 -177t-62.5 -164t-35.5 -154q-20 -120 -12 -213t36 -153t72 -82.5t97 -1t110.5 91.5t111.5 195q31 65 54 138.5t39 153.5q17 85 24.5 166t5.5 166q-3 85 -28 147.5
t-67 104t-96.5 64t-116.5 29t-127.5 -2.5t-128.5 -29.5t-120 -52t-102 -71.5q-41 -38 -65.5 -86.5t-31.5 -101t4 -105t40 -97.5l-285 -131q-15 106 -2 198.5t48.5 170.5t90.5 142.5t123 115.5q102 75 224.5 117.5t248 50t244 -21.5t212 -96.5t151.5 -175t63 -257.5z
M1300 2048l-178 -391h-161l120 389z" />
    <glyph glyph-name=".notdef.094" unicode="&#xd4;" horiz-adv-x="1403" 
d="M1464 985q0 -48 -2.5 -100.5t-13.5 -112.5q-8 -57 -20.5 -111.5t-32.5 -113.5q-17 -56 -41 -110.5t-51 -106.5q-31 -53 -65 -99.5t-75 -87.5q-42 -40 -89 -71t-99 -56q-54 -24 -115.5 -35.5t-124.5 -11.5q-45 0 -83.5 5t-73.5 18q-70 18 -123 71q-25 23 -44.5 54
t-33.5 69q-14 41 -21.5 87t-7.5 102q-2 43 0 88t8 96q13 101 39 192.5t62 178t81.5 169t98.5 165.5l324 36q-70 -101 -123.5 -193t-92 -177t-62.5 -164t-36 -154q-20 -120 -12 -213t36 -153t72.5 -82.5t97.5 -1t110.5 91.5t111.5 195q31 65 54 138.5t38 153.5q17 85 25 166
t6 166q-4 114 -47 187t-110.5 111.5t-151.5 46t-170.5 -9.5t-167 -55t-140.5 -91q-41 -38 -65 -86.5t-31 -101t3.5 -105t39.5 -97.5l-285 -131q-15 106 -2 198.5t48.5 170.5t90.5 142.5t124 115.5q76 56 164.5 94.5t182 57t188 17.5t181.5 -23t163.5 -65t133.5 -108.5
t91.5 -154.5t37.5 -201zM1280 1690l-125 -13l-121 168l-221 -176l-184 -12l366 383l109 8z" />
    <glyph glyph-name="Odieresis" unicode="&#xd6;" horiz-adv-x="1434" 
d="M1495 985q0 -48 -2.5 -100.5t-13.5 -112.5q-8 -57 -21 -111.5t-33 -113.5q-17 -56 -40.5 -110.5t-51.5 -106.5q-31 -53 -65 -99.5t-74 -87.5q-42 -40 -89 -71t-99 -56q-54 -24 -115.5 -35.5t-124.5 -11.5q-45 0 -84 5t-74 18q-69 18 -123 71q-24 23 -43.5 54t-33.5 69
q-14 41 -21.5 87t-7.5 102q-2 43 0 88t8 96q13 101 38.5 192.5t61.5 178t82 169t99 165.5l323 36q-70 -101 -123 -193t-91.5 -177t-62.5 -164t-36 -154q-20 -120 -12 -213t36 -153t72.5 -82.5t97.5 -1t110.5 91.5t111.5 195q31 65 53.5 138.5t38.5 153.5q17 85 25 166t6 166
q-4 114 -47 187t-110.5 111.5t-151.5 46t-170.5 -9.5t-167 -55t-140.5 -91q-41 -38 -65 -86.5t-31 -101t3.5 -105t39.5 -97.5l-285 -131q-15 106 -2 198.5t48.5 170.5t90.5 142.5t123 115.5q76 56 165 94.5t182.5 57t188 17.5t181.5 -23t163.5 -65t133.5 -108.5t91.5 -154.5
t37.5 -201zM647 1810q0 28 10 52.5t27.5 43t42.5 29.5t55 11q28 0 52.5 -11t43 -29.5t29.5 -43t11 -52.5t-11 -52.5t-29.5 -43t-43 -29t-52.5 -10.5q-30 0 -55 10.5t-42.5 29t-27.5 43t-10 52.5zM1044 1810q0 28 10.5 52.5t29 43t43 29.5t53.5 11q27 0 51.5 -11t43 -29.5
t29.5 -43t11 -52.5t-11 -52.5t-29.5 -43t-43 -29t-51.5 -10.5q-29 0 -53.5 10.5t-43 29t-29 43t-10.5 52.5z" />
    <glyph glyph-name="multiply" unicode="&#xd7;" horiz-adv-x="879" 
d="M231 864l201 -205l209 207l137 -139l-205 -203l205 -207l-137 -139l-209 205l-201 -203l-139 137l205 207l-205 203z" />
    <glyph glyph-name=".notdef.087" unicode="&#xda;" horiz-adv-x="1587" 
d="M1688 1540l-310 -1540h-282l45 190q-42 -65 -105 -110.5t-136 -65.5t-150 -10.5t-146 55.5q-90 52 -121 164q-14 57 -14.5 125.5t8.5 153.5q11 85 30.5 186.5t45.5 216.5l104 463q-50 -5 -98.5 -12t-93.5 -18.5t-85 -27.5t-71 -40q-31 -26 -46 -67t-14.5 -92t17 -108.5
t49.5 -115.5l-276 -125q-14 112 -8 203.5t29 165t62 131t91 102.5q68 54 153.5 89t183.5 54.5t205.5 27t219.5 7.5l-37 -160l-98 -471l-33 -154.5t-27 -131.5q-9 -57 -15 -107t-9 -92q-5 -40 -6.5 -71t6.5 -54q15 -44 47 -58.5t73.5 -6t88 35t90.5 64.5t81 82t60 88
l211 1034h281zM1452 2048l-178 -391h-162l121 389z" />
    <glyph glyph-name="Uhungarumlaut" unicode="&#x170;" horiz-adv-x="1593" 
d="M1688 1540l-310 -1540h-282l45 190q-42 -65 -105 -110.5t-136 -65.5t-150 -10.5t-146 55.5q-90 52 -121 164q-14 57 -14.5 125.5t8.5 153.5q11 85 30.5 186.5t45.5 216.5l104 463q-50 -5 -98.5 -12t-93.5 -18.5t-85 -27.5t-71 -40q-31 -26 -46 -67t-14.5 -92t17 -108.5
t49.5 -115.5l-276 -125q-14 112 -8 203.5t29 165t62 131t91 102.5q68 54 153.5 89t183.5 54.5t205.5 27t219.5 7.5l-37 -160l-98 -471l-33 -154.5t-27 -131.5q-9 -57 -15 -107t-9 -92q-5 -40 -6.5 -71t6.5 -54q15 -44 47 -58.5t73.5 -6t88 35t90.5 64.5t81 82t60 88
l211 1034h281zM1305 2048l-179 -391h-161l120 389zM1642 2048l-178 -391h-161l120 389z" />
    <glyph glyph-name="Udieresis" unicode="&#xdc;" horiz-adv-x="1593" 
d="M1688 1540l-310 -1540h-282l45 190q-42 -65 -105 -110.5t-136 -65.5t-150 -10.5t-146 55.5q-90 52 -121 164q-14 57 -14.5 125.5t8.5 153.5q11 85 30.5 186.5t45.5 216.5l104 463q-50 -5 -98.5 -12t-93.5 -18.5t-85 -27.5t-71 -40q-31 -26 -46 -67t-14.5 -92t17 -108.5
t49.5 -115.5l-276 -125q-14 112 -8 203.5t29 165t62 131t91 102.5q68 54 153.5 89t183.5 54.5t205.5 27t219.5 7.5l-37 -160l-98 -471l-33 -154.5t-27 -131.5q-9 -57 -15 -107t-9 -92q-5 -40 -6.5 -71t6.5 -54q15 -44 47 -58.5t73.5 -6t88 35t90.5 64.5t81 82t60 88
l211 1034h281zM874 1810q0 28 10 52.5t28 43t43 29.5t55 11q27 0 51.5 -11t43 -29.5t29.5 -43t11 -52.5t-11 -52.5t-29.5 -43t-43 -29t-51.5 -10.5q-30 0 -55 10.5t-43 29t-28 43t-10 52.5zM1272 1810q0 28 10.5 52.5t28.5 43t42.5 29.5t53.5 11q28 0 52.5 -11t43 -29.5
t29 -43t10.5 -52.5t-10.5 -52.5t-29 -43t-43 -29t-52.5 -10.5q-29 0 -53.5 10.5t-42.5 29t-28.5 43t-10.5 52.5z" />
    <glyph glyph-name=".notdef.070" unicode="&#xdd;" horiz-adv-x="1583" 
d="M352 887l-276 -125q-22 103 -22.5 193t16 165t48.5 135t77 103q67 61 158 97t194.5 55t214.5 24.5t219 5.5l-117 -518q-6 -27 -14 -71l-17 -95t-17 -105t-13 -100.5t-6 -81t4 -47.5q16 -38 48.5 -49.5t73.5 -4t87 31t88 54.5t76 67t53 69l180 850h279l-102 -510
l-80 -393.5l-61.5 -294l-46.5 -211t-36 -144.5t-30 -94.5t-27.5 -61.5t-28.5 -46q-26 -35 -55 -64.5t-60 -52.5q-63 -44 -129.5 -66.5t-133 -26t-130 12.5t-119 50.5t-101 86.5t-75.5 121l56.5 41.5l57.5 45l52 42l39 31.5q12 -38 28.5 -76.5t38 -71.5t49.5 -59t64 -39
q51 -13 89 1.5t66 45t47 71t32 79.5q16 54 29.5 114t24.5 121.5l21.5 122.5l20.5 117q-40 -46 -96.5 -79.5t-121 -51.5t-131 -19t-125 17t-104.5 57.5t-69 102.5q-20 68 -21 135t8.5 135t25 139.5t28.5 149.5l84 354q-53 -4 -105 -10.5t-99.5 -18.5t-88.5 -31t-72 -46
q-26 -25 -34 -67t-1 -93t29.5 -108t58.5 -111zM1452 2048l-178 -391h-162l121 389z" />
    <glyph glyph-name="germandbls" unicode="&#xdf;" horiz-adv-x="918" 
d="M639 870q58 -20 103.5 -45t77 -60t47.5 -83t16 -113q0 -81 -10.5 -148t-28.5 -124q-30 -81 -60.5 -135t-65.5 -87t-75.5 -49t-89.5 -21.5t-109 -5t-133 0.5l27 121q24 -2 48.5 -2.5t48 3.5t43.5 14.5t34 29.5q20 29 38.5 61t31.5 70q27 76 36 164q7 45 10 84.5t3 75.5
q0 34 -9 61.5t-24 50.5q-17 29 -46.5 51t-59.5 39l30 144q37 -2 66.5 7.5t48.5 26.5q55 58 55 148q0 61 -20 84q-10 9 -25 14.5t-35 5.5q-17 0 -37 -8q-20 -6 -43 -24q-9 -11 -18 -23.5t-18 -28.5q-10 -17 -16.5 -38.5t-12.5 -47.5l-23 -104l-26 -125l-287 -1356l-2 -6h-297
l336 1591q11 57 27.5 101.5t37.5 79.5q20 34 44.5 60t50.5 46q28 20 55 32.5t55 18.5q28 8 54.5 11.5t52.5 3.5q37 0 68 -6t57 -17q28 -11 49.5 -25t40.5 -32q17 -19 30 -40t21 -44q18 -50 18 -101q0 -88 -49 -174q-24 -42 -58.5 -73.5t-82.5 -53.5z" />
    <glyph glyph-name=".notdef.065" unicode="&#xe1;" horiz-adv-x="1085" 
d="M1319 350q-35 -94 -96 -167t-132 -120t-145 -65.5t-135.5 -4.5t-103 63t-48.5 137q-54 -81 -125.5 -130t-146.5 -67t-146.5 -4t-125.5 58.5t-83 120t-20 181.5q7 82 26 163.5t50 155t76 137t104.5 110.5t134 75t166.5 31h518l-16 -78l-44 -213l-38.5 -181.5l-35.5 -167
l-35 -169.5q-12 -58 3 -84t45 -27t70 19t79.5 54.5t73 79.5t50.5 93h80zM764 836q-31 57 -71 78t-82.5 12.5t-85.5 -43.5t-81.5 -90.5t-69 -127.5t-48.5 -155q-20 -93 -22 -169t12.5 -128t44 -76t74 -13.5t102.5 60t129 144.5q2 9 3 17.5t3 19.5zM997 1540l-178 -391h-162
l121 389z" />
    <glyph glyph-name=".notdef.061" unicode="&#xe2;" 
d="M1319 350q-35 -94 -96 -167t-132 -120t-145 -65.5t-135.5 -4.5t-103 63t-48.5 137q-54 -81 -125.5 -130t-146.5 -67t-146.5 -4t-125.5 58.5t-83 120t-20 181.5q7 82 26 163.5t50 155t76 137t104.5 110.5t134 75t166.5 31h518l-16 -78l-44 -213l-38.5 -181.5l-35.5 -167
l-35 -169.5q-12 -58 3 -84t45 -27t70 19t79.5 54.5t73 79.5t50.5 93h80zM764 836q-31 57 -71 78t-82.5 12.5t-85.5 -43.5t-81.5 -90.5t-69 -127.5t-48.5 -155q-20 -93 -22 -169t12.5 -128t44 -76t74 -13.5t102.5 60t129 144.5q2 9 3 17.5t3 19.5zM979 1182l-125 -13
l-121 168l-221 -176l-184 -12l366 383l109 8z" />
    <glyph glyph-name="adieresis" unicode="&#xe4;" 
d="M1319 350q-35 -94 -96 -167t-132 -120t-145 -65.5t-135.5 -4.5t-103 63t-48.5 137q-54 -81 -125.5 -130t-146.5 -67t-146.5 -4t-125.5 58.5t-83 120t-20 181.5q7 82 26 163.5t50 155t76 137t104.5 110.5t134 75t166.5 31h518l-16 -78l-44 -213l-38.5 -181.5l-35.5 -167
l-35 -169.5q-12 -58 3 -84t45 -27t70 19t79.5 54.5t73 79.5t50.5 93h80zM764 836q-31 57 -71 78t-82.5 12.5t-85.5 -43.5t-81.5 -90.5t-69 -127.5t-48.5 -155q-20 -93 -22 -169t12.5 -128t44 -76t74 -13.5t102.5 60t129 144.5l6 37zM358 1298q0 28 10 52.5t28 43t43 29.5
t55 11q27 0 51.5 -11t43 -29.5t29.5 -43t11 -52.5t-11 -52.5t-29.5 -43t-43 -29t-51.5 -10.5q-30 0 -55 10.5t-43 29t-28 43t-10 52.5zM756 1298q0 28 10.5 52.5t28.5 43t42.5 29.5t53.5 11q28 0 52.5 -11t43 -29.5t29 -43t10.5 -52.5t-10.5 -52.5t-29 -43t-43 -29
t-52.5 -10.5q-29 0 -53.5 10.5t-42.5 29t-28.5 43t-10.5 52.5z" />
    <glyph glyph-name="cacute" unicode="&#x107;" horiz-adv-x="715" 
d="M883 352q-45 -79 -101.5 -144.5t-123.5 -113.5t-143 -75.5t-161 -30.5q-111 -5 -184.5 40t-112.5 122t-45.5 176.5t15.5 203.5q15 74 42.5 147t68.5 136.5t96 113.5t124 79q82 34 157.5 28t129.5 -49q39 -31 62.5 -74.5t31.5 -92.5t0.5 -98.5t-30.5 -92.5
q-7 -14 -14 -25.5l-15 -23.5l-94 165q35 69 35 114.5t-19 57.5q-18 13 -48 8t-65 -30q-44 -32 -77 -77t-57 -97t-39.5 -106t-22.5 -103q-12 -79 -8.5 -141.5t19.5 -109t43 -76.5t63 -44q55 -21 110 -8.5t106 46t97 80.5t84 95h76zM823 1540l-178 -391h-162l121 389z" />
    <glyph glyph-name="ccedilla" unicode="&#xe7;" horiz-adv-x="719" 
d="M252 -379q-9 13 -15 28t-6 32q0 12 2 25t7 26l79 -35l-8 -12l-5.5 -15t-2.5 -12q-3 -32 33 -35q18 -2 34.5 -0.5t30.5 4.5q20 8 37 20.5t29 26.5q25 32 30 57t-5 43.5t-32 29t-50.5 13.5t-61.5 -3t-65 -21l84 244l63 -47l-37 -109q81 17 136 9.5t87.5 -31.5t43 -59.5
t3 -73t-33 -73t-66 -60t-94.5 -33t-119 7.5q-29 8 -55 18t-43 35zM889 344q-45 -78 -102 -144t-123.5 -114.5t-143.5 -77t-162 -31.5q-75 -3 -133 17t-99.5 57.5t-68 90t-38 114.5t-10 130.5t15.5 139.5q14 75 42 148t70.5 136.5t99 114t128.5 79.5q80 35 156 29t128 -48
q40 -32 61.5 -76.5t26.5 -94t-5.5 -100.5t-35.5 -96l-12 -24t-14 -23l-97 168q38 69 45 115.5t-10 58.5q-18 11 -48.5 7t-67.5 -29q-43 -30 -76.5 -76t-58 -99t-40.5 -108.5t-24 -105.5q-23 -156 11.5 -250t109.5 -123q56 -21 111 -7.5t106.5 47t98 80.5t85.5 95h74z" />
    <glyph glyph-name="ccaron" unicode="&#x10d;" horiz-adv-x="715" 
d="M883 352q-45 -79 -101.5 -144.5t-123.5 -113.5t-143 -75.5t-161 -30.5q-111 -5 -184.5 40t-112.5 122t-45.5 176.5t15.5 203.5q15 74 42.5 147t68.5 136.5t96 113.5t124 79q82 34 157.5 28t129.5 -49q39 -31 62.5 -74.5t31.5 -92.5t0.5 -98.5t-30.5 -92.5
q-7 -14 -14 -25.5l-15 -23.5l-94 165q35 69 35 114.5t-19 57.5q-18 13 -48 8t-65 -30q-44 -32 -77 -77t-57 -97t-39.5 -106t-22.5 -103q-12 -79 -8.5 -141.5t19.5 -109t43 -76.5t63 -44q55 -21 110 -8.5t106 46t97 80.5t84 95h76zM518 1190l-160 321l111 11l111 -154
l196 160l166 12l-328 -340z" />
    <glyph glyph-name=".notdef.048" unicode="&#xe9;" horiz-adv-x="700" 
d="M874 352q-37 -73 -93.5 -139.5t-127 -117.5t-152.5 -80t-169 -27q-97 3 -162.5 42.5t-104 104t-51.5 146.5t-3 170.5t40 177t78 164.5q58 90 133.5 145.5t151 78.5t143 15t111.5 -45q39 -32 59.5 -75t25 -91t-6 -98.5t-33.5 -95.5q-35 -64 -83 -108.5t-105.5 -71.5
t-122 -38.5t-130.5 -9.5q1 -37 8.5 -75.5t23 -73t39 -63t56.5 -44.5q39 -18 79 -16.5t78 16t73.5 40t67 54.5t58 59.5l46.5 55.5h73zM281 518q0 -6 -1 -11.5t-1 -10.5q81 -3 138.5 24t96.5 70.5t60 95.5t28.5 99.5t3 83.5t-17.5 46q-15 12 -38.5 10t-51.5 -17t-57.5 -44.5
t-57.5 -72.5q-32 -50 -58.5 -118t-43.5 -155zM774 1540l-178 -391h-162l121 389z" />
    <glyph glyph-name="edieresis" unicode="&#xeb;" horiz-adv-x="700" 
d="M874 352q-37 -73 -93.5 -139.5t-127 -117.5t-152.5 -80t-169 -27q-97 3 -162.5 42.5t-104 104t-51.5 146.5t-3 170.5t40 177t78 164.5q58 90 133.5 145.5t151 78.5t143 15t111.5 -45q39 -32 59.5 -75t25 -91t-6 -98.5t-33.5 -95.5q-35 -64 -83 -108.5t-105.5 -71.5
t-122 -38.5t-130.5 -9.5q1 -37 8.5 -75.5t23 -73t39 -63t56.5 -44.5q39 -18 79 -16.5t78 16t73.5 40t67 54.5t58 59.5l46.5 55.5h73zM281 518q0 -6 -1 -11.5t-1 -10.5q81 -3 138.5 24t96.5 70.5t60 95.5t28.5 99.5t3 83.5t-17.5 46q-15 12 -38.5 10t-51.5 -17t-57.5 -44.5
t-57.5 -72.5q-32 -50 -58.5 -118t-43.5 -155zM250 1298q0 28 10 52.5t27.5 43t42.5 29.5t55 11q28 0 52.5 -11t43 -29.5t29 -43t10.5 -52.5t-10.5 -52.5t-29 -43t-43 -29t-52.5 -10.5q-30 0 -55 10.5t-42.5 29t-27.5 43t-10 52.5zM647 1298q0 28 10.5 52.5t29 43t43 29.5
t52.5 11t52.5 -11t43 -29.5t29.5 -43t11 -52.5t-11 -52.5t-29.5 -43t-43 -29t-52.5 -10.5t-52.5 10.5t-43 29t-29 43t-10.5 52.5z" />
    <glyph glyph-name=".notdef.037" unicode="&#xed;" horiz-adv-x="506" 
d="M696 362q-30 -83 -79.5 -150t-108.5 -115t-123.5 -76.5t-124.5 -33t-111.5 15t-85 66.5t-44 122.5t11.5 183.5l135 649h283l-46.5 -237l-41 -201.5l-37 -182l-35.5 -178.5q-12 -61 3 -88.5t45.5 -29t71.5 19.5t81 56.5t74.5 82t51.5 96.5h80zM586 1540l-178 -391h-162
l121 389z" />
    <glyph glyph-name="icircumflex" unicode="&#xee;" horiz-adv-x="506" 
d="M696 362q-30 -83 -79.5 -150t-108.5 -115t-123.5 -76.5t-124.5 -33t-111.5 15t-85 66.5t-44 122.5t11.5 183.5l135 649h283l-46.5 -237l-41 -201.5l-37 -182l-35.5 -178.5q-12 -61 3 -88.5t45.5 -29t71.5 19.5t81 56.5t74.5 82t51.5 96.5h80zM651 1182l-125 -13l-120 168
l-222 -176l-184 -12l367 383l108 8z" />
    <glyph glyph-name="dcroat" unicode="&#x111;" horiz-adv-x="1126" 
d="M942 229q-12 -60 1 -87t42 -28.5t67.5 18.5t77 54.5t71.5 79.5t50 94h84q-27 -71 -68.5 -130.5t-91 -105t-105 -76.5t-109 -45t-103 -10t-88.5 28t-64 68.5t-30 111.5q-55 -82 -127 -131.5t-147 -67.5t-146.5 -4t-125 59t-83 121.5t-20.5 183.5q14 155 63 271.5
t117 197.5t149 128.5t159 64.5t146.5 5.5t112.5 -48.5q8 -6 15 -12.5t12 -16.5l47 215l-205 -63l-16 141l252 78l39 217h278q-4 -23 -6 -33t-3.5 -20t-4.5 -25t-8 -47l131 43l18 -141l-182 -55l-40 -205l-40 -204.5l-38.5 -194l-34 -175l-27.5 -146.5t-19 -108zM780 848
q-32 56 -72 76t-83 11t-85.5 -44.5t-80.5 -90.5t-68.5 -127.5t-48.5 -154.5q-20 -93 -22.5 -169t11.5 -128t44 -76t74.5 -13.5t103 59.5t129.5 143q0 11 2.5 20.5t5.5 22.5z" />
    <glyph glyph-name="nacute" unicode="&#x144;" horiz-adv-x="1042" 
d="M1251 358q-34 -88 -83 -156.5t-106 -115.5t-118 -72t-117 -27t-104 20.5t-79.5 69.5t-43 120.5t5.5 173.5l42 214.5l40 215.5q11 59 -2 86t-40.5 29t-65.5 -17t-75.5 -52t-71 -76.5t-52.5 -90.5l-129 -680h-291l207 1024h281l-31 -154q55 62 121.5 102.5t132 54.5t124 0
t98 -59t54.5 -123.5t-6 -193.5q-12 -64 -20 -103t-13 -66t-9.5 -47.5t-9.5 -47l-12 -65l-18 -101.5t3 -91t43 -29.5t68 20t77.5 58t71 83.5t48.5 96h80zM887 1540l-178 -391h-162l121 389z" />
    <glyph glyph-name=".notdef.032" unicode="&#xf3;" horiz-adv-x="1032" 
d="M1174 733q-62 -56 -123 -98t-121 -70q-15 -117 -54.5 -210t-95.5 -162t-123.5 -115t-138 -69t-140.5 -22.5t-130 23.5q-72 26 -121 71t-78 102t-39 123.5t-2 137.5q9 75 35 149.5t68.5 142t100 124.5t128.5 98q47 28 101.5 46.5t110 25.5t109.5 0.5t102 -28.5t86.5 -61.5
t63.5 -98.5q13 -29 20 -65.5t7 -78.5q62 16 120 43.5t107 61.5zM684 526q-50 10 -97 32t-100 63l107 145q39 -36 88 -55q-12 57 -41 106t-67 73.5t-82.5 15t-88.5 -69.5q-26 -37 -49 -96t-39.5 -128t-24 -142.5t0 -138.5t31 -116.5t69.5 -77.5q37 -21 80 -12t83.5 54
t75 128.5t54.5 210.5v8zM887 1540l-178 -391h-162l121 389z" />
    <glyph glyph-name=".notdef.028" unicode="&#xf4;" horiz-adv-x="1001" 
d="M1174 733q-62 -56 -123 -98t-121 -70q-15 -117 -54.5 -210t-95.5 -162t-123.5 -115t-138 -69t-140.5 -22.5t-130 23.5q-72 26 -121 71t-78 102t-39 123.5t-2 137.5q9 75 35 149.5t68.5 142t100 124.5t128.5 98q47 28 101.5 46.5t110 25.5t109.5 0.5t102 -28.5t86.5 -61.5
t63.5 -98.5q13 -29 20 -65.5t7 -78.5q62 16 120 43.5t107 61.5zM684 526q-50 10 -97 32t-100 63l107 145q39 -36 88 -55q-12 57 -41 106t-67 73.5t-82.5 15t-88.5 -69.5q-26 -37 -49 -96t-39.5 -128t-24 -142.5t0 -138.5t31 -116.5t69.5 -77.5q37 -21 80 -12t83.5 54
t75 128.5t54.5 210.5v8zM905 1182l-125 -13l-121 168l-221 -176l-184 -12l367 383l108 8z" />
    <glyph glyph-name="ohungarumlaut" unicode="&#x151;" horiz-adv-x="1018" 
d="M1174 733q-62 -56 -123 -98t-121 -70q-15 -117 -54.5 -210t-95.5 -162t-123.5 -115t-138 -69t-140.5 -22.5t-130 23.5q-72 26 -121 71t-78 102t-39 123.5t-2 137.5q9 75 35 149.5t68.5 142t100 124.5t128.5 98q47 28 101.5 46.5t110 25.5t109.5 0.5t102 -28.5t86.5 -61.5
t63.5 -98.5q13 -29 20 -65.5t7 -78.5q62 16 120 43.5t107 61.5zM684 526q-50 10 -97 32t-100 63l107 145q39 -36 88 -55q-12 57 -41 106t-67 73.5t-82.5 15t-88.5 -69.5q-26 -37 -49 -96t-39.5 -128t-24 -142.5t0 -138.5t31 -116.5t69.5 -77.5q37 -21 80 -12t83.5 54
t75 128.5t54.5 210.5v8zM713 1540l-178 -391h-162l121 389zM1051 1540l-179 -391h-161l120 389z" />
    <glyph glyph-name="odieresis" unicode="&#xf6;" horiz-adv-x="1018" 
d="M1174 733q-62 -56 -123 -98t-121 -70q-15 -117 -54.5 -210t-95.5 -162t-123.5 -115t-138 -69t-140.5 -22.5t-130 23.5q-72 26 -121 71t-78 102t-39 123.5t-2 137.5q9 75 35 149.5t68.5 142t100 124.5t128.5 98q47 28 101.5 46.5t110 25.5t109.5 0.5t102 -28.5t86.5 -61.5
t63.5 -98.5q13 -29 20 -65.5t7 -78.5q62 16 120 43.5t107 61.5zM684 526q-50 10 -97 32t-100 63l107 145q39 -36 88 -55q-12 57 -41 106t-67 73.5t-82.5 15t-88.5 -69.5q-26 -37 -49 -96t-39.5 -128t-24 -142.5t0 -138.5t31 -116.5t69.5 -77.5q37 -21 80 -12t83.5 54
t75 128.5t54.5 210.5v8zM274 1298q0 28 10 52.5t28 43t43 29.5t55 11q27 0 51.5 -11t43 -29.5t29.5 -43t11 -52.5t-11 -52.5t-29.5 -43t-43 -29t-51.5 -10.5q-30 0 -55 10.5t-43 29t-28 43t-10 52.5zM672 1298q0 28 10.5 52.5t28.5 43t42.5 29.5t53.5 11q28 0 52.5 -11
t43 -29.5t29 -43t10.5 -52.5t-10.5 -52.5t-29 -43t-43 -29t-52.5 -10.5q-29 0 -53.5 10.5t-42.5 29t-28.5 43t-10.5 52.5z" />
    <glyph glyph-name="divide" unicode="&#xf7;" horiz-adv-x="850" 
d="M330 854q0 67 47 117q25 25 52.5 37t62.5 12q70 0 118 -49q45 -48 45 -117q0 -70 -45 -115q-24 -23 -54 -36t-64 -13q-35 0 -62.5 13t-52.5 36q-47 47 -47 115zM207 164q0 69 45 117q51 49 117 49q67 0 116 -49q23 -25 36.5 -53.5t13.5 -63.5q0 -34 -13.5 -62t-36.5 -53
q-49 -47 -116 -47t-117 47q-45 48 -45 115zM831 418h-839l41 174h839z" />
    <glyph glyph-name=".notdef.021" unicode="&#xfa;" horiz-adv-x="956" 
d="M1155 354q-33 -93 -87.5 -165.5t-119 -120t-131.5 -68t-124 -10t-98.5 54t-53.5 125.5q-54 -67 -119 -111t-128.5 -61.5t-120 -6t-95 55.5t-53 123t7.5 197l131 657h278l-45 -234.5l-40.5 -208l-37 -188t-32.5 -174.5q-10 -56 -2 -84t28.5 -33t49 9t60 41.5t61.5 65.5
t53 81q1 5 2.5 13.5t6 32l13 68.5l23.5 124l37.5 197.5l54.5 289.5h274l-43 -233l-38 -205.5l-35 -187.5l-33 -179q-11 -59 1 -85.5t37.5 -28t60 19t68.5 55.5t63.5 80t45.5 94h80zM823 1540l-178 -391h-162l121 389z" />
    <glyph glyph-name="uhungarumlaut" unicode="&#x171;" horiz-adv-x="963" 
d="M672 1540l-178 -391h-162l121 389zM1010 1540l-179 -391h-161l121 389zM1155 354q-33 -93 -87.5 -165.5t-119 -120t-131.5 -68t-124 -10t-98.5 54t-53.5 125.5q-54 -67 -119 -111t-128.5 -61.5t-120 -6t-95 55.5t-53 123t7.5 197l131 657h278l-45 -234.5l-40.5 -208
l-37 -188t-32.5 -174.5q-10 -56 -2 -84t28.5 -33t49 9t60 41.5t61.5 65.5t53 81q1 5 2.5 13.5t6 32l13 68.5l23.5 124l37.5 197.5l54.5 289.5h274l-43 -233l-38 -205.5l-35 -187.5l-33 -179q-11 -59 1 -85.5t37.5 -28t60 19t68.5 55.5t63.5 80t45.5 94h80z" />
    <glyph glyph-name="udieresis" unicode="&#xfc;" horiz-adv-x="952" 
d="M1155 354q-33 -93 -87.5 -165.5t-119 -120t-131.5 -68t-124 -10t-98.5 54t-53.5 125.5q-54 -67 -119 -111t-128.5 -61.5t-120 -6t-95 55.5t-53 123t7.5 197l131 657h278l-45 -234.5l-40.5 -208l-37 -188t-32.5 -174.5q-10 -56 -2 -84t28.5 -33t49 9t60 41.5t61.5 65.5
t53 81l137 725h274l-43 -233l-38 -205.5l-35 -187.5l-33 -179q-11 -59 1 -85.5t37.5 -28t60 19t68.5 55.5t63.5 80t45.5 94h80zM248 1298q0 28 10 52.5t27.5 43t42.5 29.5t55 11q28 0 52.5 -11t43 -29.5t29 -43t10.5 -52.5t-10.5 -52.5t-29 -43t-43 -29t-52.5 -10.5
q-30 0 -55 10.5t-42.5 29t-27.5 43t-10 52.5zM645 1298q0 28 10.5 52.5t29 43t43 29.5t52.5 11t52.5 -11t43 -29.5t29 -43t10.5 -52.5t-10.5 -52.5t-29 -43t-43 -29t-52.5 -10.5t-52.5 10.5t-43 29t-29 43t-10.5 52.5z" />
    <glyph glyph-name=".notdef.004" unicode="&#xfd;" horiz-adv-x="1022" 
d="M1018 1024l-154 -760q-22 -121 -50.5 -234t-71 -209t-102.5 -170t-145.5 -115.5t-201 -45.5t-268.5 39l194 197q13 -11 34 -24.5t46 -25t51.5 -19.5t49 -6.5t39 14t22.5 40.5l88 430q-57 -59 -124.5 -96t-133 -48.5t-123 4.5t-96 62t-52 125t10.5 193l129 649h291
l-88 -434l-74 -367q-11 -56 0 -83.5t35.5 -33t59 8.5t70.5 41.5t70.5 65.5t59.5 81l145 721h289zM870 1540l-178 -391h-162l121 389z" />
    <glyph glyph-name=".notdef.117" unicode="&#x102;" horiz-adv-x="1309" 
d="M1253 1657l-108 8l-367 383l185 -12l221 -176l121 168l125 -13zM362 1348q97 77 221.5 117t265 56.5t290.5 17.5t299 1l-154 -768l-154 -772h-286l92 420h-469l-352 -418h-197l290.5 341.5l294 345.5l294.5 346.5l293 344.5q-38 -2 -86 -3.5t-101.5 -5t-110.5 -9
t-112 -16.5t-105.5 -28t-91.5 -42q-39 -25 -67 -66t-41 -93t-9.5 -111.5t27.5 -120.5l-276 -127q12 214 75 359.5t170 230.5zM975 594l63 287.5l64 285.5l-486 -573h359z" />
    <glyph glyph-name=".notdef.055" unicode="&#x103;" 
d="M1319 350q-35 -94 -96 -167t-132 -120t-145 -65.5t-135.5 -4.5t-103 63t-48.5 137q-54 -81 -125.5 -130t-146.5 -67t-146.5 -4t-125.5 58.5t-83 120t-20 181.5q7 82 26 163.5t50 155t76 137t104.5 110.5t134 75t166.5 31h518l-16 -78l-44 -213l-38.5 -181.5l-35.5 -167
l-35 -169.5q-12 -58 3 -84t45 -27t70 19t79.5 54.5t73 79.5t50.5 93h80zM764 836q-31 57 -71 78t-82.5 12.5t-85.5 -43.5t-81.5 -90.5t-69 -127.5t-48.5 -155q-20 -93 -22 -169t12.5 -128t44 -76t74 -13.5t102.5 60t129 144.5q2 9 3 17.5t3 19.5zM445 1507l125 13l121 -168
l221 176l184 12l-366 -383l-109 -8z" />
    <glyph glyph-name=".notdef.106" unicode="&#xc0;" horiz-adv-x="1822" 
d="M362 1348q97 77 221.5 117t265 56.5t290.5 17.5t299 1l-154 -768l-154 -772h-286l92 420h-469l-352 -418h-197l290.5 341.5l294 345.5l294.5 346.5l293 344.5q-38 -2 -86 -3.5t-101.5 -5t-110.5 -9t-112 -16.5t-105.5 -28t-91.5 -42q-39 -25 -67 -66t-41 -93t-9.5 -111.5
t27.5 -120.5l-276 -127q12 214 75 359.5t170 230.5zM975 594l63 287.5l64 285.5l-486 -573h359zM1274 2046l121 -389h-162l-178 391z" />
    <glyph glyph-name=".notdef.109" unicode="&#xc3;" horiz-adv-x="1315" 
d="M362 1348q97 77 221.5 117t265 56.5t290.5 17.5t299 1l-154 -768l-154 -772h-286l92 420h-469l-352 -418h-197l290.5 341.5l294 345.5l294.5 346.5l293 344.5q-38 -2 -86 -3.5t-101.5 -5t-110.5 -9t-112 -16.5t-105.5 -28t-91.5 -42q-39 -25 -67 -66t-41 -93t-9.5 -111.5
t27.5 -120.5l-276 -127q12 214 75 359.5t170 230.5zM975 594l63 287.5l64 285.5l-486 -573h359zM1461 1875q-9 -40 -39 -76q-31 -37 -77 -63q-22 -17 -47 -27.5t-54 -21.5q-54 -19 -112 -19q-55 0 -97 13q-21 5 -42.5 11.5t-41.5 14.5q-21 5 -40 12t-39 13q-19 6 -41 10
t-43 4q-20 0 -33.5 -4t-24.5 -12.5t-21.5 -20.5l-23.5 -28l-45 14q25 51 59 87t80 60q86 52 203 52q28 0 52.5 -3t45.5 -8l42 -9.5t40 -12.5l38.5 -12.5l37.5 -12.5l38 -6.5t44 -3.5q19 0 38 3.5t36 8.5q17 8 25 16.5t16 22.5z" />
    <glyph glyph-name=".notdef.123" unicode="&#xc8;" horiz-adv-x="1327" 
d="M1442 1358h-432l-78 -404h301l-53 -180h-283l-123 -594h457l-51 -180h-723l276 1364q-51 -5 -101.5 -11t-97 -17.5t-86.5 -28.5t-69 -43t-44 -66.5t-14.5 -90t17 -105t49.5 -111.5l-276 -129q-15 113 -9 207t29.5 170t63.5 135t94 102q93 68 210 103t257 51q60 5 111 6.5
t108 1.5q47 0 111 0.5t135 0.5t143.5 0.5t136.5 0.5zM937 2046l121 -389h-162l-178 391z" />
    <glyph glyph-name=".notdef.128" unicode="&#xca;" horiz-adv-x="1327" 
d="M1442 1358h-432l-78 -404h301l-53 -180h-283l-123 -594h457l-51 -180h-723l276 1364q-51 -5 -101.5 -11t-97 -17.5t-86.5 -28.5t-69 -43t-44 -66.5t-14.5 -90t17 -105t49.5 -111.5l-276 -129q-15 113 -9 207t29.5 170t63.5 135t94 102q93 68 210 103t257 51q60 5 111 6.5
t108 1.5q47 0 111 0.5t135 0.5t143.5 0.5t136.5 0.5zM1430 1690l-125 -13l-121 168l-221 -176l-185 -12l367 383l108 8z" />
    <glyph glyph-name=".notdef.104" unicode="&#xcc;" horiz-adv-x="778" 
d="M778 0h-278l272 1364q-52 -5 -104 -12t-99.5 -19t-89 -30.5t-71.5 -45.5q-26 -24 -38 -64t-9.5 -89.5t19 -105.5t48.5 -111l-281 -125q-26 215 19.5 364t146.5 234q67 57 153.5 91.5t186 54t208.5 26.5t222 8zM937 2046l121 -389h-162l-178 391z" />
    <glyph glyph-name=".notdef.099" unicode="&#xd2;" horiz-adv-x="1434" 
d="M1489 985q0 -48 -2.5 -100.5t-13.5 -112.5q-8 -57 -21 -111.5t-33 -113.5q-17 -56 -40.5 -110.5t-51.5 -106.5q-31 -53 -65 -99.5t-74 -87.5q-42 -40 -89 -71t-100 -56q-54 -24 -115 -35.5t-124 -11.5q-45 0 -84 5t-74 18q-69 18 -123 71q-50 46 -78 123q-14 41 -21 87
t-7 102q-2 43 0 88t8 96q13 101 38.5 192.5t61.5 178t82 169t99 165.5l323 36q-70 -101 -123.5 -193t-91.5 -177t-62.5 -164t-35.5 -154q-20 -120 -12 -213t36 -153t72 -82.5t97 -1t110.5 91.5t111.5 195q31 65 54 138.5t39 153.5q17 85 24.5 166t5.5 166q-3 85 -28 147.5
t-67 104t-96.5 64t-116.5 29t-127.5 -2.5t-128.5 -29.5t-120 -52t-102 -71.5q-41 -38 -65.5 -86.5t-31.5 -101t4 -105t40 -97.5l-285 -131q-15 106 -2 198.5t48.5 170.5t90.5 142.5t123 115.5q102 75 224.5 117.5t248 50t244 -21.5t212 -96.5t151.5 -175t63 -257.5z
M963 2046l120 -389h-161l-178 391z" />
    <glyph glyph-name=".notdef.096" unicode="&#xd5;" horiz-adv-x="1497" 
d="M1520 985q0 -48 -3 -100.5t-14 -112.5q-8 -57 -20.5 -111.5t-32.5 -113.5q-17 -56 -40.5 -110.5t-51.5 -106.5q-31 -53 -65 -99.5t-74 -87.5q-42 -40 -89 -71t-100 -56q-54 -24 -115 -35.5t-124 -11.5q-45 0 -84 5t-74 18q-69 18 -123 71q-50 46 -78 123q-14 41 -21.5 87
t-7.5 102q-2 43 0 88t9 96q13 101 38.5 192.5t61.5 178t81.5 169t98.5 165.5l324 36q-70 -101 -123.5 -193t-92 -177t-62.5 -164t-36 -154q-20 -120 -12 -213t36.5 -153t72.5 -82.5t97 -1t110.5 91.5t111.5 195q31 65 54 138.5t38 153.5q17 85 25 166t6 166
q-4 114 -46.5 187t-110 111.5t-152 46t-170.5 -9.5t-166.5 -55t-140.5 -91q-41 -38 -65.5 -86.5t-31.5 -101t3.5 -105t39.5 -97.5l-284 -131q-15 106 -2 198.5t48.5 170.5t90.5 142.5t123 115.5q76 56 164.5 94.5t182 57t188 17.5t182 -23t163.5 -65t133.5 -108.5
t91.5 -154.5t38 -201zM1461 1875q-9 -40 -39 -76q-31 -37 -77 -63q-22 -17 -47 -27.5t-54 -21.5q-54 -19 -112 -19q-55 0 -97 13q-21 5 -42.5 11.5t-41.5 14.5q-21 5 -40 12t-39 13q-19 6 -41 10t-43 4q-20 0 -33.5 -4t-24.5 -12.5t-21.5 -20.5l-23.5 -28l-45 14
q25 51 59 87t80 60q86 52 203 52q28 0 52.5 -3t45.5 -8l42 -9.5t40 -12.5l38.5 -12.5l37.5 -12.5l38 -6.5t44 -3.5q19 0 38 3.5t36 8.5q17 8 25 16.5t16 22.5z" />
    <glyph glyph-name=".notdef.088" unicode="&#xd9;" horiz-adv-x="1556" 
d="M1788 1540l-309 -1540h-283l45 190q-42 -65 -105 -110.5t-135.5 -65.5t-149.5 -10.5t-146 55.5q-91 52 -121 164q-14 57 -15 125.5t9 153.5q11 85 30 186.5t45 216.5l105 463q-50 -5 -98.5 -12t-93.5 -18.5t-85 -27.5t-71 -40q-31 -26 -46 -67t-14.5 -92t17 -108.5
t49.5 -115.5l-277 -125q-14 112 -8 203.5t29 165t62 131t91 102.5q69 54 154.5 89t183 54.5t205 27t219.5 7.5l-37 -160l-98 -471l-32.5 -154.5t-26.5 -131.5q-10 -57 -16 -107t-9 -92q-5 -40 -6.5 -71t6.5 -54q15 -44 47 -58.5t73.5 -6t88 35t90.5 64.5t81 82t60 88
l211 1034h281zM1251 2046l121 -389h-162l-178 391z" />
    <glyph glyph-name=".notdef.066" unicode="&#xe0;" horiz-adv-x="1085" 
d="M1319 363q-35 -94 -96 -167t-132 -120t-145 -65.5t-135.5 -4.5t-103 63t-48.5 137q-54 -81 -125.5 -130t-146.5 -67t-146.5 -4t-125.5 58.5t-83 120t-20 181.5q7 82 26 163.5t50 155t76 137t104.5 110.5t134 75t166.5 31h518l-16 -78l-44 -213l-38.5 -181.5l-35.5 -167
l-35 -169.5q-12 -58 3 -84t45 -27t70 19t79.5 54.5t73 79.5t50.5 93h80zM764 849q-31 57 -71 78t-82.5 12.5t-85.5 -43.5t-81.5 -90.5t-69 -127.5t-48.5 -155q-20 -93 -22 -169t12.5 -128t44 -76t74 -13.5t102.5 60t129 144.5q2 9 3 17.5t3 19.5zM698 1551l121 -389h-162
l-178 391z" />
    <glyph glyph-name=".notdef.063" unicode="&#xe3;" horiz-adv-x="1133" 
d="M1319 350q-35 -94 -96 -167t-132 -120t-145 -65.5t-135.5 -4.5t-103 63t-48.5 137q-54 -81 -125.5 -130t-146.5 -67t-146.5 -4t-125.5 58.5t-83 120t-20 181.5q7 82 26 163.5t50 155t76 137t104.5 110.5t134 75t166.5 31h518l-16 -78l-44 -213l-38.5 -181.5l-35.5 -167
l-35 -169.5q-12 -58 3 -84t45 -27t70 19t79.5 54.5t73 79.5t50.5 93h80zM764 836q-31 57 -71 78t-82.5 12.5t-85.5 -43.5t-81.5 -90.5t-69 -127.5t-48.5 -155q-20 -93 -22 -169t12.5 -128t44 -76t74 -13.5t102.5 60t129 144.5zM1007 1298q-6 -28 -27 -54t-55 -45
q-15 -12 -33 -19l-38 -15t-40 -11t-40 -3q-38 0 -68 9q-15 4 -30.5 9t-29.5 10q-15 3 -28.5 8l-27.5 10q-13 4 -28.5 6.5t-30.5 2.5q-28 0 -41 -11.5t-32 -34.5l-32 10q34 72 99 104q61 37 143 37q38 0 70 -8q15 -3 29.5 -6.5t28.5 -8.5q13 -5 26.5 -9t26.5 -9
q13 -2 27.5 -4.5t31.5 -2.5q13 0 26.5 2.5t25.5 6.5q11 5 17.5 11t11.5 16z" />
    <glyph glyph-name=".notdef.049" unicode="&#xe8;" horiz-adv-x="700" 
d="M874 352q-37 -73 -93.5 -139.5t-127 -117.5t-152.5 -80t-169 -27q-97 3 -162.5 42.5t-104 104t-51.5 146.5t-3 170.5t40 177t78 164.5q58 90 133.5 145.5t151 78.5t143 15t111.5 -45q39 -32 59.5 -75t25 -91t-6 -98.5t-33.5 -95.5q-35 -64 -83 -108.5t-105.5 -71.5
t-122 -38.5t-130.5 -9.5q1 -37 8.5 -75.5t23 -73t39 -63t56.5 -44.5q39 -18 79 -16.5t78 16t73.5 40t67 54.5t58 59.5l46.5 55.5h73zM281 518q0 -6 -1 -11.5t-1 -10.5q81 -3 138.5 24t96.5 70.5t60 95.5t28.5 99.5t3 83.5t-17.5 46q-15 12 -38.5 10t-51.5 -17t-57.5 -44.5
t-57.5 -72.5q-32 -50 -58.5 -118t-43.5 -155zM475 1538l121 -389h-162l-178 391z" />
    <glyph glyph-name=".notdef.044" unicode="&#xea;" horiz-adv-x="731" 
d="M911 352q-60 -111 -122 -182.5t-130.5 -112.5t-144.5 -56t-164 -13q-97 3 -162.5 42.5t-104 104t-51.5 146.5t-3 170.5t40 177t78 164.5q58 90 133.5 145.5t151 78.5t143 15t111.5 -45q39 -32 60 -75t25.5 -91t-6.5 -98.5t-34 -95.5q-35 -64 -83 -108.5t-105.5 -71.5
t-121.5 -38.5t-130 -9.5q1 -37 8.5 -75.5t23 -73t39 -63t56.5 -44.5q59 -27 118.5 -20.5t114 38t103 81.5t84.5 110h73zM299 518q0 -6 -1 -11.5t-1 -10.5q81 -3 139 24t96.5 70.5t59.5 95.5t28.5 99.5t3 83.5t-17.5 46q-15 12 -38.5 10t-51.5 -17t-57.5 -44.5t-57.5 -72.5
q-32 -50 -58.5 -118t-43.5 -155zM898 1182l-125 -13l-121 168l-221 -176l-184 -12l366 383l109 8z" />
    <glyph glyph-name=".notdef.038" unicode="&#xec;" horiz-adv-x="506" 
d="M696 362q-30 -83 -79.5 -150t-108.5 -115t-123.5 -76.5t-124.5 -33t-111.5 15t-85 66.5t-44 122.5t11.5 183.5l135 649h283l-46.5 -237l-41 -201.5l-37 -182l-35.5 -178.5q-12 -61 3 -88.5t45.5 -29t71.5 19.5t81 56.5t74.5 82t51.5 96.5h80zM301 1538l121 -389h-162
l-178 391z" />
    <glyph glyph-name=".notdef.033" unicode="&#xf2;" horiz-adv-x="1032" 
d="M1174 733q-62 -56 -123 -98t-121 -70q-15 -117 -54.5 -210t-95.5 -162t-123.5 -115t-138 -69t-140.5 -22.5t-130 23.5q-72 26 -121 71t-78 102t-39 123.5t-2 137.5q9 75 35 149.5t68.5 142t100 124.5t128.5 98q47 28 101.5 46.5t110 25.5t109.5 0.5t102 -28.5t86.5 -61.5
t63.5 -98.5q13 -29 20 -65.5t7 -78.5q62 16 120 43.5t107 61.5zM684 526q-50 10 -97 32t-100 63l107 145q39 -36 88 -55q-12 57 -41 106t-67 73.5t-82.5 15t-88.5 -69.5q-26 -37 -49 -96t-39.5 -128t-24 -142.5t0 -138.5t31 -116.5t69.5 -77.5q37 -21 80 -12t83.5 54
t75 128.5t54.5 210.5v8zM617 1538l121 -389h-162l-178 391z" />
    <glyph glyph-name=".notdef.030" unicode="&#xf5;" horiz-adv-x="1018" 
d="M1180 733q-62 -56 -123 -98t-121 -70q-15 -117 -54.5 -210t-95 -162t-123 -115t-138.5 -69t-141 -22.5t-130 23.5q-72 26 -121 71t-78 102t-39 123.5t-2 137.5q9 75 35 149.5t68.5 142t100 124.5t128.5 98q48 28 102 46.5t109.5 25.5t110 0.5t102 -28.5t86.5 -61.5
t64 -98.5q12 -29 19 -65.5t7 -78.5q62 16 120 43.5t108 61.5zM690 526q-49 10 -96.5 32t-99.5 63l106 145q39 -36 88 -55q-12 57 -41 106t-67 73.5t-82.5 15t-87.5 -69.5q-26 -37 -49.5 -96t-40 -128t-24 -142.5t0 -138.5t31 -116.5t69.5 -77.5q37 -21 80 -12t83.5 54
t75 128.5t54.5 210.5v8zM870 1298q-6 -28 -27 -54t-55 -45q-15 -12 -33 -19l-38 -15t-40 -11t-40 -3q-38 0 -68 9q-15 4 -30.5 9t-29.5 10q-15 3 -28.5 8l-27.5 10q-13 4 -28.5 6.5t-30.5 2.5q-28 0 -41 -11.5t-32 -34.5l-32 10q34 72 99 104q61 37 143 37q38 0 70 -8
q15 -3 29.5 -6.5t28.5 -8.5q13 -5 26.5 -9t26.5 -9q13 -2 27.5 -4.5t31.5 -2.5q13 0 26.5 2.5t25.5 6.5q11 5 17.5 11t11.5 16z" />
    <glyph glyph-name=".notdef.022" unicode="&#xf9;" horiz-adv-x="956" 
d="M1155 354q-33 -93 -87.5 -165.5t-119 -120t-131.5 -68t-124 -10t-98.5 54t-53.5 125.5q-54 -67 -119 -111t-128.5 -61.5t-120 -6t-95 55.5t-53 123t7.5 197l131 657h278l-45 -234.5l-40.5 -208l-37 -188t-32.5 -174.5q-10 -56 -2 -84t28.5 -33t49 9t60 41.5t61.5 65.5
t53 81q1 5 2.5 13.5t6 32l13 68.5l23.5 124l37.5 197.5l54.5 289.5h274l-43 -233l-38 -205.5l-35 -187.5l-33 -179q-11 -59 1 -85.5t37.5 -28t60 19t68.5 55.5t63.5 80t45.5 94h80zM538 1538l121 -389h-162l-178 391z" />
    <glyph glyph-name=".notdef.101" unicode="&#x128;" horiz-adv-x="977" 
d="M778 0h-278l272 1364q-52 -5 -104 -12t-99.5 -19t-89 -30.5t-71.5 -45.5q-26 -24 -38 -64t-9.5 -89.5t19 -105.5t48.5 -111l-281 -125q-26 215 19.5 364t146.5 234q67 57 153.5 91.5t186 54t208.5 26.5t222 8zM1230 1875q-9 -40 -39 -76q-31 -37 -77 -63
q-22 -17 -47 -27.5t-54 -21.5q-54 -19 -112 -19q-55 0 -97 13q-21 5 -42.5 11.5t-41.5 14.5q-21 5 -40 12t-39 13q-19 6 -41 10t-43 4q-20 0 -33.5 -4t-24.5 -12.5t-21.5 -20.5l-23.5 -28l-45 14q25 51 59 87t80 60q86 52 203 52q28 0 52.5 -3t45.5 -8l42 -9.5t40 -12.5
l38.5 -12.5l37.5 -12.5l38 -6.5t44 -3.5q19 0 38 3.5t36 8.5q17 8 25 16.5t16 22.5z" />
    <glyph glyph-name=".notdef.035" unicode="&#x129;" horiz-adv-x="506" 
d="M696 362q-30 -83 -79.5 -150t-108.5 -115t-123.5 -76.5t-124.5 -33t-111.5 15t-85 66.5t-44 122.5t11.5 183.5l135 649h283l-46.5 -237l-41 -201.5l-37 -182l-35.5 -178.5q-12 -61 3 -88.5t45.5 -29t71.5 19.5t81 56.5t74.5 82t51.5 96.5h80zM593 1298q-6 -28 -27 -54
t-55 -45q-15 -12 -33 -19l-38 -15t-40 -11t-40 -3q-38 0 -68 9q-15 4 -30.5 9t-29.5 10q-15 3 -28.5 8l-27.5 10q-13 4 -28.5 6.5t-30.5 2.5q-28 0 -41 -11.5t-32 -34.5l-32 10q34 72 99 104q61 37 143 37q38 0 70 -8q15 -3 29.5 -6.5t28.5 -8.5q13 -5 26.5 -9t26.5 -9
q13 -2 27.5 -4.5t31.5 -2.5q13 0 26.5 2.5t25.5 6.5q11 5 17.5 11t11.5 16z" />
    <glyph glyph-name=".notdef.085" unicode="&#x168;" horiz-adv-x="1696" 
d="M1788 1540l-309 -1540h-283l45 190q-42 -65 -105 -110.5t-135.5 -65.5t-149.5 -10.5t-146 55.5q-91 52 -121 164q-14 57 -15 125.5t9 153.5q11 85 30 186.5t45 216.5l105 463q-50 -5 -98.5 -12t-93.5 -18.5t-85 -27.5t-71 -40q-31 -26 -46 -67t-14.5 -92t17 -108.5
t49.5 -115.5l-277 -125q-14 112 -8 203.5t29 165t62 131t91 102.5q69 54 154.5 89t183 54.5t205 27t219.5 7.5l-37 -160l-98 -471l-32.5 -154.5t-26.5 -131.5q-10 -57 -16 -107t-9 -92q-5 -40 -6.5 -71t6.5 -54q15 -44 47 -58.5t73.5 -6t88 35t90.5 64.5t81 82t60 88
l211 1034h281zM1692 1875q-9 -40 -39 -76q-31 -37 -77 -63q-22 -17 -47 -27.5t-54 -21.5q-54 -19 -112 -19q-55 0 -97 13q-21 5 -42.5 11.5t-41.5 14.5q-21 5 -40 12t-39 13q-19 6 -41 10t-43 4q-20 0 -33.5 -4t-24.5 -12.5t-21.5 -20.5l-23.5 -28l-45 14q25 51 59 87t80 60
q86 52 203 52q28 0 52.5 -3t45.5 -8l42 -9.5t40 -12.5l38.5 -12.5l37.5 -12.5l38 -6.5t44 -3.5q19 0 38 3.5t36 8.5q17 8 25 16.5t16 22.5z" />
    <glyph glyph-name=".notdef.019" unicode="&#x169;" horiz-adv-x="975" 
d="M1167 354q-33 -93 -87.5 -165.5t-119 -120t-131.5 -68t-124 -10t-98.5 54t-53.5 125.5q-54 -67 -119 -111t-128.5 -61.5t-120 -6t-95 55.5t-53 123t7.5 197l131 657h279l-45.5 -234.5l-41 -208l-37 -188t-32.5 -174.5q-10 -56 -2 -84t28.5 -33t49.5 9t60 41.5t61 65.5
t53 81q1 5 2.5 13.5t6 32l13 68.5l23.5 124l37.5 197.5l54.5 289.5h275l-43.5 -233l-38.5 -205.5l-35 -187.5l-33 -179q-11 -59 1 -85.5t37.5 -28t60 19t68.5 55.5t63.5 80t45.5 94h80zM848 1298q-6 -28 -27 -54t-55 -45q-15 -12 -33 -19l-38 -15t-40 -11t-40 -3
q-38 0 -68 9q-15 4 -30.5 9t-29.5 10q-15 3 -28.5 8l-27.5 10q-13 4 -28.5 6.5t-30.5 2.5q-28 0 -41 -11.5t-32 -34.5l-32 10q34 72 99 104q61 37 143 37q38 0 70 -8q15 -3 29.5 -6.5t28.5 -8.5q13 -5 26.5 -9t26.5 -9q13 -2 27.5 -4.5t31.5 -2.5q13 0 26.5 2.5t25.5 6.5
q11 5 17.5 11t11.5 16z" />
    <glyph glyph-name=".notdef.077" unicode="&#x1a0;" horiz-adv-x="1497" 
d="M1520 985q0 -48 -3 -100.5t-14 -112.5q-8 -57 -20.5 -111.5t-32.5 -113.5q-17 -56 -40.5 -110.5t-51.5 -106.5q-31 -53 -65 -99.5t-74 -87.5q-42 -40 -89 -71t-100 -56q-54 -24 -115 -35.5t-124 -11.5q-45 0 -84 5t-74 18q-69 18 -123 71q-50 46 -78 123q-14 41 -21.5 87
t-7.5 102q-2 43 0 88t9 96q13 101 38.5 192.5t61.5 178t81.5 169t98.5 165.5l324 36q-70 -101 -123.5 -193t-92 -177t-62.5 -164t-36 -154q-20 -120 -12 -213t36.5 -153t72.5 -82.5t97 -1t110.5 91.5t111.5 195q31 65 54 138.5t38 153.5q17 85 25 166t6 166
q-4 114 -46.5 187t-110 111.5t-152 46t-170.5 -9.5t-166.5 -55t-140.5 -91q-41 -38 -65.5 -86.5t-31.5 -101t3.5 -105t39.5 -97.5l-284 -131q-15 106 -2 198.5t48.5 170.5t90.5 142.5t123 115.5q76 56 164.5 94.5t182 57t188 17.5t182 -23t163.5 -65t133.5 -108.5
t91.5 -154.5t38 -201zM1514 1852q42 -16 62 -57t19 -94t-21.5 -110t-58 -105.5t-91.5 -80.5t-121 -35l-14 66q37 1 62 10.5t42.5 26t30 40t24.5 54.5q-11 0 -20 2.5t-18 7.5q-29 11 -50 31.5t-32.5 46.5t-12.5 55t11 58q10 28 29.5 49t45 32.5t55 12.5t58.5 -10z" />
    <glyph glyph-name=".notdef.011" unicode="&#x1a1;" horiz-adv-x="1018" 
d="M1180 733q-62 -56 -123 -98t-121 -70q-15 -117 -54.5 -210t-95 -162t-123 -115t-138.5 -69t-141 -22.5t-130 23.5q-72 26 -121 71t-78 102t-39 123.5t-2 137.5q9 75 35 149.5t68.5 142t100 124.5t128.5 98q48 28 102 46.5t109.5 25.5t110 0.5t102 -28.5t86.5 -61.5
t64 -98.5q12 -29 19 -65.5t7 -78.5q62 16 120 43.5t108 61.5zM690 526q-49 10 -96.5 32t-99.5 63l106 145q39 -36 88 -55q-12 57 -41 106t-67 73.5t-82.5 15t-87.5 -69.5q-26 -37 -49.5 -96t-40 -128t-24 -142.5t0 -138.5t31 -116.5t69.5 -77.5q37 -21 80 -12t83.5 54
t75 128.5t54.5 210.5v8zM1008 1249q31 -12 45 -41.5t13.5 -67.5t-15 -79t-42 -75.5t-66 -58t-87.5 -25.5l-10 48q27 1 45 7.5t30.5 18.5t21.5 29t18 39q-13 0 -27 7q-21 8 -36 22.5t-23.5 33.5t-9 40t7.5 42q7 20 21 35t32.5 23.5t39.5 9t42 -7.5z" />
    <glyph glyph-name=".notdef.083" unicode="&#x1af;" horiz-adv-x="1696" 
d="M1788 1540l-309 -1540h-283l45 190q-42 -65 -105 -110.5t-135.5 -65.5t-149.5 -10.5t-146 55.5q-91 52 -121 164q-14 57 -15 125.5t9 153.5q11 85 30 186.5t45 216.5l105 463q-50 -5 -98.5 -12t-93.5 -18.5t-85 -27.5t-71 -40q-31 -26 -46 -67t-14.5 -92t17 -108.5
t49.5 -115.5l-277 -125q-14 112 -8 203.5t29 165t62 131t91 102.5q69 54 154.5 89t183 54.5t205 27t219.5 7.5l-37 -160l-98 -471l-32.5 -154.5t-26.5 -131.5q-10 -57 -16 -107t-9 -92q-5 -40 -6.5 -71t6.5 -54q15 -44 47 -58.5t73.5 -6t88 35t90.5 64.5t81 82t60 88
l211 1034h281zM1964 1852q43 -16 62.5 -57t18.5 -94t-21.5 -110t-58 -105.5t-91.5 -80.5t-121 -35l-14 66q37 1 62 10.5t42.5 26t30 40t24.5 54.5q-11 0 -20 2.5t-18 7.5q-29 11 -50 31.5t-32.5 46.5t-12.5 55t11 58q10 28 29.5 49t45 32.5t55 12.5t58.5 -10z" />
    <glyph glyph-name=".notdef.017" unicode="&#x1b0;" horiz-adv-x="975" 
d="M1167 354q-33 -93 -87.5 -165.5t-119 -120t-131.5 -68t-124 -10t-98.5 54t-53.5 125.5q-54 -67 -119 -111t-128.5 -61.5t-120 -6t-95 55.5t-53 123t7.5 197l131 657h279l-45.5 -234.5l-41 -208l-37 -188t-32.5 -174.5q-10 -56 -2 -84t28.5 -33t49.5 9t60 41.5t61 65.5
t53 81q1 5 2.5 13.5t6 32l13 68.5l23.5 124l37.5 197.5l54.5 289.5h275l-43.5 -233l-38.5 -205.5l-35 -187.5l-33 -179q-11 -59 1 -85.5t37.5 -28t60 19t68.5 55.5t63.5 80t45.5 94h80zM1090 1249q31 -12 45 -41.5t13.5 -67.5t-15 -79t-42 -75.5t-66 -58t-87.5 -25.5l-10 48
q27 1 45 7.5t30.5 18.5t21.5 29t18 39q-13 0 -27 7q-21 8 -36 22.5t-23.5 33.5t-9 40t7.5 42q7 20 21 35t32.5 23.5t39.5 9t42 -7.5z" />
    <glyph glyph-name=".notdef.110" unicode="&#x1ea0;" horiz-adv-x="1315" 
d="M362 1348q97 77 221.5 117t265 56.5t290.5 17.5t299 1l-154 -768l-154 -772h-286l92 420h-469l-352 -418h-197l290.5 341.5l294 345.5l294.5 346.5l293 344.5q-38 -2 -86 -3.5t-101.5 -5t-110.5 -9t-112 -16.5t-105.5 -28t-91.5 -42q-39 -25 -67 -66t-41 -93t-9.5 -111.5
t27.5 -120.5l-276 -127q12 214 75 359.5t170 230.5zM975 594l63 287.5l64 285.5l-486 -573h359zM677 -278q0 -37 -12 -64.5t-37 -52.5q-45 -51 -117 -51q-34 0 -64 12.5t-54 38.5q-25 25 -36 52.5t-11 64.5q0 34 11 64t36 53q24 21 54 34t64 13q36 0 65 -13t52 -34
q25 -23 37 -53t12 -64z" />
    <glyph glyph-name=".notdef.062" unicode="&#x1ea1;" horiz-adv-x="1133" 
d="M1319 350q-35 -94 -96 -167t-132 -120t-145 -65.5t-135.5 -4.5t-103 63t-48.5 137q-54 -81 -125.5 -130t-146.5 -67t-146.5 -4t-125.5 58.5t-83 120t-20 181.5q7 82 26 163.5t50 155t76 137t104.5 110.5t134 75t166.5 31h518l-16 -78l-44 -213l-38.5 -181.5l-35.5 -167
l-35 -169.5q-12 -58 3 -84t45 -27t70 19t79.5 54.5t73 79.5t50.5 93h80zM764 836q-31 57 -71 78t-82.5 12.5t-85.5 -43.5t-81.5 -90.5t-69 -127.5t-48.5 -155q-20 -93 -22 -169t12.5 -128t44 -76t74 -13.5t102.5 60t129 144.5zM375 -280q0 28 10.5 52.5t29 43t43 29.5
t52.5 11t52.5 -11t43 -29.5t29.5 -43t11 -52.5t-11 -52.5t-29.5 -43t-43 -29t-52.5 -10.5t-52.5 10.5t-43 29t-29 43t-10.5 52.5z" />
    <glyph glyph-name=".notdef.108" unicode="&#x1ea2;" horiz-adv-x="1315" 
d="M362 1348q97 77 221.5 117t265 56.5t290.5 17.5t299 1l-154 -768l-154 -772h-286l92 420h-469l-352 -418h-197l290.5 341.5l294 345.5l294.5 346.5l293 344.5q-38 -2 -86 -3.5t-101.5 -5t-110.5 -9t-112 -16.5t-105.5 -28t-91.5 -42q-39 -25 -67 -66t-41 -93t-9.5 -111.5
t27.5 -120.5l-276 -127q12 214 75 359.5t170 230.5zM975 594l63 287.5l64 285.5l-486 -573h359zM1197 1661q6 32 17.5 58.5t26 49.5t30.5 42l30 36l29 36.5t25.5 40.5t7.5 42t-23 42q-17 20 -48 20q-21 0 -38.5 -10.5t-28.5 -27t-13.5 -37.5t8.5 -41l-29.5 -17.5l-22 -13
l-21.5 -13.5t-26 -18q-7 46 2 88.5t33 75.5t61.5 53t87.5 19q54 -1 87.5 -21t49.5 -44q13 -24 15.5 -49.5t-3.5 -50t-20 -46.5t-33 -40l-51.5 -50.5t-37 -39.5t-27 -38t-20.5 -46h-68z" />
    <glyph glyph-name=".notdef.064" unicode="&#x1ea3;" horiz-adv-x="1133" 
d="M1319 350q-35 -94 -96 -167t-132 -120t-145 -65.5t-135.5 -4.5t-103 63t-48.5 137q-54 -81 -125.5 -130t-146.5 -67t-146.5 -4t-125.5 58.5t-83 120t-20 181.5q7 82 26 163.5t50 155t76 137t104.5 110.5t134 75t166.5 31h518l-16 -78l-44 -213l-38.5 -181.5l-35.5 -167
l-35 -169.5q-12 -58 3 -84t45 -27t70 19t79.5 54.5t73 79.5t50.5 93h80zM764 836q-31 57 -71 78t-82.5 12.5t-85.5 -43.5t-81.5 -90.5t-69 -127.5t-48.5 -155q-20 -93 -22 -169t12.5 -128t44 -76t74 -13.5t102.5 60t129 144.5zM606 1169q6 32 17.5 58.5t26 49.5t30.5 42
l30 36l29 36.5t25.5 40.5t7.5 42t-23 42q-17 20 -48 20q-21 0 -38.5 -10.5t-28.5 -27t-13.5 -37.5t8.5 -41l-29.5 -17.5l-22 -13l-21.5 -13.5t-26 -18q-7 46 2 88.5t33 75.5t61.5 53t87.5 19q54 -1 87.5 -21t49.5 -44q13 -24 15.5 -49.5t-3.5 -50t-20 -46.5t-33 -40
l-51.5 -50.5t-37 -39.5t-27 -38t-20.5 -46h-68z" />
    <glyph glyph-name=".notdef.059" unicode="&#x1ea5;" 
d="M1239 350q-17 -48 -50.5 -93t-73 -79.5t-79.5 -54.5t-70 -19t-45 27t-3 84l35 169.5l35.5 167l38.5 181.5l44 213l16 78h-518q-92 -3 -166.5 -31t-134 -75t-104.5 -110.5t-76 -137t-50 -155t-26 -163.5q-9 -106 20 -181.5t83 -120t125.5 -58.5t146.5 4t146.5 67
t125.5 130q7 -88 48.5 -137t103 -63t135.5 4.5t145 65.5t132 120t96 167h-80zM672 365q-2 -11 -3 -19.5t-3 -17.5q-71 -95 -129 -144.5t-102.5 -60t-74 13.5t-44 76t-12.5 128t22 169q18 83 48.5 155t69 127.5t81.5 90.5t85.5 43.5t82.5 -12.5t71 -78zM803 1540l-109 -8
l-366 -383l184 12l221 176l121 -168l125 13zM1305 1760l-178 -391h-162l121 389z" />
    <glyph glyph-name=".notdef.060" unicode="&#x1ea7;" 
d="M1239 350q-17 -48 -50.5 -93t-73 -79.5t-79.5 -54.5t-70 -19t-45 27t-3 84l35 169.5l35.5 167l38.5 181.5l44 213l16 78h-518q-92 -3 -166.5 -31t-134 -75t-104.5 -110.5t-76 -137t-50 -155t-26 -163.5q-9 -106 20 -181.5t83 -120t125.5 -58.5t146.5 4t146.5 67
t125.5 130q7 -88 48.5 -137t103 -63t135.5 4.5t145 65.5t132 120t96 167h-80zM672 365q-2 -11 -3 -19.5t-3 -17.5q-71 -95 -129 -144.5t-102.5 -60t-74 13.5t-44 76t-12.5 128t22 169q18 83 48.5 155t69 127.5t81.5 90.5t85.5 43.5t82.5 -12.5t71 -78zM803 1540l-109 -8
l-366 -383l184 12l221 176l121 -168l125 13zM327 1758l121 -389h-162l-178 391z" />
    <glyph glyph-name=".notdef.058" unicode="&#x1ea9;" 
d="M1239 350q-17 -48 -50.5 -93t-73 -79.5t-79.5 -54.5t-70 -19t-45 27t-3 84l35 169.5l35.5 167l38.5 181.5l44 213l16 78h-518q-92 -3 -166.5 -31t-134 -75t-104.5 -110.5t-76 -137t-50 -155t-26 -163.5q-9 -106 20 -181.5t83 -120t125.5 -58.5t146.5 4t146.5 67
t125.5 130q7 -88 48.5 -137t103 -63t135.5 4.5t145 65.5t132 120t96 167h-80zM672 365q-2 -11 -3 -19.5t-3 -17.5q-71 -95 -129 -144.5t-102.5 -60t-74 13.5t-44 76t-12.5 128t22 169q18 83 48.5 155t69 127.5t81.5 90.5t85.5 43.5t82.5 -12.5t71 -78zM803 1540l-109 -8
l-366 -383l184 12l221 176l121 -168l125 13zM979 1371q6 32 17.5 58.5t26 49.5t30.5 42l30 36l29 36.5t25.5 40.5t7.5 42t-23 42q-17 20 -48 20q-21 0 -38.5 -10.5t-28.5 -27t-13.5 -37.5t8.5 -41l-29.5 -17.5l-22 -13l-21.5 -13.5t-26 -18q-7 46 2 88.5t33 75.5t61.5 53
t87.5 19q54 -1 87.5 -21t49.5 -44q13 -24 15.5 -49.5t-3.5 -50t-20 -46.5t-33 -40l-51.5 -50.5t-37 -39.5t-27 -38t-20.5 -46h-68z" />
    <glyph glyph-name=".notdef.057" unicode="&#x1eab;" 
d="M1239 350q-17 -48 -50.5 -93t-73 -79.5t-79.5 -54.5t-70 -19t-45 27t-3 84l35 169.5l35.5 167l38.5 181.5l44 213l16 78h-518q-92 -3 -166.5 -31t-134 -75t-104.5 -110.5t-76 -137t-50 -155t-26 -163.5q-9 -106 20 -181.5t83 -120t125.5 -58.5t146.5 4t146.5 67
t125.5 130q7 -88 48.5 -137t103 -63t135.5 4.5t145 65.5t132 120t96 167h-80zM672 365q-2 -11 -3 -19.5t-3 -17.5q-71 -95 -129 -144.5t-102.5 -60t-74 13.5t-44 76t-12.5 128t22 169q18 83 48.5 155t69 127.5t81.5 90.5t85.5 43.5t82.5 -12.5t71 -78zM803 1540l-109 -8
l-366 -383l184 12l221 176l121 -168l125 13zM1027 1756q-6 -28 -27 -54t-55 -45q-15 -12 -33 -19l-38 -15t-40 -11t-40 -3q-38 0 -68 9q-15 4 -30.5 9t-29.5 10q-15 3 -28.5 8l-27.5 10q-13 4 -28.5 6.5t-30.5 2.5q-28 0 -41 -11.5t-32 -34.5l-32 10q34 72 99 104
q61 37 143 37q38 0 70 -8q15 -3 29.5 -6.5t28.5 -8.5q13 -5 26.5 -9t26.5 -9q13 -2 27.5 -4.5t31.5 -2.5q13 0 26.5 2.5t25.5 6.5q11 5 17.5 11t11.5 16z" />
    <glyph glyph-name=".notdef.056" unicode="&#x1ead;" 
d="M1319 350q-35 -94 -96 -167t-132 -120t-145 -65.5t-135.5 -4.5t-103 63t-48.5 137q-54 -81 -125.5 -130t-146.5 -67t-146.5 -4t-125.5 58.5t-83 120t-20 181.5q7 82 26 163.5t50 155t76 137t104.5 110.5t134 75t166.5 31h518l-16 -78l-44 -213l-38.5 -181.5l-35.5 -167
l-35 -169.5q-12 -58 3 -84t45 -27t70 19t79.5 54.5t73 79.5t50.5 93h80zM764 836q-31 57 -71 78t-82.5 12.5t-85.5 -43.5t-81.5 -90.5t-69 -127.5t-48.5 -155q-20 -93 -22 -169t12.5 -128t44 -76t74 -13.5t102.5 60t129 144.5q2 9 3 17.5t3 19.5zM979 1182l-125 -13
l-121 168l-221 -176l-184 -12l366 383l109 8zM363 -280q0 28 10.5 52.5t29 43t43 29.5t52.5 11t52.5 -11t43 -29.5t29.5 -43t11 -52.5t-11 -52.5t-29.5 -43t-43 -29t-52.5 -10.5t-52.5 10.5t-43 29t-29 43t-10.5 52.5z" />
    <glyph glyph-name=".notdef.127" unicode="&#x1eb8;" horiz-adv-x="1327" 
d="M1442 1358h-432l-78 -404h301l-53 -180h-283l-123 -594h457l-51 -180h-723l276 1364q-51 -5 -101.5 -11t-97 -17.5t-86.5 -28.5t-69 -43t-44 -66.5t-14.5 -90t17 -105t49.5 -111.5l-276 -129q-15 113 -9 207t29.5 170t63.5 135t94 102q93 68 210 103t257 51q60 5 111 6.5
t108 1.5q47 0 111 0.5t135 0.5t143.5 0.5t136.5 0.5zM969 -278q0 -37 -12 -64.5t-37 -52.5q-45 -51 -117 -51q-34 0 -64 12.5t-54 38.5q-25 25 -36 52.5t-11 64.5q0 34 11 64t36 53q24 21 54 34t64 13q36 0 65 -13t52 -34q25 -23 37 -53t12 -64z" />
    <glyph glyph-name=".notdef.045" unicode="&#x1eb9;" horiz-adv-x="731" 
d="M911 352q-60 -111 -122 -182.5t-130.5 -112.5t-144.5 -56t-164 -13q-97 3 -162.5 42.5t-104 104t-51.5 146.5t-3 170.5t40 177t78 164.5q58 90 133.5 145.5t151 78.5t143 15t111.5 -45q39 -32 60 -75t25.5 -91t-6.5 -98.5t-34 -95.5q-35 -64 -83 -108.5t-105.5 -71.5
t-121.5 -38.5t-130 -9.5q1 -37 8.5 -75.5t23 -73t39 -63t56.5 -44.5q59 -27 118.5 -20.5t114 38t103 81.5t84.5 110h73zM299 518q0 -6 -1 -11.5t-1 -10.5q81 -3 139 24t96.5 70.5t59.5 95.5t28.5 99.5t3 83.5t-17.5 46q-15 12 -38.5 10t-51.5 -17t-57.5 -44.5t-57.5 -72.5
q-32 -50 -58.5 -118t-43.5 -155zM258 -280q0 28 10.5 52.5t29 43t43 29.5t52.5 11t52.5 -11t43 -29.5t29.5 -43t11 -52.5t-11 -52.5t-29.5 -43t-43 -29t-52.5 -10.5t-52.5 10.5t-43 29t-29 43t-10.5 52.5z" />
    <glyph glyph-name=".notdef.047" unicode="&#x1ebb;" horiz-adv-x="731" 
d="M838 352q-36 -60 -84.5 -110t-103 -81.5t-114 -38t-118.5 20.5q-33 16 -56.5 44.5t-39 63t-23 73t-8.5 75.5q66 -2 130 9.5t121.5 38.5t105.5 71.5t83 108.5q23 45 34 95.5t6.5 98.5t-25.5 91t-60 75q-44 37 -111.5 45t-143 -15t-151 -78.5t-133.5 -145.5
q-48 -76 -78 -164.5t-40 -177t3 -170.5t51.5 -146.5t104 -104t162.5 -42.5q88 -2 164 13t144.5 56t130.5 112.5t122 182.5h-73zM299 518q17 87 43.5 155t58.5 118q28 43 57.5 72.5t57.5 44.5t51.5 17t38.5 -10q13 -10 17.5 -46t-3 -83.5t-28.5 -99.5t-59.5 -95.5
t-96.5 -70.5t-139 -24q0 5 1 10.5t1 11.5zM479 1169q6 32 17.5 58.5t26 49.5t30.5 42l30 36l29 36.5t25.5 40.5t7.5 42t-23 42q-17 20 -48 20q-21 0 -38.5 -10.5t-28.5 -27t-13.5 -37.5t8.5 -41l-29.5 -17.5l-22 -13l-21.5 -13.5t-26 -18q-7 46 2 88.5t33 75.5t61.5 53
t87.5 19q54 -1 87.5 -21t49.5 -44q13 -24 15.5 -49.5t-3.5 -50t-20 -46.5t-33 -40l-51.5 -50.5t-37 -39.5t-27 -38t-20.5 -46h-68z" />
    <glyph glyph-name=".notdef.046" unicode="&#x1ebd;" horiz-adv-x="731" 
d="M838 352q-36 -60 -84.5 -110t-103 -81.5t-114 -38t-118.5 20.5q-33 16 -56.5 44.5t-39 63t-23 73t-8.5 75.5q66 -2 130 9.5t121.5 38.5t105.5 71.5t83 108.5q23 45 34 95.5t6.5 98.5t-25.5 91t-60 75q-44 37 -111.5 45t-143 -15t-151 -78.5t-133.5 -145.5
q-48 -76 -78 -164.5t-40 -177t3 -170.5t51.5 -146.5t104 -104t162.5 -42.5q88 -2 164 13t144.5 56t130.5 112.5t122 182.5h-73zM299 518q17 87 43.5 155t58.5 118q28 43 57.5 72.5t57.5 44.5t51.5 17t38.5 -10q13 -10 17.5 -46t-3 -83.5t-28.5 -99.5t-59.5 -95.5
t-96.5 -70.5t-139 -24q0 5 1 10.5t1 11.5zM792 1298q-6 -28 -27 -54t-55 -45q-15 -12 -33 -19l-38 -15t-40 -11t-40 -3q-38 0 -68 9q-15 4 -30.5 9t-29.5 10q-15 3 -28.5 8l-27.5 10q-13 4 -28.5 6.5t-30.5 2.5q-28 0 -41 -11.5t-32 -34.5l-32 10q34 72 99 104q61 37 143 37
q38 0 70 -8q15 -3 29.5 -6.5t28.5 -8.5q13 -5 26.5 -9t26.5 -9q13 -2 27.5 -4.5t31.5 -2.5q13 0 26.5 2.5t25.5 6.5q11 5 17.5 11t11.5 16z" />
    <glyph glyph-name=".notdef.133" horiz-adv-x="731" 
d="M911 352q-60 -111 -122 -182.5t-130.5 -112.5t-144.5 -56t-164 -13q-97 3 -162.5 42.5t-104 104t-51.5 146.5t-3 170.5t40 177t78 164.5q58 90 133.5 145.5t151 78.5t143 15t111.5 -45q39 -32 60 -75t25.5 -91t-6.5 -98.5t-34 -95.5q-35 -64 -83 -108.5t-105.5 -71.5
t-121.5 -38.5t-130 -9.5q1 -37 8.5 -75.5t23 -73t39 -63t56.5 -44.5q59 -27 118.5 -20.5t114 38t103 81.5t84.5 110h73zM299 518q0 -6 -1 -11.5t-1 -10.5q81 -3 139 24t96.5 70.5t59.5 95.5t28.5 99.5t3 83.5t-17.5 46q-15 12 -38.5 10t-51.5 -17t-57.5 -44.5t-57.5 -72.5
q-32 -50 -58.5 -118t-43.5 -155zM898 1182l-125 -13l-121 168l-221 -176l-184 -12l366 383l109 8z" />
    <glyph glyph-name=".notdef.125" unicode="&#x1eba;" horiz-adv-x="1327" 
d="M1501 1540q-64 0 -136.5 -0.5t-143.5 -0.5t-135 -0.5t-111 -0.5q-57 0 -108 -1.5t-111 -6.5q-140 -16 -257 -51t-210 -103q-54 -43 -94 -102t-63.5 -135t-29.5 -170t9 -207l276 129q-33 56 -49.5 111.5t-17 105t14.5 90t44 66.5t69 43t86.5 28.5t97 17.5t101.5 11
l-276 -1364h723l51 180h-457l123 594h283l53 180h-301l78 404h432zM935 1661q6 32 17.5 58.5t26 49.5t30.5 42l30 36l29 36.5t25.5 40.5t7.5 42t-23 42q-17 20 -48 20q-21 0 -38.5 -10.5t-28.5 -27t-13.5 -37.5t8.5 -41l-29.5 -17.5l-22 -13l-21.5 -13.5t-26 -18
q-7 46 2 88.5t33 75.5t61.5 53t87.5 19q54 -1 87.5 -21t49.5 -44q13 -24 15.5 -49.5t-3.5 -50t-20 -46.5t-33 -40l-51.5 -50.5t-37 -39.5t-27 -38t-20.5 -46h-68z" />
    <glyph glyph-name=".notdef.126" unicode="&#x1ebc;" horiz-adv-x="1327" 
d="M1501 1540q-64 0 -136.5 -0.5t-143.5 -0.5t-135 -0.5t-111 -0.5q-57 0 -108 -1.5t-111 -6.5q-140 -16 -257 -51t-210 -103q-54 -43 -94 -102t-63.5 -135t-29.5 -170t9 -207l276 129q-33 56 -49.5 111.5t-17 105t14.5 90t44 66.5t69 43t86.5 28.5t97 17.5t101.5 11
l-276 -1364h723l51 180h-457l123 594h283l53 180h-301l78 404h432zM1461 1875q-9 -40 -39 -76q-31 -37 -77 -63q-22 -17 -47 -27.5t-54 -21.5q-54 -19 -112 -19q-55 0 -97 13q-21 5 -42.5 11.5t-41.5 14.5q-21 5 -40 12t-39 13q-19 6 -41 10t-43 4q-20 0 -33.5 -4
t-24.5 -12.5t-21.5 -20.5l-23.5 -28l-45 14q25 51 59 87t80 60q86 52 203 52q28 0 52.5 -3t45.5 -8l42 -9.5t40 -12.5l38.5 -12.5l37.5 -12.5l38 -6.5t44 -3.5q19 0 38 3.5t36 8.5q17 8 25 16.5t16 22.5z" />
    <glyph glyph-name=".notdef.134" horiz-adv-x="1339" 
d="M1501 1540l-59 -182h-432l-78 -404h301l-53 -180h-283l-123 -594h457l-51 -180h-723l276 1364q-51 -5 -101.5 -11t-97 -17.5t-86.5 -28.5t-69 -43t-44 -66.5t-14.5 -90t17 -105t49.5 -111.5l-276 -129q-15 113 -9 207t29.5 170t63.5 135t94 102q93 68 210 103t257 51
q60 5 111 6.5t108 1.5q47 0 111 0.5t135 0.5t143.5 0.5t136.5 0.5zM1223 2048l159 -321l-110 -11l-111 154l-197 -160l-165 -12l327 340z" />
    <glyph glyph-name=".notdef.053" unicode="&#x1eaf;" 
d="M1239 350q-17 -48 -50.5 -93t-73 -79.5t-79.5 -54.5t-70 -19t-45 27t-3 84l35 169.5l35.5 167l38.5 181.5l44 213l16 78h-518q-92 -3 -166.5 -31t-134 -75t-104.5 -110.5t-76 -137t-50 -155t-26 -163.5q-9 -106 20 -181.5t83 -120t125.5 -58.5t146.5 4t146.5 67
t125.5 130q7 -88 48.5 -137t103 -63t135.5 4.5t145 65.5t132 120t96 167h-80zM672 365q-2 -11 -3 -19.5t-3 -17.5q-71 -95 -129 -144.5t-102.5 -60t-74 13.5t-44 76t-12.5 128t22 169q18 83 48.5 155t69 127.5t81.5 90.5t85.5 43.5t82.5 -12.5t71 -78zM621 1149l109 8
l366 383l-184 -12l-221 -176l-121 168l-125 -13zM1417 1760l-178 -391h-162l121 389z" />
    <glyph glyph-name=".notdef.054" unicode="&#x1eb1;" 
d="M1239 350q-17 -48 -50.5 -93t-73 -79.5t-79.5 -54.5t-70 -19t-45 27t-3 84l35 169.5l35.5 167l38.5 181.5l44 213l16 78h-518q-92 -3 -166.5 -31t-134 -75t-104.5 -110.5t-76 -137t-50 -155t-26 -163.5q-9 -106 20 -181.5t83 -120t125.5 -58.5t146.5 4t146.5 67
t125.5 130q7 -88 48.5 -137t103 -63t135.5 4.5t145 65.5t132 120t96 167h-80zM672 365q-2 -11 -3 -19.5t-3 -17.5q-71 -95 -129 -144.5t-102.5 -60t-74 13.5t-44 76t-12.5 128t22 169q18 83 48.5 155t69 127.5t81.5 90.5t85.5 43.5t82.5 -12.5t71 -78zM621 1149l109 8
l366 383l-184 -12l-221 -176l-121 168l-125 -13zM296 1758l121 -389h-162l-178 391z" />
    <glyph glyph-name=".notdef.052" unicode="&#x1eb3;" 
d="M1239 350q-17 -48 -50.5 -93t-73 -79.5t-79.5 -54.5t-70 -19t-45 27t-3 84l35 169.5l35.5 167l38.5 181.5l44 213l16 78h-518q-92 -3 -166.5 -31t-134 -75t-104.5 -110.5t-76 -137t-50 -155t-26 -163.5q-9 -106 20 -181.5t83 -120t125.5 -58.5t146.5 4t146.5 67
t125.5 130q7 -88 48.5 -137t103 -63t135.5 4.5t145 65.5t132 120t96 167h-80zM672 365q-2 -11 -3 -19.5t-3 -17.5q-71 -95 -129 -144.5t-102.5 -60t-74 13.5t-44 76t-12.5 128t22 169q18 83 48.5 155t69 127.5t81.5 90.5t85.5 43.5t82.5 -12.5t71 -78zM621 1149l109 8
l366 383l-184 -12l-221 -176l-121 168l-125 -13zM698 1529q6 32 17.5 58.5t26 49.5t30.5 42l30 36l29 36.5t25.5 40.5t7.5 42t-23 42q-17 20 -48 20q-21 0 -38.5 -10.5t-28.5 -27t-13.5 -37.5t8.5 -41l-29.5 -17.5l-22 -13l-21.5 -13.5t-26 -18q-7 46 2 88.5t33 75.5
t61.5 53t87.5 19q54 -1 87.5 -21t49.5 -44q13 -24 15.5 -49.5t-3.5 -50t-20 -46.5t-33 -40l-51.5 -50.5t-37 -39.5t-27 -38t-20.5 -46h-68z" />
    <glyph glyph-name=".notdef.051" unicode="&#x1eb5;" 
d="M1239 350q-17 -48 -50.5 -93t-73 -79.5t-79.5 -54.5t-70 -19t-45 27t-3 84l35 169.5l35.5 167l38.5 181.5l44 213l16 78h-518q-92 -3 -166.5 -31t-134 -75t-104.5 -110.5t-76 -137t-50 -155t-26 -163.5q-9 -106 20 -181.5t83 -120t125.5 -58.5t146.5 4t146.5 67
t125.5 130q7 -88 48.5 -137t103 -63t135.5 4.5t145 65.5t132 120t96 167h-80zM672 365q-2 -11 -3 -19.5t-3 -17.5q-71 -95 -129 -144.5t-102.5 -60t-74 13.5t-44 76t-12.5 128t22 169q18 83 48.5 155t69 127.5t81.5 90.5t85.5 43.5t82.5 -12.5t71 -78zM621 1149l109 8
l366 383l-184 -12l-221 -176l-121 168l-125 -13zM1027 1756q-6 -28 -27 -54t-55 -45q-15 -12 -33 -19l-38 -15t-40 -11t-40 -3q-38 0 -68 9q-15 4 -30.5 9t-29.5 10q-15 3 -28.5 8l-27.5 10q-13 4 -28.5 6.5t-30.5 2.5q-28 0 -41 -11.5t-32 -34.5l-32 10q34 72 99 104
q61 37 143 37q38 0 70 -8q15 -3 29.5 -6.5t28.5 -8.5q13 -5 26.5 -9t26.5 -9q13 -2 27.5 -4.5t31.5 -2.5q13 0 26.5 2.5t25.5 6.5q11 5 17.5 11t11.5 16z" />
    <glyph glyph-name=".notdef.050" unicode="&#x1eb7;" 
d="M1319 350q-35 -94 -96 -167t-132 -120t-145 -65.5t-135.5 -4.5t-103 63t-48.5 137q-54 -81 -125.5 -130t-146.5 -67t-146.5 -4t-125.5 58.5t-83 120t-20 181.5q7 82 26 163.5t50 155t76 137t104.5 110.5t134 75t166.5 31h518l-16 -78l-44 -213l-38.5 -181.5l-35.5 -167
l-35 -169.5q-12 -58 3 -84t45 -27t70 19t79.5 54.5t73 79.5t50.5 93h80zM764 836q-31 57 -71 78t-82.5 12.5t-85.5 -43.5t-81.5 -90.5t-69 -127.5t-48.5 -155q-20 -93 -22 -169t12.5 -128t44 -76t74 -13.5t102.5 60t129 144.5q2 9 3 17.5t3 19.5zM445 1507l125 13l121 -168
l221 176l184 12l-366 -383l-109 -8zM375 -280q0 28 10.5 52.5t29 43t43 29.5t52.5 11t52.5 -11t43 -29.5t29.5 -43t11 -52.5t-11 -52.5t-29.5 -43t-43 -29t-52.5 -10.5t-52.5 10.5t-43 29t-29 43t-10.5 52.5z" />
    <glyph glyph-name=".notdef.120" unicode="&#x1eb2;" horiz-adv-x="1309" 
d="M1335 1657l108 8l367 383l-185 -12l-221 -176l-121 168l-125 -13zM362 1348q-107 -85 -170 -230.5t-75 -359.5l276 127q-24 61 -27.5 120.5t9.5 111.5t41 93t67 66q41 25 91.5 42t105.5 28t112 16.5t110.5 9t101.5 5t86 3.5l-293 -344.5l-294.5 -346.5l-294 -345.5
l-290.5 -341.5h197l352 418h469l-92 -420h286l154 772l154 768q-149 0 -299 -1t-290.5 -17.5t-265 -56.5t-221.5 -117zM975 594h-359l486 573l-64 -285.5zM1404 2107q6 32 17.5 58.5t26 49.5t30.5 42l30 36l29 36.5t25.5 40.5t7.5 42t-23 42q-17 20 -48 20
q-21 0 -38.5 -10.5t-28.5 -27t-13.5 -37.5t8.5 -41l-29.5 -17.5l-22 -13l-21.5 -13.5t-26 -18q-7 46 2 88.5t33 75.5t61.5 53t87.5 19q54 -1 87.5 -21t49.5 -44q13 -24 15.5 -49.5t-3.5 -50t-20 -46.5t-33 -40l-51.5 -50.5t-37 -39.5t-27 -38t-20.5 -46h-68z" />
    <glyph glyph-name=".notdef.121" unicode="&#x1eb4;" horiz-adv-x="1309" 
d="M1335 1657l108 8l367 383l-185 -12l-221 -176l-121 168l-125 -13zM362 1348q-107 -85 -170 -230.5t-75 -359.5l276 127q-24 61 -27.5 120.5t9.5 111.5t41 93t67 66q41 25 91.5 42t105.5 28t112 16.5t110.5 9t101.5 5t86 3.5l-293 -344.5l-294.5 -346.5l-294 -345.5
l-290.5 -341.5h197l352 418h469l-92 -420h286l154 772l154 768q-149 0 -299 -1t-290.5 -17.5t-265 -56.5t-221.5 -117zM975 594h-359l486 573l-64 -285.5zM1908 2315q-9 -40 -39 -76q-31 -37 -77 -63q-22 -17 -47 -27.5t-54 -21.5q-54 -19 -112 -19q-55 0 -97 13
q-21 5 -42.5 11.5t-41.5 14.5q-21 5 -40 12t-39 13q-19 6 -41 10t-43 4q-20 0 -33.5 -4t-24.5 -12.5t-21.5 -20.5l-23.5 -28l-45 14q25 51 59 87t80 60q86 52 203 52q28 0 52.5 -3t45.5 -8l42 -9.5t40 -12.5l38.5 -12.5l37.5 -12.5l38 -6.5t44 -3.5q19 0 38 3.5t36 8.5
q17 8 25 16.5t16 22.5z" />
    <glyph glyph-name=".notdef.122" unicode="&#x1eb6;" horiz-adv-x="1309" 
d="M1158 2015l125 13l121 -168l221 176l185 12l-367 -383l-108 -8zM362 1348q97 77 221.5 117t265 56.5t290.5 17.5t299 1l-154 -768l-154 -772h-286l92 420h-469l-352 -418h-197l290.5 341.5l294 345.5l294.5 346.5l293 344.5q-38 -2 -86 -3.5t-101.5 -5t-110.5 -9
t-112 -16.5t-105.5 -28t-91.5 -42q-39 -25 -67 -66t-41 -93t-9.5 -111.5t27.5 -120.5l-276 -127q12 214 75 359.5t170 230.5zM975 594l63 287.5l64 285.5l-486 -573h359zM677 -278q0 -37 -12 -64.5t-37 -52.5q-45 -51 -117 -51q-34 0 -64 12.5t-54 38.5q-25 25 -36 52.5
t-11 64.5q0 34 11 64t36 53q24 21 54 34t64 13q36 0 65 -13t52 -34q25 -23 37 -53t12 -64z" />
    <glyph glyph-name=".notdef.118" unicode="&#x1eb0;" horiz-adv-x="1309" 
d="M1335 1657l108 8l367 383l-185 -12l-221 -176l-121 168l-125 -13zM362 1348q-107 -85 -170 -230.5t-75 -359.5l276 127q-24 61 -27.5 120.5t9.5 111.5t41 93t67 66q41 25 91.5 42t105.5 28t112 16.5t110.5 9t101.5 5t86 3.5l-293 -344.5l-294.5 -346.5l-294 -345.5
l-290.5 -341.5h197l352 418h469l-92 -420h286l154 772l154 768q-149 0 -299 -1t-290.5 -17.5t-265 -56.5t-221.5 -117zM975 594h-359l486 573l-64 -285.5zM987 2355l121 -389h-162l-178 391z" />
    <glyph glyph-name=".notdef.119" unicode="&#x1eae;" horiz-adv-x="1309" 
d="M1335 1657l108 8l367 383l-185 -12l-221 -176l-121 168l-125 -13zM362 1348q-107 -85 -170 -230.5t-75 -359.5l276 127q-24 61 -27.5 120.5t9.5 111.5t41 93t67 66q41 25 91.5 42t105.5 28t112 16.5t110.5 9t101.5 5t86 3.5l-293 -344.5l-294.5 -346.5l-294 -345.5
l-290.5 -341.5h197l352 418h469l-92 -420h286l154 772l154 768q-149 0 -299 -1t-290.5 -17.5t-265 -56.5t-221.5 -117zM975 594h-359l486 573l-64 -285.5zM2196 2357l-178 -391h-162l121 389z" />
    <glyph glyph-name=".notdef.116" unicode="&#x1eac;" horiz-adv-x="1309" 
d="M1633 1690l-125 -13l-121 168l-221 -176l-185 -12l367 383l108 8zM362 1348q97 77 221.5 117t265 56.5t290.5 17.5t299 1l-154 -768l-154 -772h-286l92 420h-469l-352 -418h-197l290.5 341.5l294 345.5l294.5 346.5l293 344.5q-38 -2 -86 -3.5t-101.5 -5t-110.5 -9
t-112 -16.5t-105.5 -28t-91.5 -42q-39 -25 -67 -66t-41 -93t-9.5 -111.5t27.5 -120.5l-276 -127q12 214 75 359.5t170 230.5zM975 594l63 287.5l64 285.5l-486 -573h359zM677 -278q0 -37 -12 -64.5t-37 -52.5q-45 -51 -117 -51q-34 0 -64 12.5t-54 38.5q-25 25 -36 52.5
t-11 64.5q0 34 11 64t36 53q24 21 54 34t64 13q36 0 65 -13t52 -34q25 -23 37 -53t12 -64z" />
    <glyph glyph-name=".notdef.115" unicode="&#x1eaa;" horiz-adv-x="1309" 
d="M1456 2048l-108 -8l-367 -383l185 12l221 176l121 -168l125 13zM362 1348q-107 -85 -170 -230.5t-75 -359.5l276 127q-24 61 -27.5 120.5t9.5 111.5t41 93t67 66q41 25 91.5 42t105.5 28t112 16.5t110.5 9t101.5 5t86 3.5l-293 -344.5l-294.5 -346.5l-294 -345.5
l-290.5 -341.5h197l352 418h469l-92 -420h286l154 772l154 768q-149 0 -299 -1t-290.5 -17.5t-265 -56.5t-221.5 -117zM975 594h-359l486 573l-64 -285.5zM1908 2315q-9 -40 -39 -76q-31 -37 -77 -63q-22 -17 -47 -27.5t-54 -21.5q-54 -19 -112 -19q-55 0 -97 13
q-21 5 -42.5 11.5t-41.5 14.5q-21 5 -40 12t-39 13q-19 6 -41 10t-43 4q-20 0 -33.5 -4t-24.5 -12.5t-21.5 -20.5l-23.5 -28l-45 14q25 51 59 87t80 60q86 52 203 52q28 0 52.5 -3t45.5 -8l42 -9.5t40 -12.5l38.5 -12.5l37.5 -12.5l38 -6.5t44 -3.5q19 0 38 3.5t36 8.5
q17 8 25 16.5t16 22.5z" />
    <glyph glyph-name=".notdef.114" unicode="&#x1ea8;" horiz-adv-x="1309" 
d="M1456 2048l-108 -8l-367 -383l185 12l221 176l121 -168l125 13zM362 1348q-107 -85 -170 -230.5t-75 -359.5l276 127q-24 61 -27.5 120.5t9.5 111.5t41 93t67 66q41 25 91.5 42t105.5 28t112 16.5t110.5 9t101.5 5t86 3.5l-293 -344.5l-294.5 -346.5l-294 -345.5
l-290.5 -341.5h197l352 418h469l-92 -420h286l154 772l154 768q-149 0 -299 -1t-290.5 -17.5t-265 -56.5t-221.5 -117zM975 594h-359l486 573l-64 -285.5zM1404 2107q6 32 17.5 58.5t26 49.5t30.5 42l30 36l29 36.5t25.5 40.5t7.5 42t-23 42q-17 20 -48 20
q-21 0 -38.5 -10.5t-28.5 -27t-13.5 -37.5t8.5 -41l-29.5 -17.5l-22 -13l-21.5 -13.5t-26 -18q-7 46 2 88.5t33 75.5t61.5 53t87.5 19q54 -1 87.5 -21t49.5 -44q13 -24 15.5 -49.5t-3.5 -50t-20 -46.5t-33 -40l-51.5 -50.5t-37 -39.5t-27 -38t-20.5 -46h-68z" />
    <glyph glyph-name=".notdef.112" unicode="&#x1ea6;" horiz-adv-x="1309" 
d="M1456 2048l-108 -8l-367 -383l185 12l221 176l121 -168l125 13zM362 1348q-107 -85 -170 -230.5t-75 -359.5l276 127q-24 61 -27.5 120.5t9.5 111.5t41 93t67 66q41 25 91.5 42t105.5 28t112 16.5t110.5 9t101.5 5t86 3.5l-293 -344.5l-294.5 -346.5l-294 -345.5
l-290.5 -341.5h197l352 418h469l-92 -420h286l154 772l154 768q-149 0 -299 -1t-290.5 -17.5t-265 -56.5t-221.5 -117zM975 594h-359l486 573l-64 -285.5zM1029 2355l121 -389h-162l-178 391z" />
    <glyph glyph-name=".notdef.113" unicode="&#x1ea4;" horiz-adv-x="1309" 
d="M1456 2048l-108 -8l-367 -383l185 12l221 176l121 -168l125 13zM362 1348q-107 -85 -170 -230.5t-75 -359.5l276 127q-24 61 -27.5 120.5t9.5 111.5t41 93t67 66q41 25 91.5 42t105.5 28t112 16.5t110.5 9t101.5 5t86 3.5l-293 -344.5l-294.5 -346.5l-294 -345.5
l-290.5 -341.5h197l352 418h469l-92 -420h286l154 772l154 768q-149 0 -299 -1t-290.5 -17.5t-265 -56.5t-221.5 -117zM975 594h-359l486 573l-64 -285.5zM1944 2357l-178 -391h-162l121 389z" />
    <glyph glyph-name=".notdef.129" unicode="&#x1ec0;" horiz-adv-x="1339" 
d="M1501 1540l-59 -182h-432l-78 -404h301l-53 -180h-283l-123 -594h457l-51 -180h-723l276 1364q-51 -5 -101.5 -11t-97 -17.5t-86.5 -28.5t-69 -43t-44 -66.5t-14.5 -90t17 -105t49.5 -111.5l-276 -129q-15 113 -9 207t29.5 170t63.5 135t94 102q93 68 210 103t257 51
q60 5 111 6.5t108 1.5q47 0 111 0.5t135 0.5t143.5 0.5t136.5 0.5zM1126 2038l-327 -340l165 12l197 160l111 -154l110 11l-159 321zM862 2355l121 -389h-162l-178 391z" />
    <glyph glyph-name=".notdef.043" unicode="&#x1ec1;" horiz-adv-x="731" 
d="M911 352q-60 -111 -122 -182.5t-130.5 -112.5t-144.5 -56t-164 -13q-97 3 -162.5 42.5t-104 104t-51.5 146.5t-3 170.5t40 177t78 164.5q58 90 133.5 145.5t151 78.5t143 15t111.5 -45q39 -32 60 -75t25.5 -91t-6.5 -98.5t-34 -95.5q-35 -64 -83 -108.5t-105.5 -71.5
t-121.5 -38.5t-130 -9.5q1 -37 8.5 -75.5t23 -73t39 -63t56.5 -44.5q59 -27 118.5 -20.5t114 38t103 81.5t84.5 110h73zM299 518q0 -6 -1 -11.5t-1 -10.5q81 -3 139 24t96.5 70.5t59.5 95.5t28.5 99.5t3 83.5t-17.5 46q-15 12 -38.5 10t-51.5 -17t-57.5 -44.5t-57.5 -72.5
q-32 -50 -58.5 -118t-43.5 -155zM898 1182l-125 -13l-121 168l-221 -176l-184 -12l366 383l109 8zM247 1758l121 -389h-162l-178 391z" />
    <glyph glyph-name=".notdef.131" unicode="&#x1ec2;" horiz-adv-x="1339" 
d="M1501 1540l-59 -182h-432l-78 -404h301l-53 -180h-283l-123 -594h457l-51 -180h-723l276 1364q-51 -5 -101.5 -11t-97 -17.5t-86.5 -28.5t-69 -43t-44 -66.5t-14.5 -90t17 -105t49.5 -111.5l-276 -129q-15 113 -9 207t29.5 170t63.5 135t94 102q93 68 210 103t257 51
q60 5 111 6.5t108 1.5q47 0 111 0.5t135 0.5t143.5 0.5t136.5 0.5zM1126 2038l-327 -340l165 12l197 160l111 -154l110 11l-159 321zM1150 2107q6 32 17.5 58.5t26 49.5t30.5 42l30 36l29 36.5t25.5 40.5t7.5 42t-23 42q-17 20 -48 20q-21 0 -38.5 -10.5t-28.5 -27
t-13.5 -37.5t8.5 -41l-29.5 -17.5l-22 -13l-21.5 -13.5t-26 -18q-7 46 2 88.5t33 75.5t61.5 53t87.5 19q54 -1 87.5 -21t49.5 -44q13 -24 15.5 -49.5t-3.5 -50t-20 -46.5t-33 -40l-51.5 -50.5t-37 -39.5t-27 -38t-20.5 -46h-68z" />
    <glyph glyph-name=".notdef.041" unicode="&#x1ec3;" horiz-adv-x="731" 
d="M911 352q-60 -111 -122 -182.5t-130.5 -112.5t-144.5 -56t-164 -13q-97 3 -162.5 42.5t-104 104t-51.5 146.5t-3 170.5t40 177t78 164.5q58 90 133.5 145.5t151 78.5t143 15t111.5 -45q39 -32 60 -75t25.5 -91t-6.5 -98.5t-34 -95.5q-35 -64 -83 -108.5t-105.5 -71.5
t-121.5 -38.5t-130 -9.5q1 -37 8.5 -75.5t23 -73t39 -63t56.5 -44.5q59 -27 118.5 -20.5t114 38t103 81.5t84.5 110h73zM299 518q0 -6 -1 -11.5t-1 -10.5q81 -3 139 24t96.5 70.5t59.5 95.5t28.5 99.5t3 83.5t-17.5 46q-15 12 -38.5 10t-51.5 -17t-57.5 -44.5t-57.5 -72.5
q-32 -50 -58.5 -118t-43.5 -155zM898 1182l-125 -13l-121 168l-221 -176l-184 -12l366 383l109 8zM896 1371q6 32 17.5 58.5t26 49.5t30.5 42l30 36l29 36.5t25.5 40.5t7.5 42t-23 42q-17 20 -48 20q-21 0 -38.5 -10.5t-28.5 -27t-13.5 -37.5t8.5 -41l-29.5 -17.5l-22 -13
l-21.5 -13.5t-26 -18q-7 46 2 88.5t33 75.5t61.5 53t87.5 19q54 -1 87.5 -21t49.5 -44q13 -24 15.5 -49.5t-3.5 -50t-20 -46.5t-33 -40l-51.5 -50.5t-37 -39.5t-27 -38t-20.5 -46h-68z" />
    <glyph glyph-name=".notdef.132" unicode="&#x1ec4;" horiz-adv-x="1339" 
d="M1501 1540l-59 -182h-432l-78 -404h301l-53 -180h-283l-123 -594h457l-51 -180h-723l276 1364q-51 -5 -101.5 -11t-97 -17.5t-86.5 -28.5t-69 -43t-44 -66.5t-14.5 -90t17 -105t49.5 -111.5l-276 -129q-15 113 -9 207t29.5 170t63.5 135t94 102q93 68 210 103t257 51
q60 5 111 6.5t108 1.5q47 0 111 0.5t135 0.5t143.5 0.5t136.5 0.5zM1126 2038l-327 -340l165 12l197 160l111 -154l110 11l-159 321zM1508 2315q-9 -40 -39 -76q-31 -37 -77 -63q-22 -17 -47 -27.5t-54 -21.5q-54 -19 -112 -19q-55 0 -97 13q-21 5 -42.5 11.5t-41.5 14.5
q-21 5 -40 12t-39 13q-19 6 -41 10t-43 4q-20 0 -33.5 -4t-24.5 -12.5t-21.5 -20.5l-23.5 -28l-45 14q25 51 59 87t80 60q86 52 203 52q28 0 52.5 -3t45.5 -8l42 -9.5t40 -12.5l38.5 -12.5l37.5 -12.5l38 -6.5t44 -3.5q19 0 38 3.5t36 8.5q17 8 25 16.5t16 22.5z" />
    <glyph glyph-name=".notdef.040" unicode="&#x1ec5;" horiz-adv-x="731" 
d="M911 352q-60 -111 -122 -182.5t-130.5 -112.5t-144.5 -56t-164 -13q-97 3 -162.5 42.5t-104 104t-51.5 146.5t-3 170.5t40 177t78 164.5q58 90 133.5 145.5t151 78.5t143 15t111.5 -45q39 -32 60 -75t25.5 -91t-6.5 -98.5t-34 -95.5q-35 -64 -83 -108.5t-105.5 -71.5
t-121.5 -38.5t-130 -9.5q1 -37 8.5 -75.5t23 -73t39 -63t56.5 -44.5q59 -27 118.5 -20.5t114 38t103 81.5t84.5 110h73zM299 518q0 -6 -1 -11.5t-1 -10.5q81 -3 139 24t96.5 70.5t59.5 95.5t28.5 99.5t3 83.5t-17.5 46q-15 12 -38.5 10t-51.5 -17t-57.5 -44.5t-57.5 -72.5
q-32 -50 -58.5 -118t-43.5 -155zM898 1182l-125 -13l-121 168l-221 -176l-184 -12l366 383l109 8zM913 1756q-6 -28 -27 -54t-55 -45q-15 -12 -33 -19l-38 -15t-40 -11t-40 -3q-38 0 -68 9q-15 4 -30.5 9t-29.5 10q-15 3 -28.5 8l-27.5 10q-13 4 -28.5 6.5t-30.5 2.5
q-28 0 -41 -11.5t-32 -34.5l-32 10q34 72 99 104q61 37 143 37q38 0 70 -8q15 -3 29.5 -6.5t28.5 -8.5q13 -5 26.5 -9t26.5 -9q13 -2 27.5 -4.5t31.5 -2.5q13 0 26.5 2.5t25.5 6.5q11 5 17.5 11t11.5 16z" />
    <glyph glyph-name=".notdef.105" unicode="&#x1ec6;" horiz-adv-x="1339" 
d="M1501 1540l-59 -182h-432l-78 -404h301l-53 -180h-283l-123 -594h457l-51 -180h-723l276 1364q-51 -5 -101.5 -11t-97 -17.5t-86.5 -28.5t-69 -43t-44 -66.5t-14.5 -90t17 -105t49.5 -111.5l-276 -129q-15 113 -9 207t29.5 170t63.5 135t94 102q93 68 210 103t257 51
q60 5 111 6.5t108 1.5q47 0 111 0.5t135 0.5t143.5 0.5t136.5 0.5zM1223 2048l159 -321l-110 -11l-111 154l-197 -160l-165 -12l327 340zM979 -278q0 -37 -12 -64.5t-37 -52.5q-45 -51 -117 -51q-34 0 -64 12.5t-54 38.5q-25 25 -36 52.5t-11 64.5q0 34 11 64t36 53
q24 21 54 34t64 13q36 0 65 -13t52 -34q25 -23 37 -53t12 -64z" />
    <glyph glyph-name=".notdef.039" unicode="&#x1ec7;" horiz-adv-x="731" 
d="M911 352q-60 -111 -122 -182.5t-130.5 -112.5t-144.5 -56t-164 -13q-97 3 -162.5 42.5t-104 104t-51.5 146.5t-3 170.5t40 177t78 164.5q58 90 133.5 145.5t151 78.5t143 15t111.5 -45q39 -32 60 -75t25.5 -91t-6.5 -98.5t-34 -95.5q-35 -64 -83 -108.5t-105.5 -71.5
t-121.5 -38.5t-130 -9.5q1 -37 8.5 -75.5t23 -73t39 -63t56.5 -44.5q59 -27 118.5 -20.5t114 38t103 81.5t84.5 110h73zM299 518q0 -6 -1 -11.5t-1 -10.5q81 -3 139 24t96.5 70.5t59.5 95.5t28.5 99.5t3 83.5t-17.5 46q-15 12 -38.5 10t-51.5 -17t-57.5 -44.5t-57.5 -72.5
q-32 -50 -58.5 -118t-43.5 -155zM898 1182l-125 -13l-121 168l-221 -176l-184 -12l366 383l109 8zM258 -280q0 28 10.5 52.5t29 43t43 29.5t52.5 11t52.5 -11t43 -29.5t29.5 -43t11 -52.5t-11 -52.5t-29.5 -43t-43 -29t-52.5 -10.5t-52.5 10.5t-43 29t-29 43t-10.5 52.5z
" />
    <glyph glyph-name=".notdef.102" unicode="&#x1ec8;" horiz-adv-x="977" 
d="M1083 1540q-113 -1 -222 -8t-208.5 -26.5t-186 -54t-153.5 -91.5q-101 -85 -146.5 -234t-19.5 -364l281 125q-32 55 -48.5 111t-19 105.5t9.5 89.5t38 64q30 27 71.5 45.5t89 30.5t99.5 19t104 12l-272 -1364h278zM939 1661q6 32 17.5 58.5t26 49.5t30.5 42l30 36
l29 36.5t25.5 40.5t7.5 42t-23 42q-17 20 -48 20q-21 0 -38.5 -10.5t-28.5 -27t-13.5 -37.5t8.5 -41l-29.5 -17.5l-22 -13l-21.5 -13.5t-26 -18q-7 46 2 88.5t33 75.5t61.5 53t87.5 19q54 -1 87.5 -21t49.5 -44q13 -24 15.5 -49.5t-3.5 -50t-20 -46.5t-33 -40l-51.5 -50.5
t-37 -39.5t-27 -38t-20.5 -46h-68z" />
    <glyph glyph-name=".notdef.036" unicode="&#x1ec9;" horiz-adv-x="506" 
d="M696 362q-30 -83 -79.5 -150t-108.5 -115t-123.5 -76.5t-124.5 -33t-111.5 15t-85 66.5t-44 122.5t11.5 183.5l135 649h283l-46.5 -237l-41 -201.5l-37 -182l-35.5 -178.5q-12 -61 3 -88.5t45.5 -29t71.5 19.5t81 56.5t74.5 82t51.5 96.5h80zM281 1169q6 32 17.5 58.5
t26 49.5t30.5 42l30 36l29 36.5t25.5 40.5t7.5 42t-23 42q-17 20 -48 20q-21 0 -38.5 -10.5t-28.5 -27t-13.5 -37.5t8.5 -41l-29.5 -17.5l-22 -13l-21.5 -13.5t-26 -18q-7 46 2 88.5t33 75.5t61.5 53t87.5 19q54 -1 87.5 -21t49.5 -44q13 -24 15.5 -49.5t-3.5 -50t-20 -46.5
t-33 -40l-51.5 -50.5t-37 -39.5t-27 -38t-20.5 -46h-68z" />
    <glyph glyph-name=".notdef.100" unicode="&#x1eca;" horiz-adv-x="977" 
d="M778 0h-278l272 1364q-52 -5 -104 -12t-99.5 -19t-89 -30.5t-71.5 -45.5q-26 -24 -38 -64t-9.5 -89.5t19 -105.5t48.5 -111l-281 -125q-26 215 19.5 364t146.5 234q67 57 153.5 91.5t186 54t208.5 26.5t222 8zM798 -278q0 -37 -12 -64.5t-37 -52.5q-45 -51 -117 -51
q-34 0 -64 12.5t-54 38.5q-25 25 -36 52.5t-11 64.5q0 34 11 64t36 53q24 21 54 34t64 13q36 0 65 -13t52 -34q25 -23 37 -53t12 -64z" />
    <glyph glyph-name=".notdef.034" unicode="&#x1ecb;" horiz-adv-x="506" 
d="M696 362q-30 -83 -79.5 -150t-108.5 -115t-123.5 -76.5t-124.5 -33t-111.5 15t-85 66.5t-44 122.5t11.5 183.5l135 649h283l-46.5 -237l-41 -201.5l-37 -182l-35.5 -178.5q-12 -61 3 -88.5t45.5 -29t71.5 19.5t81 56.5t74.5 82t51.5 96.5h80zM331 1139q-70 0 -115 45
q-43 46 -43 114q3 67 47 115q25 23 53.5 35t63.5 12t62.5 -12t50.5 -35q49 -49 49 -115q0 -35 -13.5 -63t-37.5 -51q-48 -45 -117 -45zM114 -280q0 28 10.5 52.5t29 43t43 29.5t52.5 11t52.5 -11t43 -29.5t29.5 -43t11 -52.5t-11 -52.5t-29.5 -43t-43 -29t-52.5 -10.5
t-52.5 10.5t-43 29t-29 43t-10.5 52.5z" />
    <glyph glyph-name=".notdef.095" unicode="&#x1ecc;" horiz-adv-x="1497" 
d="M1520 985q0 -48 -3 -100.5t-14 -112.5q-8 -57 -20.5 -111.5t-32.5 -113.5q-17 -56 -40.5 -110.5t-51.5 -106.5q-31 -53 -65 -99.5t-74 -87.5q-42 -40 -89 -71t-100 -56q-54 -24 -115 -35.5t-124 -11.5q-45 0 -84 5t-74 18q-69 18 -123 71q-50 46 -78 123q-14 41 -21.5 87
t-7.5 102q-2 43 0 88t9 96q13 101 38.5 192.5t61.5 178t81.5 169t98.5 165.5l324 36q-70 -101 -123.5 -193t-92 -177t-62.5 -164t-36 -154q-20 -120 -12 -213t36.5 -153t72.5 -82.5t97 -1t110.5 91.5t111.5 195q31 65 54 138.5t38 153.5q17 85 25 166t6 166
q-4 114 -46.5 187t-110 111.5t-152 46t-170.5 -9.5t-166.5 -55t-140.5 -91q-41 -38 -65.5 -86.5t-31.5 -101t3.5 -105t39.5 -97.5l-284 -131q-15 106 -2 198.5t48.5 170.5t90.5 142.5t123 115.5q76 56 164.5 94.5t182 57t188 17.5t182 -23t163.5 -65t133.5 -108.5
t91.5 -154.5t38 -201zM1036 -278q0 -37 -12 -64.5t-37 -52.5q-45 -51 -117 -51q-34 0 -64 12.5t-54 38.5q-25 25 -36 52.5t-11 64.5q0 34 11 64t36 53q24 21 54 34t64 13q36 0 65 -13t52 -34q25 -23 37 -53t12 -64z" />
    <glyph glyph-name=".notdef.029" unicode="&#x1ecd;" horiz-adv-x="1018" 
d="M1180 733q-62 -56 -123 -98t-121 -70q-15 -117 -54.5 -210t-95 -162t-123 -115t-138.5 -69t-141 -22.5t-130 23.5q-72 26 -121 71t-78 102t-39 123.5t-2 137.5q9 75 35 149.5t68.5 142t100 124.5t128.5 98q48 28 102 46.5t109.5 25.5t110 0.5t102 -28.5t86.5 -61.5
t64 -98.5q12 -29 19 -65.5t7 -78.5q62 16 120 43.5t108 61.5zM690 526q-49 10 -96.5 32t-99.5 63l106 145q39 -36 88 -55q-12 57 -41 106t-67 73.5t-82.5 15t-87.5 -69.5q-26 -37 -49.5 -96t-40 -128t-24 -142.5t0 -138.5t31 -116.5t69.5 -77.5q37 -21 80 -12t83.5 54
t75 128.5t54.5 210.5v8zM258 -280q0 28 10.5 52.5t29 43t43 29.5t52.5 11t52.5 -11t43 -29.5t29.5 -43t11 -52.5t-11 -52.5t-29.5 -43t-43 -29t-52.5 -10.5t-52.5 10.5t-43 29t-29 43t-10.5 52.5z" />
    <glyph glyph-name=".notdef.097" unicode="&#x1ece;" horiz-adv-x="1497" 
d="M1520 985q-4 112 -38 201t-91.5 154.5t-133.5 108.5t-163.5 65t-182 23t-188 -17.5t-182 -57t-164.5 -94.5q-68 -51 -123 -115.5t-90.5 -142.5t-48.5 -170.5t2 -198.5l284 131q-29 45 -39.5 97.5t-3.5 105t31.5 101t65.5 86.5q60 53 140.5 91t166.5 55t170.5 9.5t152 -46
t110 -111.5t46.5 -187q2 -85 -6 -166t-25 -166q-15 -80 -38 -153.5t-54 -138.5q-54 -125 -111.5 -195t-110.5 -91.5t-97 1t-72.5 82.5t-36.5 153t12 213q12 75 36 154t62.5 164t92 177t123.5 193l-324 -36q-53 -83 -98.5 -165.5t-81.5 -169t-61.5 -178t-38.5 -192.5
q-7 -51 -9 -96t0 -88q0 -56 7.5 -102t21.5 -87q28 -77 78 -123q54 -53 123 -71q35 -13 74 -18t84 -5q63 0 124 11.5t115 35.5q53 25 100 56t89 71q40 41 74 87.5t65 99.5q28 52 51.5 106.5t40.5 110.5q20 59 32.5 113.5t20.5 111.5q11 60 14 112.5t3 100.5zM1036 -278
q0 -37 -12 -64.5t-37 -52.5q-45 -51 -117 -51q-34 0 -64 12.5t-54 38.5q-25 25 -36 52.5t-11 64.5q0 34 11 64t36 53q24 21 54 34t64 13q36 0 65 -13t52 -34q25 -23 37 -53t12 -64zM935 1661q6 32 17.5 58.5t26 49.5t30.5 42l30 36l29 36.5t25.5 40.5t7.5 42t-23 42
q-17 20 -48 20q-21 0 -38.5 -10.5t-28.5 -27t-13.5 -37.5t8.5 -41l-29.5 -17.5l-22 -13l-21.5 -13.5t-26 -18q-7 46 2 88.5t33 75.5t61.5 53t87.5 19q54 -1 87.5 -21t49.5 -44q13 -24 15.5 -49.5t-3.5 -50t-20 -46.5t-33 -40l-51.5 -50.5t-37 -39.5t-27 -38t-20.5 -46h-68z
" />
    <glyph glyph-name=".notdef.031" unicode="&#x1ecf;" horiz-adv-x="1018" 
d="M1174 803q-50 -34 -108 -61.5t-120 -43.5q0 42 -7 78.5t-19 65.5q-25 59 -64 98.5t-86.5 61.5t-102 28.5t-110 -0.5t-109.5 -25.5t-102 -46.5q-71 -41 -128.5 -98t-100 -124.5t-68.5 -142t-35 -149.5q-8 -71 2 -137.5t39 -123.5t78 -102t121 -71q60 -23 130 -23.5
t141 22.5t138.5 69t123 115t95 162t54.5 210q60 28 121 70t123 98zM690 518q-20 -127 -54.5 -210.5t-75 -128.5t-83.5 -54t-80 12q-46 26 -69.5 77.5t-31 116.5t0 138.5t24 142.5t40 128t49.5 96q43 60 87.5 69.5t82.5 -15t67 -73.5t41 -106q-49 19 -88 55l-106 -145
q52 -41 99.5 -63t96.5 -32v-8zM531 1169q6 32 17.5 58.5t26 49.5t30.5 42l30 36l29 36.5t25.5 40.5t7.5 42t-23 42q-17 20 -48 20q-21 0 -38.5 -10.5t-28.5 -27t-13.5 -37.5t8.5 -41l-29.5 -17.5l-22 -13l-21.5 -13.5t-26 -18q-7 46 2 88.5t33 75.5t61.5 53t87.5 19
q54 -1 87.5 -21t49.5 -44q13 -24 15.5 -49.5t-3.5 -50t-20 -46.5t-33 -40l-51.5 -50.5t-37 -39.5t-27 -38t-20.5 -46h-68z" />
    <glyph glyph-name=".notdef.092" unicode="&#x1ed0;" horiz-adv-x="1403" 
d="M1464 985q-3 112 -37.5 201t-91.5 154.5t-133.5 108.5t-163.5 65t-181.5 23t-188 -17.5t-182 -57t-164.5 -94.5q-69 -51 -124 -115.5t-90.5 -142.5t-48.5 -170.5t2 -198.5l285 131q-29 45 -39.5 97.5t-3.5 105t31 101t65 86.5q60 53 140.5 91t167 55t170.5 9.5t151.5 -46
t110.5 -111.5t47 -187q2 -85 -6 -166t-25 -166q-15 -80 -38 -153.5t-54 -138.5q-54 -125 -111.5 -195t-110.5 -91.5t-97.5 1t-72.5 82.5t-36 153t12 213q12 75 36 154t62.5 164t92 177t123.5 193l-324 -36q-53 -83 -98.5 -165.5t-81.5 -169t-62 -178t-39 -192.5
q-6 -51 -8 -96t0 -88q0 -56 7.5 -102t21.5 -87q14 -38 33.5 -69t44.5 -54q53 -53 123 -71q35 -13 73.5 -18t83.5 -5q63 0 124.5 11.5t115.5 35.5q52 25 99 56t89 71q41 41 75 87.5t65 99.5q27 52 51 106.5t41 110.5q20 59 32.5 113.5t20.5 111.5q11 60 13.5 112.5t2.5 100.5
zM1104 2048l-109 -8l-366 -383l184 12l221 176l121 -168l125 13zM1589 2357l-178 -391h-162l121 389z" />
    <glyph glyph-name=".notdef.026" unicode="&#x1ed1;" horiz-adv-x="1001" 
d="M1167 803q-49 -34 -107 -61.5t-120 -43.5q0 42 -7 78.5t-20 65.5q-25 59 -63.5 98.5t-86.5 61.5t-102 28.5t-109.5 -0.5t-110 -25.5t-101.5 -46.5q-71 -41 -128.5 -98t-100 -124.5t-68.5 -142t-35 -149.5q-8 -71 2 -137.5t39 -123.5t78 -102t121 -71q60 -23 130 -23.5
t140.5 22.5t138 69t123.5 115t95.5 162t54.5 210q60 28 121 70t123 98zM684 518q-20 -127 -54.5 -210.5t-75 -128.5t-83.5 -54t-80 12q-46 26 -69.5 77.5t-31 116.5t0 138.5t24 142.5t39.5 128t49 96q44 60 88.5 69.5t82.5 -15t67 -73.5t41 -106q-49 19 -88 55l-107 -145
q53 -41 100 -63t97 -32v-8zM729 1540l-108 -8l-367 -383l184 12l221 176l121 -168l125 13zM1227 1760l-178 -391h-162l121 389z" />
    <glyph glyph-name=".notdef.093" unicode="&#x1ed2;" horiz-adv-x="1403" 
d="M1464 985q-3 112 -37.5 201t-91.5 154.5t-133.5 108.5t-163.5 65t-181.5 23t-188 -17.5t-182 -57t-164.5 -94.5q-69 -51 -124 -115.5t-90.5 -142.5t-48.5 -170.5t2 -198.5l285 131q-29 45 -39.5 97.5t-3.5 105t31 101t65 86.5q60 53 140.5 91t167 55t170.5 9.5t151.5 -46
t110.5 -111.5t47 -187q2 -85 -6 -166t-25 -166q-15 -80 -38 -153.5t-54 -138.5q-54 -125 -111.5 -195t-110.5 -91.5t-97.5 1t-72.5 82.5t-36 153t12 213q12 75 36 154t62.5 164t92 177t123.5 193l-324 -36q-53 -83 -98.5 -165.5t-81.5 -169t-62 -178t-39 -192.5
q-6 -51 -8 -96t0 -88q0 -56 7.5 -102t21.5 -87q14 -38 33.5 -69t44.5 -54q53 -53 123 -71q35 -13 73.5 -18t83.5 -5q63 0 124.5 11.5t115.5 35.5q52 25 99 56t89 71q41 41 75 87.5t65 99.5q27 52 51 106.5t41 110.5q20 59 32.5 113.5t20.5 111.5q11 60 13.5 112.5t2.5 100.5
zM1104 2048l-109 -8l-366 -383l184 12l221 176l121 -168l125 13zM712 2355l121 -389h-162l-178 391z" />
    <glyph glyph-name=".notdef.027" unicode="&#x1ed3;" horiz-adv-x="1001" 
d="M1167 803q-49 -34 -107 -61.5t-120 -43.5q0 42 -7 78.5t-20 65.5q-25 59 -63.5 98.5t-86.5 61.5t-102 28.5t-109.5 -0.5t-110 -25.5t-101.5 -46.5q-71 -41 -128.5 -98t-100 -124.5t-68.5 -142t-35 -149.5q-8 -71 2 -137.5t39 -123.5t78 -102t121 -71q60 -23 130 -23.5
t140.5 22.5t138 69t123.5 115t95.5 162t54.5 210q60 28 121 70t123 98zM684 518q-20 -127 -54.5 -210.5t-75 -128.5t-83.5 -54t-80 12q-46 26 -69.5 77.5t-31 116.5t0 138.5t24 142.5t39.5 128t49 96q44 60 88.5 69.5t82.5 -15t67 -73.5t41 -106q-49 19 -88 55l-107 -145
q53 -41 100 -63t97 -32v-8zM729 1540l-108 -8l-367 -383l184 12l221 176l121 -168l125 13zM267 1758l121 -389h-162l-178 391z" />
    <glyph glyph-name=".notdef.091" unicode="&#x1ed4;" horiz-adv-x="1403" 
d="M1464 985q-3 112 -37.5 201t-91.5 154.5t-133.5 108.5t-163.5 65t-181.5 23t-188 -17.5t-182 -57t-164.5 -94.5q-69 -51 -124 -115.5t-90.5 -142.5t-48.5 -170.5t2 -198.5l285 131q-29 45 -39.5 97.5t-3.5 105t31 101t65 86.5q60 53 140.5 91t167 55t170.5 9.5t151.5 -46
t110.5 -111.5t47 -187q2 -85 -6 -166t-25 -166q-15 -80 -38 -153.5t-54 -138.5q-54 -125 -111.5 -195t-110.5 -91.5t-97.5 1t-72.5 82.5t-36 153t12 213q12 75 36 154t62.5 164t92 177t123.5 193l-324 -36q-53 -83 -98.5 -165.5t-81.5 -169t-62 -178t-39 -192.5
q-6 -51 -8 -96t0 -88q0 -56 7.5 -102t21.5 -87q14 -38 33.5 -69t44.5 -54q53 -53 123 -71q35 -13 73.5 -18t83.5 -5q63 0 124.5 11.5t115.5 35.5q52 25 99 56t89 71q41 41 75 87.5t65 99.5q27 52 51 106.5t41 110.5q20 59 32.5 113.5t20.5 111.5q11 60 13.5 112.5t2.5 100.5
zM1104 2048l-109 -8l-366 -383l184 12l221 176l121 -168l125 13zM1027 2107q6 32 17.5 58.5t26 49.5t30.5 42l30 36l29 36.5t25.5 40.5t7.5 42t-23 42q-17 20 -48 20q-21 0 -38.5 -10.5t-28.5 -27t-13.5 -37.5t8.5 -41l-29.5 -17.5l-22 -13l-21.5 -13.5t-26 -18
q-7 46 2 88.5t33 75.5t61.5 53t87.5 19q54 -1 87.5 -21t49.5 -44q13 -24 15.5 -49.5t-3.5 -50t-20 -46.5t-33 -40l-51.5 -50.5t-37 -39.5t-27 -38t-20.5 -46h-68z" />
    <glyph glyph-name=".notdef.025" unicode="&#x1ed5;" horiz-adv-x="1001" 
d="M1167 803q-49 -34 -107 -61.5t-120 -43.5q0 42 -7 78.5t-20 65.5q-25 59 -63.5 98.5t-86.5 61.5t-102 28.5t-109.5 -0.5t-110 -25.5t-101.5 -46.5q-71 -41 -128.5 -98t-100 -124.5t-68.5 -142t-35 -149.5q-8 -71 2 -137.5t39 -123.5t78 -102t121 -71q60 -23 130 -23.5
t140.5 22.5t138 69t123.5 115t95.5 162t54.5 210q60 28 121 70t123 98zM684 518q-20 -127 -54.5 -210.5t-75 -128.5t-83.5 -54t-80 12q-46 26 -69.5 77.5t-31 116.5t0 138.5t24 142.5t39.5 128t49 96q44 60 88.5 69.5t82.5 -15t67 -73.5t41 -106q-49 19 -88 55l-107 -145
q53 -41 100 -63t97 -32v-8zM729 1540l-108 -8l-367 -383l184 12l221 176l121 -168l125 13zM896 1371q6 32 17.5 58.5t26 49.5t30.5 42l30 36l29 36.5t25.5 40.5t7.5 42t-23 42q-17 20 -48 20q-21 0 -38.5 -10.5t-28.5 -27t-13.5 -37.5t8.5 -41l-29.5 -17.5l-22 -13
l-21.5 -13.5t-26 -18q-7 46 2 88.5t33 75.5t61.5 53t87.5 19q54 -1 87.5 -21t49.5 -44q13 -24 15.5 -49.5t-3.5 -50t-20 -46.5t-33 -40l-51.5 -50.5t-37 -39.5t-27 -38t-20.5 -46h-68z" />
    <glyph glyph-name=".notdef.090" unicode="&#x1ed6;" horiz-adv-x="1403" 
d="M1464 985q-3 112 -37.5 201t-91.5 154.5t-133.5 108.5t-163.5 65t-181.5 23t-188 -17.5t-182 -57t-164.5 -94.5q-69 -51 -124 -115.5t-90.5 -142.5t-48.5 -170.5t2 -198.5l285 131q-29 45 -39.5 97.5t-3.5 105t31 101t65 86.5q60 53 140.5 91t167 55t170.5 9.5t151.5 -46
t110.5 -111.5t47 -187q2 -85 -6 -166t-25 -166q-15 -80 -38 -153.5t-54 -138.5q-54 -125 -111.5 -195t-110.5 -91.5t-97.5 1t-72.5 82.5t-36 153t12 213q12 75 36 154t62.5 164t92 177t123.5 193l-324 -36q-53 -83 -98.5 -165.5t-81.5 -169t-62 -178t-39 -192.5
q-6 -51 -8 -96t0 -88q0 -56 7.5 -102t21.5 -87q14 -38 33.5 -69t44.5 -54q53 -53 123 -71q35 -13 73.5 -18t83.5 -5q63 0 124.5 11.5t115.5 35.5q52 25 99 56t89 71q41 41 75 87.5t65 99.5q27 52 51 106.5t41 110.5q20 59 32.5 113.5t20.5 111.5q11 60 13.5 112.5t2.5 100.5
zM1104 2048l-109 -8l-366 -383l184 12l221 176l121 -168l125 13zM1424 2315q-9 -40 -39 -76q-31 -37 -77 -63q-22 -17 -47 -27.5t-54 -21.5q-54 -19 -112 -19q-55 0 -97 13q-21 5 -42.5 11.5t-41.5 14.5q-21 5 -40 12t-39 13q-19 6 -41 10t-43 4q-20 0 -33.5 -4t-24.5 -12.5
t-21.5 -20.5l-23.5 -28l-45 14q25 51 59 87t80 60q86 52 203 52q28 0 52.5 -3t45.5 -8l42 -9.5t40 -12.5l38.5 -12.5l37.5 -12.5l38 -6.5t44 -3.5q19 0 38 3.5t36 8.5q17 8 25 16.5t16 22.5z" />
    <glyph glyph-name=".notdef.024" unicode="&#x1ed7;" horiz-adv-x="1001" 
d="M1167 803q-49 -34 -107 -61.5t-120 -43.5q0 42 -7 78.5t-20 65.5q-25 59 -63.5 98.5t-86.5 61.5t-102 28.5t-109.5 -0.5t-110 -25.5t-101.5 -46.5q-71 -41 -128.5 -98t-100 -124.5t-68.5 -142t-35 -149.5q-8 -71 2 -137.5t39 -123.5t78 -102t121 -71q60 -23 130 -23.5
t140.5 22.5t138 69t123.5 115t95.5 162t54.5 210q60 28 121 70t123 98zM684 518q-20 -127 -54.5 -210.5t-75 -128.5t-83.5 -54t-80 12q-46 26 -69.5 77.5t-31 116.5t0 138.5t24 142.5t39.5 128t49 96q44 60 88.5 69.5t82.5 -15t67 -73.5t41 -106q-49 19 -88 55l-107 -145
q53 -41 100 -63t97 -32v-8zM729 1540l-108 -8l-367 -383l184 12l221 176l121 -168l125 13zM947 1756q-6 -28 -27 -54t-55 -45q-15 -12 -33 -19l-38 -15t-40 -11t-40 -3q-38 0 -68 9q-15 4 -30.5 9t-29.5 10q-15 3 -28.5 8l-27.5 10q-13 4 -28.5 6.5t-30.5 2.5
q-28 0 -41 -11.5t-32 -34.5l-32 10q34 72 99 104q61 37 143 37q38 0 70 -8q15 -3 29.5 -6.5t28.5 -8.5q13 -5 26.5 -9t26.5 -9q13 -2 27.5 -4.5t31.5 -2.5q13 0 26.5 2.5t25.5 6.5q11 5 17.5 11t11.5 16z" />
    <glyph glyph-name=".notdef.089" unicode="&#x1ed8;" horiz-adv-x="1403" 
d="M1464 985q-3 112 -37.5 201t-91.5 154.5t-133.5 108.5t-163.5 65t-181.5 23t-188 -17.5t-182 -57t-164.5 -94.5q-69 -51 -124 -115.5t-90.5 -142.5t-48.5 -170.5t2 -198.5l285 131q-29 45 -39.5 97.5t-3.5 105t31 101t65 86.5q60 53 140.5 91t167 55t170.5 9.5t151.5 -46
t110.5 -111.5t47 -187q2 -85 -6 -166t-25 -166q-15 -80 -38 -153.5t-54 -138.5q-54 -125 -111.5 -195t-110.5 -91.5t-97.5 1t-72.5 82.5t-36 153t12 213q12 75 36 154t62.5 164t92 177t123.5 193l-324 -36q-53 -83 -98.5 -165.5t-81.5 -169t-62 -178t-39 -192.5
q-6 -51 -8 -96t0 -88q0 -56 7.5 -102t21.5 -87q14 -38 33.5 -69t44.5 -54q53 -53 123 -71q35 -13 73.5 -18t83.5 -5q63 0 124.5 11.5t115.5 35.5q52 25 99 56t89 71q41 41 75 87.5t65 99.5q27 52 51 106.5t41 110.5q20 59 32.5 113.5t20.5 111.5q11 60 13.5 112.5t2.5 100.5
zM1104 2048l-109 -8l-366 -383l184 12l221 176l121 -168l125 13zM1027 2107q6 32 17.5 58.5t26 49.5t30.5 42l30 36l29 36.5t25.5 40.5t7.5 42t-23 42q-17 20 -48 20q-21 0 -38.5 -10.5t-28.5 -27t-13.5 -37.5t8.5 -41l-29.5 -17.5l-22 -13l-21.5 -13.5t-26 -18
q-7 46 2 88.5t33 75.5t61.5 53t87.5 19q54 -1 87.5 -21t49.5 -44q13 -24 15.5 -49.5t-3.5 -50t-20 -46.5t-33 -40l-51.5 -50.5t-37 -39.5t-27 -38t-20.5 -46h-68zM923 -278q0 -37 -12 -64.5t-37 -52.5q-45 -51 -117 -51q-34 0 -64 12.5t-54 38.5q-25 25 -36 52.5t-11 64.5
q0 34 11 64t36 53q24 21 54 34t64 13q36 0 65 -13t52 -34q25 -23 37 -53t12 -64z" />
    <glyph glyph-name=".notdef.023" unicode="&#x1ed9;" horiz-adv-x="1001" 
d="M1174 733q-62 -56 -123 -98t-121 -70q-15 -117 -54.5 -210t-95.5 -162t-123.5 -115t-138 -69t-140.5 -22.5t-130 23.5q-72 26 -121 71t-78 102t-39 123.5t-2 137.5q9 75 35 149.5t68.5 142t100 124.5t128.5 98q47 28 101.5 46.5t110 25.5t109.5 0.5t102 -28.5t86.5 -61.5
t63.5 -98.5q13 -29 20 -65.5t7 -78.5q62 16 120 43.5t107 61.5zM684 526q-50 10 -97 32t-100 63l107 145q39 -36 88 -55q-12 57 -41 106t-67 73.5t-82.5 15t-88.5 -69.5q-26 -37 -49 -96t-39.5 -128t-24 -142.5t0 -138.5t31 -116.5t69.5 -77.5q37 -21 80 -12t83.5 54
t75 128.5t54.5 210.5v8zM905 1182l-125 -13l-121 168l-221 -176l-184 -12l367 383l108 8zM258 -280q0 28 10.5 52.5t29 43t43 29.5t52.5 11t52.5 -11t43 -29.5t29.5 -43t11 -52.5t-11 -52.5t-29.5 -43t-43 -29t-52.5 -10.5t-52.5 10.5t-43 29t-29 43t-10.5 52.5z" />
    <glyph glyph-name=".notdef.075" unicode="&#x1eda;" horiz-adv-x="1497" 
d="M1520 985q0 -48 -3 -100.5t-14 -112.5q-8 -57 -20.5 -111.5t-32.5 -113.5q-17 -56 -40.5 -110.5t-51.5 -106.5q-31 -53 -65 -99.5t-74 -87.5q-42 -40 -89 -71t-100 -56q-54 -24 -115 -35.5t-124 -11.5q-45 0 -84 5t-74 18q-69 18 -123 71q-50 46 -78 123q-14 41 -21.5 87
t-7.5 102q-2 43 0 88t9 96q13 101 38.5 192.5t61.5 178t81.5 169t98.5 165.5l324 36q-70 -101 -123.5 -193t-92 -177t-62.5 -164t-36 -154q-20 -120 -12 -213t36.5 -153t72.5 -82.5t97 -1t110.5 91.5t111.5 195q31 65 54 138.5t38 153.5q17 85 25 166t6 166
q-4 114 -46.5 187t-110 111.5t-152 46t-170.5 -9.5t-166.5 -55t-140.5 -91q-41 -38 -65.5 -86.5t-31.5 -101t3.5 -105t39.5 -97.5l-284 -131q-15 106 -2 198.5t48.5 170.5t90.5 142.5t123 115.5q76 56 164.5 94.5t182 57t188 17.5t182 -23t163.5 -65t133.5 -108.5
t91.5 -154.5t38 -201zM1514 1852q42 -16 62 -57t19 -94t-21.5 -110t-58 -105.5t-91.5 -80.5t-121 -35l-14 66q37 1 62 10.5t42.5 26t30 40t24.5 54.5q-11 0 -20 2.5t-18 7.5q-29 11 -50 31.5t-32.5 46.5t-12.5 55t11 58q10 28 29.5 49t45 32.5t55 12.5t58.5 -10zM1300 2048
l-178 -391h-161l120 389z" />
    <glyph glyph-name=".notdef.009" unicode="&#x1edb;" horiz-adv-x="1018" 
d="M1180 733q-62 -56 -123 -98t-121 -70q-15 -117 -54.5 -210t-95 -162t-123 -115t-138.5 -69t-141 -22.5t-130 23.5q-72 26 -121 71t-78 102t-39 123.5t-2 137.5q9 75 35 149.5t68.5 142t100 124.5t128.5 98q48 28 102 46.5t109.5 25.5t110 0.5t102 -28.5t86.5 -61.5
t64 -98.5q12 -29 19 -65.5t7 -78.5q62 16 120 43.5t108 61.5zM690 526q-49 10 -96.5 32t-99.5 63l106 145q39 -36 88 -55q-12 57 -41 106t-67 73.5t-82.5 15t-87.5 -69.5q-26 -37 -49.5 -96t-40 -128t-24 -142.5t0 -138.5t31 -116.5t69.5 -77.5q37 -21 80 -12t83.5 54
t75 128.5t54.5 210.5v8zM1008 1249q31 -12 45 -41.5t13.5 -67.5t-15 -79t-42 -75.5t-66 -58t-87.5 -25.5l-10 48q27 1 45 7.5t30.5 18.5t21.5 29t18 39q-13 0 -27 7q-21 8 -36 22.5t-23.5 33.5t-9 40t7.5 42q7 20 21 35t32.5 23.5t39.5 9t42 -7.5zM887 1540l-178 -391h-162
l121 389z" />
    <glyph glyph-name=".notdef.076" unicode="&#x1edc;" horiz-adv-x="1497" 
d="M1520 985q0 -48 -3 -100.5t-14 -112.5q-8 -57 -20.5 -111.5t-32.5 -113.5q-17 -56 -40.5 -110.5t-51.5 -106.5q-31 -53 -65 -99.5t-74 -87.5q-42 -40 -89 -71t-100 -56q-54 -24 -115 -35.5t-124 -11.5q-45 0 -84 5t-74 18q-69 18 -123 71q-50 46 -78 123q-14 41 -21.5 87
t-7.5 102q-2 43 0 88t9 96q13 101 38.5 192.5t61.5 178t81.5 169t98.5 165.5l324 36q-70 -101 -123.5 -193t-92 -177t-62.5 -164t-36 -154q-20 -120 -12 -213t36.5 -153t72.5 -82.5t97 -1t110.5 91.5t111.5 195q31 65 54 138.5t38 153.5q17 85 25 166t6 166
q-4 114 -46.5 187t-110 111.5t-152 46t-170.5 -9.5t-166.5 -55t-140.5 -91q-41 -38 -65.5 -86.5t-31.5 -101t3.5 -105t39.5 -97.5l-284 -131q-15 106 -2 198.5t48.5 170.5t90.5 142.5t123 115.5q76 56 164.5 94.5t182 57t188 17.5t182 -23t163.5 -65t133.5 -108.5
t91.5 -154.5t38 -201zM1514 1852q42 -16 62 -57t19 -94t-21.5 -110t-58 -105.5t-91.5 -80.5t-121 -35l-14 66q37 1 62 10.5t42.5 26t30 40t24.5 54.5q-11 0 -20 2.5t-18 7.5q-29 11 -50 31.5t-32.5 46.5t-12.5 55t11 58q10 28 29.5 49t45 32.5t55 12.5t58.5 -10zM1015 2046
l120 -389h-161l-178 391z" />
    <glyph glyph-name=".notdef.010" unicode="&#x1edd;" horiz-adv-x="1018" 
d="M1180 733q-62 -56 -123 -98t-121 -70q-15 -117 -54.5 -210t-95 -162t-123 -115t-138.5 -69t-141 -22.5t-130 23.5q-72 26 -121 71t-78 102t-39 123.5t-2 137.5q9 75 35 149.5t68.5 142t100 124.5t128.5 98q48 28 102 46.5t109.5 25.5t110 0.5t102 -28.5t86.5 -61.5
t64 -98.5q12 -29 19 -65.5t7 -78.5q62 16 120 43.5t108 61.5zM690 526q-49 10 -96.5 32t-99.5 63l106 145q39 -36 88 -55q-12 57 -41 106t-67 73.5t-82.5 15t-87.5 -69.5q-26 -37 -49.5 -96t-40 -128t-24 -142.5t0 -138.5t31 -116.5t69.5 -77.5q37 -21 80 -12t83.5 54
t75 128.5t54.5 210.5v8zM1008 1249q31 -12 45 -41.5t13.5 -67.5t-15 -79t-42 -75.5t-66 -58t-87.5 -25.5l-10 48q27 1 45 7.5t30.5 18.5t21.5 29t18 39q-13 0 -27 7q-21 8 -36 22.5t-23.5 33.5t-9 40t7.5 42q7 20 21 35t32.5 23.5t39.5 9t42 -7.5zM586 1538l121 -389h-162
l-178 391z" />
    <glyph glyph-name=".notdef.074" unicode="&#x1ede;" horiz-adv-x="1497" 
d="M1520 985q0 -48 -3 -100.5t-14 -112.5q-8 -57 -20.5 -111.5t-32.5 -113.5q-17 -56 -40.5 -110.5t-51.5 -106.5q-31 -53 -65 -99.5t-74 -87.5q-42 -40 -89 -71t-100 -56q-54 -24 -115 -35.5t-124 -11.5q-45 0 -84 5t-74 18q-69 18 -123 71q-50 46 -78 123q-14 41 -21.5 87
t-7.5 102q-2 43 0 88t9 96q13 101 38.5 192.5t61.5 178t81.5 169t98.5 165.5l324 36q-70 -101 -123.5 -193t-92 -177t-62.5 -164t-36 -154q-20 -120 -12 -213t36.5 -153t72.5 -82.5t97 -1t110.5 91.5t111.5 195q31 65 54 138.5t38 153.5q17 85 25 166t6 166
q-4 114 -46.5 187t-110 111.5t-152 46t-170.5 -9.5t-166.5 -55t-140.5 -91q-41 -38 -65.5 -86.5t-31.5 -101t3.5 -105t39.5 -97.5l-284 -131q-15 106 -2 198.5t48.5 170.5t90.5 142.5t123 115.5q76 56 164.5 94.5t182 57t188 17.5t182 -23t163.5 -65t133.5 -108.5
t91.5 -154.5t38 -201zM1514 1852q42 -16 62 -57t19 -94t-21.5 -110t-58 -105.5t-91.5 -80.5t-121 -35l-14 66q37 1 62 10.5t42.5 26t30 40t24.5 54.5q-11 0 -20 2.5t-18 7.5q-29 11 -50 31.5t-32.5 46.5t-12.5 55t11 58q10 28 29.5 49t45 32.5t55 12.5t58.5 -10zM1010 1661
q6 32 17.5 58.5t26 49.5t30.5 42l30 36l29 36.5t25.5 40.5t7.5 42t-23 42q-17 20 -48 20q-21 0 -38.5 -10.5t-28.5 -27t-13.5 -37.5t8.5 -41l-29.5 -17.5l-22 -13l-21.5 -13.5t-26 -18q-7 46 2 88.5t33 75.5t61.5 53t87.5 19q54 -1 87.5 -21t49.5 -44q13 -24 15.5 -49.5
t-3.5 -50t-20 -46.5t-33 -40l-51.5 -50.5t-37 -39.5t-27 -38t-20.5 -46h-68z" />
    <glyph glyph-name=".notdef.008" unicode="&#x1edf;" horiz-adv-x="1018" 
d="M1180 733q-62 -56 -123 -98t-121 -70q-15 -117 -54.5 -210t-95 -162t-123 -115t-138.5 -69t-141 -22.5t-130 23.5q-72 26 -121 71t-78 102t-39 123.5t-2 137.5q9 75 35 149.5t68.5 142t100 124.5t128.5 98q48 28 102 46.5t109.5 25.5t110 0.5t102 -28.5t86.5 -61.5
t64 -98.5q12 -29 19 -65.5t7 -78.5q62 16 120 43.5t108 61.5zM690 526q-49 10 -96.5 32t-99.5 63l106 145q39 -36 88 -55q-12 57 -41 106t-67 73.5t-82.5 15t-87.5 -69.5q-26 -37 -49.5 -96t-40 -128t-24 -142.5t0 -138.5t31 -116.5t69.5 -77.5q37 -21 80 -12t83.5 54
t75 128.5t54.5 210.5v8zM1008 1249q31 -12 45 -41.5t13.5 -67.5t-15 -79t-42 -75.5t-66 -58t-87.5 -25.5l-10 48q27 1 45 7.5t30.5 18.5t21.5 29t18 39q-13 0 -27 7q-21 8 -36 22.5t-23.5 33.5t-9 40t7.5 42q7 20 21 35t32.5 23.5t39.5 9t42 -7.5zM586 1169q6 32 17.5 58.5
t26 49.5t30.5 42l30 36l29 36.5t25.5 40.5t7.5 42t-23 42q-17 20 -48 20q-21 0 -38.5 -10.5t-28.5 -27t-13.5 -37.5t8.5 -41l-29.5 -17.5l-22 -13l-21.5 -13.5t-26 -18q-7 46 2 88.5t33 75.5t61.5 53t87.5 19q54 -1 87.5 -21t49.5 -44q13 -24 15.5 -49.5t-3.5 -50t-20 -46.5
t-33 -40l-51.5 -50.5t-37 -39.5t-27 -38t-20.5 -46h-68z" />
    <glyph glyph-name=".notdef.073" unicode="&#x1ee0;" horiz-adv-x="1497" 
d="M1520 985q0 -48 -3 -100.5t-14 -112.5q-8 -57 -20.5 -111.5t-32.5 -113.5q-17 -56 -40.5 -110.5t-51.5 -106.5q-31 -53 -65 -99.5t-74 -87.5q-42 -40 -89 -71t-100 -56q-54 -24 -115 -35.5t-124 -11.5q-45 0 -84 5t-74 18q-69 18 -123 71q-50 46 -78 123q-14 41 -21.5 87
t-7.5 102q-2 43 0 88t9 96q13 101 38.5 192.5t61.5 178t81.5 169t98.5 165.5l324 36q-70 -101 -123.5 -193t-92 -177t-62.5 -164t-36 -154q-20 -120 -12 -213t36.5 -153t72.5 -82.5t97 -1t110.5 91.5t111.5 195q31 65 54 138.5t38 153.5q17 85 25 166t6 166
q-4 114 -46.5 187t-110 111.5t-152 46t-170.5 -9.5t-166.5 -55t-140.5 -91q-41 -38 -65.5 -86.5t-31.5 -101t3.5 -105t39.5 -97.5l-284 -131q-15 106 -2 198.5t48.5 170.5t90.5 142.5t123 115.5q76 56 164.5 94.5t182 57t188 17.5t182 -23t163.5 -65t133.5 -108.5
t91.5 -154.5t38 -201zM1514 1852q42 -16 62 -57t19 -94t-21.5 -110t-58 -105.5t-91.5 -80.5t-121 -35l-14 66q37 1 62 10.5t42.5 26t30 40t24.5 54.5q-11 0 -20 2.5t-18 7.5q-29 11 -50 31.5t-32.5 46.5t-12.5 55t11 58q10 28 29.5 49t45 32.5t55 12.5t58.5 -10zM1297 1875
q-9 -40 -39 -76q-31 -37 -77 -63q-22 -17 -47 -27.5t-54 -21.5q-54 -19 -112 -19q-55 0 -97 13q-21 5 -42.5 11.5t-41.5 14.5q-21 5 -40 12t-39 13q-19 6 -41 10t-43 4q-20 0 -33.5 -4t-24.5 -12.5t-21.5 -20.5l-23.5 -28l-45 14q25 51 59 87t80 60q86 52 203 52
q28 0 52.5 -3t45.5 -8l42 -9.5t40 -12.5l38.5 -12.5l37.5 -12.5l38 -6.5t44 -3.5q19 0 38 3.5t36 8.5q17 8 25 16.5t16 22.5z" />
    <glyph glyph-name=".notdef.007" unicode="&#x1ee1;" horiz-adv-x="1018" 
d="M1180 733q-62 -56 -123 -98t-121 -70q-15 -117 -54.5 -210t-95 -162t-123 -115t-138.5 -69t-141 -22.5t-130 23.5q-72 26 -121 71t-78 102t-39 123.5t-2 137.5q9 75 35 149.5t68.5 142t100 124.5t128.5 98q48 28 102 46.5t109.5 25.5t110 0.5t102 -28.5t86.5 -61.5
t64 -98.5q12 -29 19 -65.5t7 -78.5q62 16 120 43.5t108 61.5zM690 526q-49 10 -96.5 32t-99.5 63l106 145q39 -36 88 -55q-12 57 -41 106t-67 73.5t-82.5 15t-87.5 -69.5q-26 -37 -49.5 -96t-40 -128t-24 -142.5t0 -138.5t31 -116.5t69.5 -77.5q37 -21 80 -12t83.5 54
t75 128.5t54.5 210.5v8zM1008 1249q31 -12 45 -41.5t13.5 -67.5t-15 -79t-42 -75.5t-66 -58t-87.5 -25.5l-10 48q27 1 45 7.5t30.5 18.5t21.5 29t18 39q-13 0 -27 7q-21 8 -36 22.5t-23.5 33.5t-9 40t7.5 42q7 20 21 35t32.5 23.5t39.5 9t42 -7.5zM836 1298q-6 -28 -27 -54
t-55 -45q-15 -12 -33 -19l-38 -15t-40 -11t-40 -3q-38 0 -68 9q-15 4 -30.5 9t-29.5 10q-15 3 -28.5 8l-27.5 10q-13 4 -28.5 6.5t-30.5 2.5q-28 0 -41 -11.5t-32 -34.5l-32 10q34 72 99 104q61 37 143 37q38 0 70 -8q15 -3 29.5 -6.5t28.5 -8.5q13 -5 26.5 -9t26.5 -9
q13 -2 27.5 -4.5t31.5 -2.5q13 0 26.5 2.5t25.5 6.5q11 5 17.5 11t11.5 16z" />
    <glyph glyph-name=".notdef.072" unicode="&#x1ee2;" horiz-adv-x="1497" 
d="M1520 985q0 -48 -3 -100.5t-14 -112.5q-8 -57 -20.5 -111.5t-32.5 -113.5q-17 -56 -40.5 -110.5t-51.5 -106.5q-31 -53 -65 -99.5t-74 -87.5q-42 -40 -89 -71t-100 -56q-54 -24 -115 -35.5t-124 -11.5q-45 0 -84 5t-74 18q-69 18 -123 71q-50 46 -78 123q-14 41 -21.5 87
t-7.5 102q-2 43 0 88t9 96q13 101 38.5 192.5t61.5 178t81.5 169t98.5 165.5l324 36q-70 -101 -123.5 -193t-92 -177t-62.5 -164t-36 -154q-20 -120 -12 -213t36.5 -153t72.5 -82.5t97 -1t110.5 91.5t111.5 195q31 65 54 138.5t38 153.5q17 85 25 166t6 166
q-4 114 -46.5 187t-110 111.5t-152 46t-170.5 -9.5t-166.5 -55t-140.5 -91q-41 -38 -65.5 -86.5t-31.5 -101t3.5 -105t39.5 -97.5l-284 -131q-15 106 -2 198.5t48.5 170.5t90.5 142.5t123 115.5q76 56 164.5 94.5t182 57t188 17.5t182 -23t163.5 -65t133.5 -108.5
t91.5 -154.5t38 -201zM1514 1852q42 -16 62 -57t19 -94t-21.5 -110t-58 -105.5t-91.5 -80.5t-121 -35l-14 66q37 1 62 10.5t42.5 26t30 40t24.5 54.5q-11 0 -20 2.5t-18 7.5q-29 11 -50 31.5t-32.5 46.5t-12.5 55t11 58q10 28 29.5 49t45 32.5t55 12.5t58.5 -10zM979 -278
q0 -37 -12 -64.5t-37 -52.5q-45 -51 -117 -51q-34 0 -64 12.5t-54 38.5q-25 25 -36 52.5t-11 64.5q0 34 11 64t36 53q24 21 54 34t64 13q36 0 65 -13t52 -34q25 -23 37 -53t12 -64z" />
    <glyph glyph-name=".notdef.006" unicode="&#x1ee3;" horiz-adv-x="1018" 
d="M1180 733q-62 -56 -123 -98t-121 -70q-15 -117 -54.5 -210t-95 -162t-123 -115t-138.5 -69t-141 -22.5t-130 23.5q-72 26 -121 71t-78 102t-39 123.5t-2 137.5q9 75 35 149.5t68.5 142t100 124.5t128.5 98q48 28 102 46.5t109.5 25.5t110 0.5t102 -28.5t86.5 -61.5
t64 -98.5q12 -29 19 -65.5t7 -78.5q62 16 120 43.5t108 61.5zM690 526q-49 10 -96.5 32t-99.5 63l106 145q39 -36 88 -55q-12 57 -41 106t-67 73.5t-82.5 15t-87.5 -69.5q-26 -37 -49.5 -96t-40 -128t-24 -142.5t0 -138.5t31 -116.5t69.5 -77.5q37 -21 80 -12t83.5 54
t75 128.5t54.5 210.5v8zM1008 1249q31 -12 45 -41.5t13.5 -67.5t-15 -79t-42 -75.5t-66 -58t-87.5 -25.5l-10 48q27 1 45 7.5t30.5 18.5t21.5 29t18 39q-13 0 -27 7q-21 8 -36 22.5t-23.5 33.5t-9 40t7.5 42q7 20 21 35t32.5 23.5t39.5 9t42 -7.5zM258 -280q0 28 10.5 52.5
t29 43t43 29.5t52.5 11t52.5 -11t43 -29.5t29.5 -43t11 -52.5t-11 -52.5t-29.5 -43t-43 -29t-52.5 -10.5t-52.5 10.5t-43 29t-29 43t-10.5 52.5z" />
    <glyph glyph-name=".notdef.084" unicode="&#x1ee4;" horiz-adv-x="1696" 
d="M1788 1540l-309 -1540h-283l45 190q-42 -65 -105 -110.5t-135.5 -65.5t-149.5 -10.5t-146 55.5q-91 52 -121 164q-14 57 -15 125.5t9 153.5q11 85 30 186.5t45 216.5l105 463q-50 -5 -98.5 -12t-93.5 -18.5t-85 -27.5t-71 -40q-31 -26 -46 -67t-14.5 -92t17 -108.5
t49.5 -115.5l-277 -125q-14 112 -8 203.5t29 165t62 131t91 102.5q69 54 154.5 89t183 54.5t205 27t219.5 7.5l-37 -160l-98 -471l-32.5 -154.5t-26.5 -131.5q-10 -57 -16 -107t-9 -92q-5 -40 -6.5 -71t6.5 -54q15 -44 47 -58.5t73.5 -6t88 35t90.5 64.5t81 82t60 88
l211 1034h281zM1189 -278q0 -37 -12 -64.5t-37 -52.5q-45 -51 -117 -51q-34 0 -64 12.5t-54 38.5q-25 25 -36 52.5t-11 64.5q0 34 11 64t36 53q24 21 54 34t64 13q36 0 65 -13t52 -34q25 -23 37 -53t12 -64z" />
    <glyph glyph-name=".notdef.018" unicode="&#x1ee5;" horiz-adv-x="956" 
d="M1155 354q-33 -93 -87.5 -165.5t-119 -120t-131.5 -68t-124 -10t-98.5 54t-53.5 125.5q-54 -67 -119 -111t-128.5 -61.5t-120 -6t-95 55.5t-53 123t7.5 197l131 657h278l-45 -234.5l-40.5 -208l-37 -188t-32.5 -174.5q-10 -56 -2 -84t28.5 -33t49 9t60 41.5t61.5 65.5
t53 81q1 5 2.5 13.5t6 32l13 68.5l23.5 124l37.5 197.5l54.5 289.5h274l-43 -233l-38 -205.5l-35 -187.5l-33 -179q-11 -59 1 -85.5t37.5 -28t60 19t68.5 55.5t63.5 80t45.5 94h80zM258 -280q0 28 10.5 52.5t29 43t43 29.5t52.5 11t52.5 -11t43 -29.5t29.5 -43t11 -52.5
t-11 -52.5t-29.5 -43t-43 -29t-52.5 -10.5t-52.5 10.5t-43 29t-29 43t-10.5 52.5z" />
    <glyph glyph-name=".notdef.086" unicode="&#x1ee6;" horiz-adv-x="1696" 
d="M1507 1540l-211 -1034q-23 -44 -60 -88t-81 -82t-90.5 -64.5t-88 -35t-73.5 6t-47 58.5q-8 23 -6.5 54t6.5 71q3 42 9 92t16 107q11 60 26.5 131.5l32.5 154.5l98 471l37 160q-112 0 -219.5 -7.5t-205 -27t-183 -54.5t-154.5 -89q-52 -45 -91 -102.5t-62 -131t-29 -165
t8 -203.5l277 125q-33 58 -49.5 115.5t-17 108.5t14.5 92t46 67q31 24 71 40t85 27.5t93.5 18.5t98.5 12l-105 -463q-26 -115 -45 -216.5t-30 -186.5q-10 -85 -9 -153.5t15 -125.5q30 -112 121 -164q69 -46 146 -55.5t149.5 10.5t135.5 65.5t105 110.5l-45 -190h283
l309 1540h-281zM1279 1661q6 32 17.5 58.5t26 49.5t30.5 42l30 36l29 36.5t25.5 40.5t7.5 42t-23 42q-17 20 -48 20q-21 0 -38.5 -10.5t-28.5 -27t-13.5 -37.5t8.5 -41l-29.5 -17.5l-22 -13l-21.5 -13.5t-26 -18q-7 46 2 88.5t33 75.5t61.5 53t87.5 19q54 -1 87.5 -21
t49.5 -44q13 -24 15.5 -49.5t-3.5 -50t-20 -46.5t-33 -40l-51.5 -50.5t-37 -39.5t-27 -38t-20.5 -46h-68z" />
    <glyph glyph-name=".notdef.020" unicode="&#x1ee7;" horiz-adv-x="956" 
d="M1155 354q-33 -93 -87.5 -165.5t-119 -120t-131.5 -68t-124 -10t-98.5 54t-53.5 125.5q-54 -67 -119 -111t-128.5 -61.5t-120 -6t-95 55.5t-53 123t7.5 197l131 657h278l-45 -234.5l-40.5 -208l-37 -188t-32.5 -174.5q-10 -56 -2 -84t28.5 -33t49 9t60 41.5t61.5 65.5
t53 81q1 5 2.5 13.5t6 32l13 68.5l23.5 124l37.5 197.5l54.5 289.5h274l-43 -233l-38 -205.5l-35 -187.5l-33 -179q-11 -59 1 -85.5t37.5 -28t60 19t68.5 55.5t63.5 80t45.5 94h80zM537 1169q6 32 17.5 58.5t26 49.5t30.5 42l30 36l29 36.5t25.5 40.5t7.5 42t-23 42
q-17 20 -48 20q-21 0 -38.5 -10.5t-28.5 -27t-13.5 -37.5t8.5 -41l-29.5 -17.5l-22 -13l-21.5 -13.5t-26 -18q-7 46 2 88.5t33 75.5t61.5 53t87.5 19q54 -1 87.5 -21t49.5 -44q13 -24 15.5 -49.5t-3.5 -50t-20 -46.5t-33 -40l-51.5 -50.5t-37 -39.5t-27 -38t-20.5 -46h-68z
" />
    <glyph glyph-name=".notdef.081" unicode="&#x1ee8;" horiz-adv-x="1696" 
d="M1788 1540l-309 -1540h-283l45 190q-42 -65 -105 -110.5t-135.5 -65.5t-149.5 -10.5t-146 55.5q-91 52 -121 164q-14 57 -15 125.5t9 153.5q11 85 30 186.5t45 216.5l105 463q-50 -5 -98.5 -12t-93.5 -18.5t-85 -27.5t-71 -40q-31 -26 -46 -67t-14.5 -92t17 -108.5
t49.5 -115.5l-277 -125q-14 112 -8 203.5t29 165t62 131t91 102.5q69 54 154.5 89t183 54.5t205 27t219.5 7.5l-37 -160l-98 -471l-32.5 -154.5t-26.5 -131.5q-10 -57 -16 -107t-9 -92q-5 -40 -6.5 -71t6.5 -54q15 -44 47 -58.5t73.5 -6t88 35t90.5 64.5t81 82t60 88
l211 1034h281zM1964 1852q43 -16 62.5 -57t18.5 -94t-21.5 -110t-58 -105.5t-91.5 -80.5t-121 -35l-14 66q37 1 62 10.5t42.5 26t30 40t24.5 54.5q-11 0 -20 2.5t-18 7.5q-29 11 -50 31.5t-32.5 46.5t-12.5 55t11 58q10 28 29.5 49t45 32.5t55 12.5t58.5 -10zM1575 2048
l-178 -391h-161l120 389z" />
    <glyph glyph-name=".notdef.015" unicode="&#x1ee9;" horiz-adv-x="975" 
d="M1167 354q-33 -93 -87.5 -165.5t-119 -120t-131.5 -68t-124 -10t-98.5 54t-53.5 125.5q-54 -67 -119 -111t-128.5 -61.5t-120 -6t-95 55.5t-53 123t7.5 197l131 657h279l-45.5 -234.5l-41 -208l-37 -188t-32.5 -174.5q-10 -56 -2 -84t28.5 -33t49.5 9t60 41.5t61 65.5
t53 81q1 5 2.5 13.5t6 32l13 68.5l23.5 124l37.5 197.5l54.5 289.5h275l-43.5 -233l-38.5 -205.5l-35 -187.5l-33 -179q-11 -59 1 -85.5t37.5 -28t60 19t68.5 55.5t63.5 80t45.5 94h80zM1090 1249q31 -12 45 -41.5t13.5 -67.5t-15 -79t-42 -75.5t-66 -58t-87.5 -25.5l-10 48
q27 1 45 7.5t30.5 18.5t21.5 29t18 39q-13 0 -27 7q-21 8 -36 22.5t-23.5 33.5t-9 40t7.5 42q7 20 21 35t32.5 23.5t39.5 9t42 -7.5zM860 1540l-178 -391h-162l121 389z" />
    <glyph glyph-name=".notdef.082" unicode="&#x1eea;" horiz-adv-x="1696" 
d="M1788 1540l-309 -1540h-283l45 190q-42 -65 -105 -110.5t-135.5 -65.5t-149.5 -10.5t-146 55.5q-91 52 -121 164q-14 57 -15 125.5t9 153.5q11 85 30 186.5t45 216.5l105 463q-50 -5 -98.5 -12t-93.5 -18.5t-85 -27.5t-71 -40q-31 -26 -46 -67t-14.5 -92t17 -108.5
t49.5 -115.5l-277 -125q-14 112 -8 203.5t29 165t62 131t91 102.5q69 54 154.5 89t183 54.5t205 27t219.5 7.5l-37 -160l-98 -471l-32.5 -154.5t-26.5 -131.5q-10 -57 -16 -107t-9 -92q-5 -40 -6.5 -71t6.5 -54q15 -44 47 -58.5t73.5 -6t88 35t90.5 64.5t81 82t60 88
l211 1034h281zM1964 1852q43 -16 62.5 -57t18.5 -94t-21.5 -110t-58 -105.5t-91.5 -80.5t-121 -35l-14 66q37 1 62 10.5t42.5 26t30 40t24.5 54.5q-11 0 -20 2.5t-18 7.5q-29 11 -50 31.5t-32.5 46.5t-12.5 55t11 58q10 28 29.5 49t45 32.5t55 12.5t58.5 -10zM1296 2046
l120 -389h-161l-178 391z" />
    <glyph glyph-name=".notdef.016" unicode="&#x1eeb;" horiz-adv-x="975" 
d="M1167 354q-33 -93 -87.5 -165.5t-119 -120t-131.5 -68t-124 -10t-98.5 54t-53.5 125.5q-54 -67 -119 -111t-128.5 -61.5t-120 -6t-95 55.5t-53 123t7.5 197l131 657h279l-45.5 -234.5l-41 -208l-37 -188t-32.5 -174.5q-10 -56 -2 -84t28.5 -33t49.5 9t60 41.5t61 65.5
t53 81q1 5 2.5 13.5t6 32l13 68.5l23.5 124l37.5 197.5l54.5 289.5h275l-43.5 -233l-38.5 -205.5l-35 -187.5l-33 -179q-11 -59 1 -85.5t37.5 -28t60 19t68.5 55.5t63.5 80t45.5 94h80zM1090 1249q31 -12 45 -41.5t13.5 -67.5t-15 -79t-42 -75.5t-66 -58t-87.5 -25.5l-10 48
q27 1 45 7.5t30.5 18.5t21.5 29t18 39q-13 0 -27 7q-21 8 -36 22.5t-23.5 33.5t-9 40t7.5 42q7 20 21 35t32.5 23.5t39.5 9t42 -7.5zM558 1538l121 -389h-162l-178 391z" />
    <glyph glyph-name=".notdef.080" unicode="&#x1eec;" horiz-adv-x="1696" 
d="M1788 1540l-309 -1540h-283l45 190q-42 -65 -105 -110.5t-135.5 -65.5t-149.5 -10.5t-146 55.5q-91 52 -121 164q-14 57 -15 125.5t9 153.5q11 85 30 186.5t45 216.5l105 463q-50 -5 -98.5 -12t-93.5 -18.5t-85 -27.5t-71 -40q-31 -26 -46 -67t-14.5 -92t17 -108.5
t49.5 -115.5l-277 -125q-14 112 -8 203.5t29 165t62 131t91 102.5q69 54 154.5 89t183 54.5t205 27t219.5 7.5l-37 -160l-98 -471l-32.5 -154.5t-26.5 -131.5q-10 -57 -16 -107t-9 -92q-5 -40 -6.5 -71t6.5 -54q15 -44 47 -58.5t73.5 -6t88 35t90.5 64.5t81 82t60 88
l211 1034h281zM1964 1852q43 -16 62.5 -57t18.5 -94t-21.5 -110t-58 -105.5t-91.5 -80.5t-121 -35l-14 66q37 1 62 10.5t42.5 26t30 40t24.5 54.5q-11 0 -20 2.5t-18 7.5q-29 11 -50 31.5t-32.5 46.5t-12.5 55t11 58q10 28 29.5 49t45 32.5t55 12.5t58.5 -10zM1287 1661
q6 32 17.5 58.5t26 49.5t30.5 42l30 36l29 36.5t25.5 40.5t7.5 42t-23 42q-17 20 -48 20q-21 0 -38.5 -10.5t-28.5 -27t-13.5 -37.5t8.5 -41l-29.5 -17.5l-22 -13l-21.5 -13.5t-26 -18q-7 46 2 88.5t33 75.5t61.5 53t87.5 19q54 -1 87.5 -21t49.5 -44q13 -24 15.5 -49.5
t-3.5 -50t-20 -46.5t-33 -40l-51.5 -50.5t-37 -39.5t-27 -38t-20.5 -46h-68z" />
    <glyph glyph-name=".notdef.014" unicode="&#x1eed;" horiz-adv-x="975" 
d="M1167 354q-33 -93 -87.5 -165.5t-119 -120t-131.5 -68t-124 -10t-98.5 54t-53.5 125.5q-54 -67 -119 -111t-128.5 -61.5t-120 -6t-95 55.5t-53 123t7.5 197l131 657h279l-45.5 -234.5l-41 -208l-37 -188t-32.5 -174.5q-10 -56 -2 -84t28.5 -33t49.5 9t60 41.5t61 65.5
t53 81q1 5 2.5 13.5t6 32l13 68.5l23.5 124l37.5 197.5l54.5 289.5h275l-43.5 -233l-38.5 -205.5l-35 -187.5l-33 -179q-11 -59 1 -85.5t37.5 -28t60 19t68.5 55.5t63.5 80t45.5 94h80zM1090 1249q31 -12 45 -41.5t13.5 -67.5t-15 -79t-42 -75.5t-66 -58t-87.5 -25.5l-10 48
q27 1 45 7.5t30.5 18.5t21.5 29t18 39q-13 0 -27 7q-21 8 -36 22.5t-23.5 33.5t-9 40t7.5 42q7 20 21 35t32.5 23.5t39.5 9t42 -7.5zM555 1169q6 32 17.5 58.5t26 49.5t30.5 42l30 36l29 36.5t25.5 40.5t7.5 42t-23 42q-17 20 -48 20q-21 0 -38.5 -10.5t-28.5 -27
t-13.5 -37.5t8.5 -41l-29.5 -17.5l-22 -13l-21.5 -13.5t-26 -18q-7 46 2 88.5t33 75.5t61.5 53t87.5 19q54 -1 87.5 -21t49.5 -44q13 -24 15.5 -49.5t-3.5 -50t-20 -46.5t-33 -40l-51.5 -50.5t-37 -39.5t-27 -38t-20.5 -46h-68z" />
    <glyph glyph-name=".notdef.079" unicode="&#x1eee;" horiz-adv-x="1696" 
d="M1788 1540l-309 -1540h-283l45 190q-42 -65 -105 -110.5t-135.5 -65.5t-149.5 -10.5t-146 55.5q-91 52 -121 164q-14 57 -15 125.5t9 153.5q11 85 30 186.5t45 216.5l105 463q-50 -5 -98.5 -12t-93.5 -18.5t-85 -27.5t-71 -40q-31 -26 -46 -67t-14.5 -92t17 -108.5
t49.5 -115.5l-277 -125q-14 112 -8 203.5t29 165t62 131t91 102.5q69 54 154.5 89t183 54.5t205 27t219.5 7.5l-37 -160l-98 -471l-32.5 -154.5t-26.5 -131.5q-10 -57 -16 -107t-9 -92q-5 -40 -6.5 -71t6.5 -54q15 -44 47 -58.5t73.5 -6t88 35t90.5 64.5t81 82t60 88
l211 1034h281zM1964 1852q43 -16 62.5 -57t18.5 -94t-21.5 -110t-58 -105.5t-91.5 -80.5t-121 -35l-14 66q37 1 62 10.5t42.5 26t30 40t24.5 54.5q-11 0 -20 2.5t-18 7.5q-29 11 -50 31.5t-32.5 46.5t-12.5 55t11 58q10 28 29.5 49t45 32.5t55 12.5t58.5 -10zM1723 1875
q-9 -40 -39 -76q-31 -37 -77 -63q-22 -17 -47 -27.5t-54 -21.5q-54 -19 -112 -19q-55 0 -97 13q-21 5 -42.5 11.5t-41.5 14.5q-21 5 -40 12t-39 13q-19 6 -41 10t-43 4q-20 0 -33.5 -4t-24.5 -12.5t-21.5 -20.5l-23.5 -28l-45 14q25 51 59 87t80 60q86 52 203 52
q28 0 52.5 -3t45.5 -8l42 -9.5t40 -12.5l38.5 -12.5l37.5 -12.5l38 -6.5t44 -3.5q19 0 38 3.5t36 8.5q17 8 25 16.5t16 22.5z" />
    <glyph glyph-name=".notdef.013" unicode="&#x1eef;" horiz-adv-x="975" 
d="M1167 354q-33 -93 -87.5 -165.5t-119 -120t-131.5 -68t-124 -10t-98.5 54t-53.5 125.5q-54 -67 -119 -111t-128.5 -61.5t-120 -6t-95 55.5t-53 123t7.5 197l131 657h279l-45.5 -234.5l-41 -208l-37 -188t-32.5 -174.5q-10 -56 -2 -84t28.5 -33t49.5 9t60 41.5t61 65.5
t53 81q1 5 2.5 13.5t6 32l13 68.5l23.5 124l37.5 197.5l54.5 289.5h275l-43.5 -233l-38.5 -205.5l-35 -187.5l-33 -179q-11 -59 1 -85.5t37.5 -28t60 19t68.5 55.5t63.5 80t45.5 94h80zM1090 1249q31 -12 45 -41.5t13.5 -67.5t-15 -79t-42 -75.5t-66 -58t-87.5 -25.5l-10 48
q27 1 45 7.5t30.5 18.5t21.5 29t18 39q-13 0 -27 7q-21 8 -36 22.5t-23.5 33.5t-9 40t7.5 42q7 20 21 35t32.5 23.5t39.5 9t42 -7.5zM893 1298q-6 -28 -27 -54t-55 -45q-15 -12 -33 -19l-38 -15t-40 -11t-40 -3q-38 0 -68 9q-15 4 -30.5 9t-29.5 10q-15 3 -28.5 8l-27.5 10
q-13 4 -28.5 6.5t-30.5 2.5q-28 0 -41 -11.5t-32 -34.5l-32 10q34 72 99 104q61 37 143 37q38 0 70 -8q15 -3 29.5 -6.5t28.5 -8.5q13 -5 26.5 -9t26.5 -9q13 -2 27.5 -4.5t31.5 -2.5q13 0 26.5 2.5t25.5 6.5q11 5 17.5 11t11.5 16z" />
    <glyph glyph-name=".notdef.078" unicode="&#x1ef0;" horiz-adv-x="1696" 
d="M1788 1540l-309 -1540h-283l45 190q-42 -65 -105 -110.5t-135.5 -65.5t-149.5 -10.5t-146 55.5q-91 52 -121 164q-14 57 -15 125.5t9 153.5q11 85 30 186.5t45 216.5l105 463q-50 -5 -98.5 -12t-93.5 -18.5t-85 -27.5t-71 -40q-31 -26 -46 -67t-14.5 -92t17 -108.5
t49.5 -115.5l-277 -125q-14 112 -8 203.5t29 165t62 131t91 102.5q69 54 154.5 89t183 54.5t205 27t219.5 7.5l-37 -160l-98 -471l-32.5 -154.5t-26.5 -131.5q-10 -57 -16 -107t-9 -92q-5 -40 -6.5 -71t6.5 -54q15 -44 47 -58.5t73.5 -6t88 35t90.5 64.5t81 82t60 88
l211 1034h281zM1964 1852q43 -16 62.5 -57t18.5 -94t-21.5 -110t-58 -105.5t-91.5 -80.5t-121 -35l-14 66q37 1 62 10.5t42.5 26t30 40t24.5 54.5q-11 0 -20 2.5t-18 7.5q-29 11 -50 31.5t-32.5 46.5t-12.5 55t11 58q10 28 29.5 49t45 32.5t55 12.5t58.5 -10zM1118 -278
q0 -37 -12 -64.5t-37 -52.5q-45 -51 -117 -51q-34 0 -64 12.5t-54 38.5q-25 25 -36 52.5t-11 64.5q0 34 11 64t36 53q24 21 54 34t64 13q36 0 65 -13t52 -34q25 -23 37 -53t12 -64z" />
    <glyph glyph-name=".notdef.012" unicode="&#x1ef1;" horiz-adv-x="975" 
d="M1167 354q-33 -93 -87.5 -165.5t-119 -120t-131.5 -68t-124 -10t-98.5 54t-53.5 125.5q-54 -67 -119 -111t-128.5 -61.5t-120 -6t-95 55.5t-53 123t7.5 197l131 657h279l-45.5 -234.5l-41 -208l-37 -188t-32.5 -174.5q-10 -56 -2 -84t28.5 -33t49.5 9t60 41.5t61 65.5
t53 81q1 5 2.5 13.5t6 32l13 68.5l23.5 124l37.5 197.5l54.5 289.5h275l-43.5 -233l-38.5 -205.5l-35 -187.5l-33 -179q-11 -59 1 -85.5t37.5 -28t60 19t68.5 55.5t63.5 80t45.5 94h80zM1090 1249q31 -12 45 -41.5t13.5 -67.5t-15 -79t-42 -75.5t-66 -58t-87.5 -25.5l-10 48
q27 1 45 7.5t30.5 18.5t21.5 29t18 39q-13 0 -27 7q-21 8 -36 22.5t-23.5 33.5t-9 40t7.5 42q7 20 21 35t32.5 23.5t39.5 9t42 -7.5zM258 -280q0 28 10.5 52.5t29 43t43 29.5t52.5 11t52.5 -11t43 -29.5t29.5 -43t11 -52.5t-11 -52.5t-29.5 -43t-43 -29t-52.5 -10.5
t-52.5 10.5t-43 29t-29 43t-10.5 52.5z" />
    <glyph glyph-name=".notdef.286" horiz-adv-x="1720" 
d="M461 887q-36 54 -58.5 111t-29.5 108t1 93t34 67q31 27 72 46t88.5 31t99 18.5t104.5 10.5l-84 -354q-13 -78 -28.5 -149.5t-25 -139.5t-8.5 -135t21 -135q23 -63 69 -102.5t105 -57.5t125.5 -17t130.5 19t121 51.5t96 79.5l-20 -117t-21.5 -122.5t-25 -121.5t-29.5 -114
q-13 -39 -32 -79.5t-46.5 -71t-65.5 -45t-89 -1.5q-36 13 -64.5 39t-50 59t-38 71.5t-28.5 76.5l-39 -31.5l-52 -42l-57 -45t-56 -41.5q45 -104 123 -169t172.5 -89t196.5 -4.5t196 84.5q31 23 59.5 52.5t54.5 64.5q15 22 28.5 46t27.5 61.5t30 94.5t36.5 144.5l47 211
l61 294l79.5 393.5l102 510h-278l-181 -850q-18 -33 -52.5 -69t-76.5 -67t-87.5 -54.5t-87 -31t-74 4t-48.5 49.5q-5 13 -4 47.5t6.5 81t13.5 100.5t17 105l17 95t14 71l117 518q-108 0 -219.5 -5.5t-215 -24.5t-194.5 -55t-158 -97q-45 -43 -77 -103t-48.5 -135t-15.5 -165
t22 -193zM1274 2046l121 -389h-162l-178 391z" />
    <glyph glyph-name=".notdef.287" horiz-adv-x="981" 
d="M760 1024l-146 -721q-25 -43 -59 -81t-70.5 -65.5t-71 -41.5t-59 -8.5t-35.5 33t0 83.5l74.5 367l87.5 434h-291l-129 -649q-24 -114 -10.5 -193t52 -125t96.5 -62t123.5 -4.5t132.5 48.5t125 96l-88 -430q-6 -28 -22.5 -40.5t-39 -14t-49 6.5t-51.5 19.5t-46 25
t-34 24.5l-195 -197q153 -43 268.5 -39t201.5 45.5t146 115.5t102.5 170t70.5 209t51 234l154 760h-289zM580 1538l121 -389h-162l-178 391z" />
    <glyph glyph-name=".notdef.071" unicode="&#x1ef2;" horiz-adv-x="1583" 
d="M352 887l-276 -125q-22 103 -22.5 193t16 165t48.5 135t77 103q67 61 158 97t194.5 55t214.5 24.5t219 5.5l-117 -518q-6 -27 -14 -71l-17 -95t-17 -105t-13 -100.5t-6 -81t4 -47.5q16 -38 48.5 -49.5t73.5 -4t87 31t88 54.5t76 67t53 69l180 850h279l-102 -510
l-80 -393.5l-61.5 -294l-46.5 -211t-36 -144.5t-30 -94.5t-27.5 -61.5t-28.5 -46q-26 -35 -55 -64.5t-60 -52.5q-63 -44 -129.5 -66.5t-133 -26t-130 12.5t-119 50.5t-101 86.5t-75.5 121l56.5 41.5l57.5 45l52 42l39 31.5q12 -38 28.5 -76.5t38 -71.5t49.5 -59t64 -39
q51 -13 89 1.5t66 45t47 71t32 79.5q16 54 29.5 114t24.5 121.5l21.5 122.5l20.5 117q-40 -46 -96.5 -79.5t-121 -51.5t-131 -19t-125 17t-104.5 57.5t-69 102.5q-20 68 -21 135t8.5 135t25 139.5t28.5 149.5l84 354q-53 -4 -105 -10.5t-99.5 -18.5t-88.5 -31t-72 -46
q-26 -25 -34 -67t-1 -93t29.5 -108t58.5 -111zM1160 2046l121 -389h-162l-178 391z" />
    <glyph glyph-name=".notdef.005" unicode="&#x1ef3;" horiz-adv-x="1022" 
d="M1018 1024l-154 -760q-22 -121 -50.5 -234t-71 -209t-102.5 -170t-145.5 -115.5t-201 -45.5t-268.5 39l194 197q13 -11 34 -24.5t46 -25t51.5 -19.5t49 -6.5t39 14t22.5 40.5l88 430q-57 -59 -124.5 -96t-133 -48.5t-123 4.5t-96 62t-52 125t10.5 193l129 649h291
l-88 -434l-74 -367q-11 -56 0 -83.5t35.5 -33t59 8.5t70.5 41.5t70.5 65.5t59.5 81l145 721h289zM582 1538l121 -389h-162l-178 391z" />
    <glyph glyph-name=".notdef.067" unicode="&#x1ef4;" horiz-adv-x="1583" 
d="M352 887l-276 -125q-22 103 -22.5 193t16 165t48.5 135t77 103q67 61 158 97t194.5 55t214.5 24.5t219 5.5l-117 -518q-6 -27 -14 -71l-17 -95t-17 -105t-13 -100.5t-6 -81t4 -47.5q16 -38 48.5 -49.5t73.5 -4t87 31t88 54.5t76 67t53 69l180 850h279l-102 -510
l-80 -393.5l-61.5 -294l-46.5 -211t-36 -144.5t-30 -94.5t-27.5 -61.5t-28.5 -46q-26 -35 -55 -64.5t-60 -52.5q-63 -44 -129.5 -66.5t-133 -26t-130 12.5t-119 50.5t-101 86.5t-75.5 121l56.5 41.5l57.5 45l52 42l39 31.5q12 -38 28.5 -76.5t38 -71.5t49.5 -59t64 -39
q51 -13 89 1.5t66 45t47 71t32 79.5q16 54 29.5 114t24.5 121.5l21.5 122.5l20.5 117q-40 -46 -96.5 -79.5t-121 -51.5t-131 -19t-125 17t-104.5 57.5t-69 102.5q-20 68 -21 135t8.5 135t25 139.5t28.5 149.5l84 354q-53 -4 -105 -10.5t-99.5 -18.5t-88.5 -31t-72 -46
q-26 -25 -34 -67t-1 -93t29.5 -108t58.5 -111zM1061 -663q0 -37 -12 -64.5t-37 -52.5q-45 -51 -117 -51q-34 0 -64 12.5t-54 38.5q-25 25 -36 52.5t-11 64.5q0 34 11 64t36 53q24 21 54 34t64 13q36 0 65 -13t52 -34q25 -23 37 -53t12 -64z" />
    <glyph glyph-name=".notdef.001" unicode="&#x1ef5;" horiz-adv-x="1022" 
d="M1018 1024l-154 -760q-22 -121 -50.5 -234t-71 -209t-102.5 -170t-145.5 -115.5t-201 -45.5t-268.5 39l194 197q13 -11 34 -24.5t46 -25t51.5 -19.5t49 -6.5t39 14t22.5 40.5l88 430q-57 -59 -124.5 -96t-133 -48.5t-123 4.5t-96 62t-52 125t10.5 193l129 649h291
l-88 -434l-74 -367q-11 -56 0 -83.5t35.5 -33t59 8.5t70.5 41.5t70.5 65.5t59.5 81l145 721h289zM258 -769q0 28 10.5 52.5t29 43t43 29.5t52.5 11t52.5 -11t43 -29.5t29.5 -43t11 -52.5t-11 -52.5t-29.5 -43t-43 -29t-52.5 -10.5t-52.5 10.5t-43 29t-29 43t-10.5 52.5z" />
    <glyph glyph-name=".notdef.069" unicode="&#x1ef6;" horiz-adv-x="1583" 
d="M352 887l-276 -125q-22 103 -22.5 193t16 165t48.5 135t77 103q67 61 158 97t194.5 55t214.5 24.5t219 5.5l-117 -518q-6 -27 -14 -71l-17 -95t-17 -105t-13 -100.5t-6 -81t4 -47.5q16 -38 48.5 -49.5t73.5 -4t87 31t88 54.5t76 67t53 69l180 850h279l-102 -510
l-80 -393.5l-61.5 -294l-46.5 -211t-36 -144.5t-30 -94.5t-27.5 -61.5t-28.5 -46q-26 -35 -55 -64.5t-60 -52.5q-63 -44 -129.5 -66.5t-133 -26t-130 12.5t-119 50.5t-101 86.5t-75.5 121l56.5 41.5l57.5 45l52 42l39 31.5q12 -38 28.5 -76.5t38 -71.5t49.5 -59t64 -39
q51 -13 89 1.5t66 45t47 71t32 79.5q16 54 29.5 114t24.5 121.5l21.5 122.5l20.5 117q-40 -46 -96.5 -79.5t-121 -51.5t-131 -19t-125 17t-104.5 57.5t-69 102.5q-20 68 -21 135t8.5 135t25 139.5t28.5 149.5l84 354q-53 -4 -105 -10.5t-99.5 -18.5t-88.5 -31t-72 -46
q-26 -25 -34 -67t-1 -93t29.5 -108t58.5 -111zM1181 1661q6 32 17.5 58.5t26 49.5t30.5 42l30 36l29 36.5t25.5 40.5t7.5 42t-23 42q-17 20 -48 20q-21 0 -38.5 -10.5t-28.5 -27t-13.5 -37.5t8.5 -41l-29.5 -17.5l-22 -13l-21.5 -13.5t-26 -18q-7 46 2 88.5t33 75.5t61.5 53
t87.5 19q54 -1 87.5 -21t49.5 -44q13 -24 15.5 -49.5t-3.5 -50t-20 -46.5t-33 -40l-51.5 -50.5t-37 -39.5t-27 -38t-20.5 -46h-68z" />
    <glyph glyph-name=".notdef.003" unicode="&#x1ef7;" horiz-adv-x="1022" 
d="M729 1024l-145 -721q-25 -43 -59.5 -81t-70.5 -65.5t-70.5 -41.5t-59 -8.5t-35.5 33t0 83.5l74 367l88 434h-291l-129 -649q-24 -114 -10.5 -193t52 -125t96 -62t123 -4.5t133 48.5t124.5 96l-88 -430q-6 -28 -22.5 -40.5t-39 -14t-49 6.5t-51.5 19.5t-46 25t-34 24.5
l-194 -197q153 -43 268.5 -39t201 45.5t145.5 115.5t102.5 170t71 209t50.5 234l154 760h-289zM572 1169q6 32 17.5 58.5t26 49.5t30.5 42l30 36l29 36.5t25.5 40.5t7.5 42t-23 42q-17 20 -48 20q-21 0 -38.5 -10.5t-28.5 -27t-13.5 -37.5t8.5 -41l-29.5 -17.5l-22 -13
l-21.5 -13.5t-26 -18q-7 46 2 88.5t33 75.5t61.5 53t87.5 19q54 -1 87.5 -21t49.5 -44q13 -24 15.5 -49.5t-3.5 -50t-20 -46.5t-33 -40l-51.5 -50.5t-37 -39.5t-27 -38t-20.5 -46h-68z" />
    <glyph glyph-name=".notdef.068" unicode="&#x1ef8;" horiz-adv-x="1583" 
d="M352 887l-276 -125q-22 103 -22.5 193t16 165t48.5 135t77 103q67 61 158 97t194.5 55t214.5 24.5t219 5.5l-117 -518q-6 -27 -14 -71l-17 -95t-17 -105t-13 -100.5t-6 -81t4 -47.5q16 -38 48.5 -49.5t73.5 -4t87 31t88 54.5t76 67t53 69l180 850h279l-102 -510
l-80 -393.5l-61.5 -294l-46.5 -211t-36 -144.5t-30 -94.5t-27.5 -61.5t-28.5 -46q-26 -35 -55 -64.5t-60 -52.5q-63 -44 -129.5 -66.5t-133 -26t-130 12.5t-119 50.5t-101 86.5t-75.5 121l56.5 41.5l57.5 45l52 42l39 31.5q12 -38 28.5 -76.5t38 -71.5t49.5 -59t64 -39
q51 -13 89 1.5t66 45t47 71t32 79.5q16 54 29.5 114t24.5 121.5l21.5 122.5l20.5 117q-40 -46 -96.5 -79.5t-121 -51.5t-131 -19t-125 17t-104.5 57.5t-69 102.5q-20 68 -21 135t8.5 135t25 139.5t28.5 149.5l84 354q-53 -4 -105 -10.5t-99.5 -18.5t-88.5 -31t-72 -46
q-26 -25 -34 -67t-1 -93t29.5 -108t58.5 -111zM1591 1875q-9 -40 -39 -76q-31 -37 -77 -63q-22 -17 -47 -27.5t-54 -21.5q-54 -19 -112 -19q-55 0 -97 13q-21 5 -42.5 11.5t-41.5 14.5q-21 5 -40 12t-39 13q-19 6 -41 10t-43 4q-20 0 -33.5 -4t-24.5 -12.5t-21.5 -20.5
l-23.5 -28l-45 14q25 51 59 87t80 60q86 52 203 52q28 0 52.5 -3t45.5 -8l42 -9.5t40 -12.5l38.5 -12.5l37.5 -12.5l38 -6.5t44 -3.5q19 0 38 3.5t36 8.5q17 8 25 16.5t16 22.5z" />
    <glyph glyph-name=".notdef.002" unicode="&#x1ef9;" horiz-adv-x="1022" 
d="M729 1024l-145 -721q-25 -43 -59.5 -81t-70.5 -65.5t-70.5 -41.5t-59 -8.5t-35.5 33t0 83.5l74 367l88 434h-291l-129 -649q-24 -114 -10.5 -193t52 -125t96 -62t123 -4.5t133 48.5t124.5 96l-88 -430q-6 -28 -22.5 -40.5t-39 -14t-49 6.5t-51.5 19.5t-46 25t-34 24.5
l-194 -197q153 -43 268.5 -39t201 45.5t145.5 115.5t102.5 170t71 209t50.5 234l154 760h-289zM895 1298q-6 -28 -27 -54t-55 -45q-15 -12 -33 -19l-38 -15t-40 -11t-40 -3q-38 0 -68 9q-15 4 -30.5 9t-29.5 10q-15 3 -28.5 8l-27.5 10q-13 4 -28.5 6.5t-30.5 2.5
q-28 0 -41 -11.5t-32 -34.5l-32 10q34 72 99 104q61 37 143 37q38 0 70 -8q15 -3 29.5 -6.5t28.5 -8.5q13 -5 26.5 -9t26.5 -9q13 -2 27.5 -4.5t31.5 -2.5q13 0 26.5 2.5t25.5 6.5q11 5 17.5 11t11.5 16z" />
    <glyph glyph-name=".notdef.042" unicode="&#x1ebf;" horiz-adv-x="731" 
d="M911 352q-60 -111 -122 -182.5t-130.5 -112.5t-144.5 -56t-164 -13q-97 3 -162.5 42.5t-104 104t-51.5 146.5t-3 170.5t40 177t78 164.5q58 90 133.5 145.5t151 78.5t143 15t111.5 -45q39 -32 60 -75t25.5 -91t-6.5 -98.5t-34 -95.5q-35 -64 -83 -108.5t-105.5 -71.5
t-121.5 -38.5t-130 -9.5q1 -37 8.5 -75.5t23 -73t39 -63t56.5 -44.5q59 -27 118.5 -20.5t114 38t103 81.5t84.5 110h73zM299 518q0 -6 -1 -11.5t-1 -10.5q81 -3 139 24t96.5 70.5t59.5 95.5t28.5 99.5t3 83.5t-17.5 46q-15 12 -38.5 10t-51.5 -17t-57.5 -44.5t-57.5 -72.5
q-32 -50 -58.5 -118t-43.5 -155zM898 1182l-125 -13l-121 168l-221 -176l-184 -12l366 383l109 8zM1216 1760l-178 -391h-162l121 389z" />
    <glyph glyph-name=".notdef.130" unicode="&#x1ebe;" horiz-adv-x="1339" 
d="M1501 1540l-59 -182h-432l-78 -404h301l-53 -180h-283l-123 -594h457l-51 -180h-723l276 1364q-51 -5 -101.5 -11t-97 -17.5t-86.5 -28.5t-69 -43t-44 -66.5t-14.5 -90t17 -105t49.5 -111.5l-276 -129q-15 113 -9 207t29.5 170t63.5 135t94 102q93 68 210 103t257 51
q60 5 111 6.5t108 1.5q47 0 111 0.5t135 0.5t143.5 0.5t136.5 0.5zM1126 2038l-327 -340l165 12l197 160l111 -154l110 11l-159 321zM1686 2357l-178 -391h-162l121 389z" />
    <glyph glyph-name="Dslash" unicode="&#x110;" horiz-adv-x="1634" 
d="M422 1335q76 63 167 107.5t189 68.5t198 27.5t193.5 -15.5t175 -60t143 -106t98 -154t38.5 -204q2 -48 -1.5 -101t-12.5 -110q-8 -57 -22.5 -111.5t-31.5 -111.5q-21 -55 -45 -107.5t-55 -105.5q-29 -51 -65 -96.5t-76 -85.5q-42 -38 -90.5 -69t-102.5 -54
q-55 -23 -115 -35t-128 -12h-402l275 1378q-65 -23 -121.5 -55.5t-100.5 -73.5q-38 -34 -62 -80t-32.5 -95.5t-0.5 -99.5t34 -91l-276 -129q-14 94 -2 178t44 157t80 134.5t107 111.5zM1311 760q18 81 27.5 162t7.5 159q-3 83 -27 144t-64.5 101.5t-94 63t-113.5 29.5
l-252 -1265q40 -5 80.5 -3t66.5 13q31 12 64 31t68 53.5t71 87.5t72 133q30 63 52.5 136t41.5 155zM284 561l55 225h834l-53 -225h-836z" />
  </font>
</defs>
</svg>
